/* XPM */
static char *dae9fa592100437dfc66bced96261b7cyrF9b8hBsZyKNV78[] = {
/* columns rows colors chars-per-pixel */
"100 100 63 1 ",
"  c #CB2B27",
". c #CE2D29",
"X c #D22E2A",
"o c #D82F29",
"O c #D5312C",
"+ c #DB342D",
"@ c #DF382F",
"# c #D73530",
"$ c #DD3631",
"% c #DE3832",
"& c #E73627",
"* c #E4362D",
"= c #E9372D",
"- c #E5382E",
"; c #EA3A2F",
": c #EA3B2F",
"> c #EB3B2F",
", c #EC392C",
"< c #EC3A2F",
"1 c #EE3C2F",
"2 c #F03D2E",
"3 c #F03D2F",
"4 c #F23E2E",
"5 c #E03730",
"6 c #E53730",
"7 c #E33933",
"8 c #E23A33",
"9 c #E73831",
"0 c #E43A32",
"q c #E73A34",
"w c #E63B35",
"e c #E83930",
"r c #EA3B33",
"t c #EC3B30",
"y c #EB3D33",
"u c #ED3C31",
"i c #EB3D34",
"p c #EC3C34",
"a c #E33D38",
"s c #E93F38",
"d c #F03D30",
"f c #F03D31",
"g c #F33F30",
"h c #F03E32",
"j c #F3402F",
"k c #F4412E",
"l c #F9442E",
"z c #EE4135",
"x c #ED4339",
"c c #EF483E",
"v c #F24031",
"b c #F34031",
"n c #F34233",
"m c #F44130",
"M c #F44132",
"N c #F54233",
"B c #F94633",
"V c #F74937",
"C c #F94937",
"Z c #F2453A",
"A c #F5493B",
"S c #F84B3E",
"D c #F44941",
/* pixels */
"%OOOOXXXXXX..OOOOOOXO$%$+OOOOOOOOXXXXXXOOOOO++OOOOOOXXXX..XXXOXXXXO%+OOXXXXXXXX.XOOOOOOOO%%+OOO++OO+",
"iyeeeeeeeeu+Oepe9eyye969999977%%7%O=ue;e;eeeeete;tuuufff++Mfbtfeue;ee=;;<<<<33;O*1fue=======-=e;;==<",
"uueeuue;etf++ee99999959779ww75%%7%O;31<t1<;;e=eeeettfMfj*+MMbub3<9ee=eeufffeuf;O=bf;9=====9=99=u;;;<",
"ueuuueeuuuu+Oee9599957977%77%%77%%O;j3111tte;eee;<<;<fMM++MbbfM1teeee9eu9;fuff;O=fue99==**=9e9;<;;;;",
"euuuuuuutfu+Oee999797%97%77777777%O;M3;<<;=e;=e;;;u;;<ub++b1fMf=;;e=9=e9ueuuff=O=fu;=====e=;*=<<;;=<",
"uuu;u1uu<fu++ee99797777577775%7%77O;M3<1<e;;==e;;=ee;;<M++fue=e6=***9;;9;euuf;;O=f<;e**===e;e;;;===;",
"uutuuu<uuuu++pee999559577w77%77777O=f31uteueeee;;eee;<<b++uu;e===eyy==+=;<113<=O*ute=ee=**===;;=e;;=",
"XXXXXXOOOOXO#OXXXXXXXXXXXXXOOOOXOO$O+++OXXXXXXXOOXXXXXOOXOXXXXXXXXXXXOOXXXXXXXXOXOOXXXXXXXXXXOOOOOXX",
".O+++++++%%7w5++++++++.X+++++++++%%%%%+++%@@OOO++O++++++59+++++++++OOOOO+OOOOO%+OOOOOXOXOX.OOOOOOOOO",
"X=u;tttetueuuuuu;eyyeuX+b31========;;==;<;MV9Ofbueueee79euee;;tt3;1+$7777%%$%+%%%%%%%%%%5OO99eee9e9*",
"X=<=teu=tttu<uufttuueuO+M3;;=======;;ee;;uMV9O1fuubuzzbiey9y;<;33f3$%a77%%%%%%%%%%%%%%%%7+X96eeeee9=",
"X=ft<t;tt;u;tff3fuueyu++b3;;;=====9=;=;;uubb9ObMfuyzyzzpyzbu1==<M33+%www7777%7%%%7%777%%7+Oieyutepee",
".;;=<f<<1;1<ff<<ffutut++b3<<;========;;;ffMM9OMMffuzuyzzuuuf3uu<t<3+%awwwa7%%%%%%%%%5%777OOieeeeetey",
".=utfff<<1bffMff3<fuuuO+f1<<<<=;;=;;==eeMbMb=+MBbu<uexzuue=<1<<3lff+%awaaa7%%%7%%%%%77wwwOOieuuueeeu",
".*;;;ee;;=;ee=y;;eue;eO+;;====e9====;=;1ubbf-OMlMf11<t;<<*=;<;<fl3fOO%7%77%%%%57%577777%%OO9+w9e9995",
"X.                    OO              ..XXXX#$OOXXXX.....XX..X.XXXXOX.. ........      ...OO.....XX..",
"9***=*==;;==XX===9==5=9==*==**====*O*e=999eyziw9999=9==9-XO********9**+*******=+X7999=99=xze===97*-*",
"*==;;<1<f333+Obbbfutt;t<<<<=etffMM3O;3fff13;b11j13juMllff++1<;==;<===;=yuyeeee3*OuZbzptiet;;;ty<;euu",
"p;;;*;u<fM33+OMMMfu3fu<11;<<333fMM1O;bbbfu<;11<1<13f333ff+*<<<<;<;;e;===uu;e;1f-OuZzptt;;;=;<utuuuuu",
";==ep;;=fMff+ObMb333=;;1=;33fff;3f1O<bfuee;;e;;e;<<<<uMff+*11<3=;;;;<;;;;;=;<<3=Ouzpu<<;;e;<31ubbuu;",
"===e9=tu1fMf+ObMMff;t<<tu<31;f1t3M1O;f3u<<;==;==;;<<;=lMf+*31<<<<;;e<;<<<;;<;<l=Oepbp<f<tp<<jjbMbpbf",
"===e=;;;ufMf+OMMfffuftt<<<3;uf333f<O1llM3;<==;<;==;<<flM<+*3<<<<<<==3=<<<=<<<33=OeZbpbpuupu<<33bVZZ1",
"7++%%**+++7*OO+9*+***+++====;<;<u=;$-==;=*=*======*==;1;=++======*****+******==*O********-99e=*===**",
". .......XXXOOOXXOOX..X.OX.XXXXOOOO$O.........  ......XXO$OOXXXOXXXX.XOXXOXXXXX+$OXXXX........XXXXXX",
"%.9euupppupupueuuyuuey9X+e;=e9ye9eyi9==;=e;=;+XiiwiiiiizxZxzziiiw99+X;<;=;;====ee=*=====;=X+;=;;;<==",
"9Xeuu=ufpeuubuubuubbuzyO*fut<;;;========;<<=<+Oxp9iZZpxZZZpbbzxxziw+O=;;==;=========;;;;<1X*;u;u<f;;",
"wOetttuuuuuu=ubbbfbbbbuO*ffftt<;ee=e;====;==t+Oiiepbpepbuyubpzpxxpw%O;<<;;;;;;;;;;;;;=;;33X=uZfu<3<<",
"wOueueetuuufffbbbbMMfbuO*fuu=e;u<<<;t;<t;t;;t++eeeepppubpybbbZzxypw%O<<<;;;tu<;;e;;<;=;<M3X=<b333<<<",
"wXueueeufeufbbtfbbbMbbuO*ff<;<ut;<uuup<<tfttt++ieuypfzpbz<uZzZZZZzw%O<<<;;;=====y;;;=;11M1X=<b3333<<",
"wOe*tyyffuffbffbbbMMMbuO*tuufffut<u<u;<<;;t;;++etuuppzpppuybzzxxzpi+O<<;;===========;;<1M1X*;e<u;<<<",
"XOXXXXXXXXXXXXOOOOOOO+OOXO+O++++++OO+++++X+OOOO+++++O++OOOOOOO++++OOO+OOX++OXXXXXXX+++++++OXXXXXXXXX",
"wz777++++++O..OOOXOOOO+$+OOXOXXXXX. OOOOOOOOO%7++++++O++O O++++%%+%%%++OOOOOOOO..O+++$+++%%%++++++OO",
"bbnbnbbzzbbyOO<;;;==;;==e;=e;=e===+.;;;;eeeeeee99==eeeu<=.*u1<<eeeuuuuu=uuuuei;OXee=eet;eeeu;;;;<<<;",
"bnnbnbbbbfuu++1<<;tt<<ue;;;=<;;<;;+X;<;e=yeuyeeye;eee;;;=.=11f3f1;;<<11y11;=;;<+X<e9;;=;;<=<;<=;1131",
"VVZZZZVbbbbb++33<<<<<ttuueey;;;<<<+X;;=;ueuyy9ee9eeee;;;=.=<t33f11u1<11;<<tu;<1+X1;ee;ee;;u<;<;;<13<",
"<uubZAZbVbbb++31<<;tbuue=e;;<<;<<<+X;e=eueyeeeeeeue;=e;;=X=<1u3111<;911u<<<=eef+X<==e==;;;;<;<1<<1<;",
"fubbbVbVMbbZ++33<<;e=euzZee;1<;<=;+O;ueeue=yeeeuu;e;e;;;=O=1<13t;u11u1<9<<<y<ufOX<ppet<te<tu<11<1<<<",
"1;=yuubbzzuz++1;ee=ep;ee=ee=9eee;;+Oyeee;e9ee=9ee=e9ee;;=X*;9;;;;;<;1<;;;;;;;;;OXptyeeee=;;e;;;===;;",
"O...    ....OOX..... ..........X.XXO....................XO.                    X..         ....X.. .",
"++ueeeyyeyzbbzuzyy9y99%.5i9eyyeyyiy99999-*7-*X+*-9*****+797***+****O.+*****-**9=-*=**+*==*.+;;=;==**",
"a+zbbbubbbffbbf3bbbbbu9X=;y;;;y11u1uzu;eyuueuO*uuuuuu;<t;e;;;;yu<;;+O;<;1<;;;<<<;=;<euutf1X*13l1;;;=",
"7Ofbfu<uu131<333b33f3b9X=yuu;u;uuu1;y;1;euu;y+*fubzyuy;*=;;;;uzuu<<*+;u1u;<;;;=1te=<11<<ffO=3ll<<;=;",
"++bf3<1;13bf33333333bb=O;1y;yyy;yy<<;;;;euy;yO*uuuu;1uyze;y*;;buu11-+;f;111<<;t1<uu13<;e<u+=Ml3<<;;;",
"++bbZbb1f1<3<uu13bbbbb9O=ueut;1<u1b1uuu<1uuuuO*uubu=uy;;;;;u;;ubuu3*+t3;1<11;;;1<11=;<==;;O=M3<<<<<;",
"++VAbbZbbMVbb1<bbbMMVb9O;uuu;<1;;3111j11fuffzO*buuuuu;eee;;;;uueuu1*+;u;1113<;;;<13u31tt<u+=M3<<<<;;",
"+O++++++++++*+++**==9-+O**====**=<=;=*===9i9%O+9==*****+++*****+*-*+O++++++***==**==+*==**++=*******",
"+OXX.....XX. ....XXXXO+%O..........XXX..XXXOO%+OXOXOOOOO..OOXXXXXOO++OXX.... .     ...XXXO%OOOXO.XOX",
"yyy;11uuyix+X1jf;;;===e9====;e=;9+O=9eyeu;uu;fuuiuuuyyyzX$zxxxxzi9ww999iieiy99X.*799wiyy999%79yyyiiw",
"fb;u3u;eiii%OMMf<<;;e;eee;e;1<;ue9OeubVbb<btuuuueyyeee;uO7xxx7czx9iipyzbZzpp99OXeyy9iyzzyie9iipiyiiw",
"bbuf1ueeiic%OMuue;ee;euuuu;=u1u1uy+ufuVVbubbubbtuyuee;;uO7cxzpxxiiii9pbzuzppi9OOizuepuyy9yy9ippipii9",
";fut<tuyiix%O3<teyeyeeyuuuuu<uuu;iOubbbuuubfbbbbuyeeeeeu+7xzxwxxxzipuyuzbzuupe+Oypzyzzpipii79ipzziii",
"fuu;t<<=eix%Ofeuyyp9yyuzyybuuuuuuuObbbbbf<u;epbpuuueye;uO%zwz9ixi9pyypyubbuuyw+Oyiueuuuyyey5iippyuiw",
"3uuuu1upuiw+OfuuuyppzzbzpuubbubbbzOuubbbbuubppyeuuyeeee;O*97iiiiyeuiyuubbfuuy9+Oeeyeuyupuye9iiii9iiw",
"+OOOXXOXOOOOO++++OO+++++++++++++++$++++++++++++++++OXXXOOO++OOOO++OO+O++++OO+OOOO+++++++O++O+++++++O",
".XOO+++++++%7++++++OOO.O+%7%-++777iw77%%%77+OO%%++@++%%77++++++O++OXO+O+O++++O++++++++++O.X++++@+++7",
"O=bMlj3fee;ue=t13u3bu;O=bfubb3fbuuffuyfufbbb++yppbbuuuyy9ipziyeyiz9X=uubyete=9====;;<fbMuX*f1bbbiyuz",
"O;bMMM33l3<e*eulbu1131O=MMfVVMbMuMbVbbbpyefb++ipipppppippyzzpipii97Oyubz;;teee;eyuu;;eubpO*fubbVbbbz",
"O;blMubl31eef11l;=<3M1O=MMMMbMMMbVbVVVVfpfub++ee9iiiipipppzpppi9iw%O1bbu1e=eee;ee;;;<<<fuO+fuuuuMbbb",
"+ybMjt=33;6e;<ul3bjkM3O=bbbMbuufMMuVVnMffubb++9iieipziipppxzixpi99%O1jze1eu;<t;;ee=e<eubzO*uufbbuzub",
"+ybMj1b33<<e;<*e33jBM3+=ubebMbbbMbuMbtufu=yb++ieiii9pzziyixxxxxxsw%O1buy1;<;u=ye;9uufeybyO*buubbbbbb",
"O9zbbfu33j3uu1bpbjbbuy+*uyuuzbuupuyuuuyuupuu++9i9wiiiiizzizixxxxww$O=;y=;eeyyyyyeuuuuuuzyO+yyyyzzzzz",
"OXXOXX........XXOXXX.X#O...................XOO.OXX.......XX.......OO.........XX......X.XO$O... .....",
"y====*=====XX99999999iyyyyy;e=9yy+.;uyy99999w97999999zz7.+*-775777wi9w99w979w7.O++**-9**79*5*+***==*",
"btuf<e;ff33OOzzzzbyu;zbbbbbbf111u*.MMM31buuye;;=e11zbVVy.*<1;=e;yzzuzbbVuuuuuiO+333<<===;=====<;;;;f",
"uttfueeuftuOOpzzzzzfbzzbbb3bMjbbf=XVMM3<;;;;e1;;;1u1bVVy.*;;;;e;;uuzzzuuzzzzzzO+M3u<u;e=;==<<=;<<<;f",
"t<f3u9ee<uu+Oubbb11ubbMbMMbMj1bbu=OVVM1;;;;;;<;u;;1e1MVu.*<<;<<t=<1uuzzzyyyuzz$+bM<<;;;;;6;<;e;<;=;f",
"e=;*;<tettt+OubbubbzzbMMMMbMb1bbb=OCVb1;;;u;e;;eeeuebbZx.5u<<;;;y;1u1yzxzyzuuz++MV1<;<;;;e;;;=<<<<<<",
"<uupue=uu1u+OuzzuuuzebbMbuubbbbbb=OVVbzyyzzzyuyeeuuuzbVx.9buuee<;tuuzpzbZZzyyy$+fbff;;=<eett<131<<<t",
"==9==97****+O777--*-9==-9999y9==*+O+7==-77-*-+***==99yy9O7yy999***+*-*=9=y9--+$+=y9*+9-**+****=9-*-9",
" .....XXXOO++OOXXXXX..  ...XXXXOOO%OOOXXOOXX..XXXOOOOOO#%$OOOOOXOXXXOOOOOOOOO$%OOOOOOOOXX..XOOOOOOOO",
"X@y9i9eyyyuyeupyybbVMyOO99yyyuubzzuyye;eeyye+O;uyypypziizizzpupuui7O=yizzZSVZxZzxZbbxxxxz+%ziyzzzxee",
"X7zcZyyu=uueebzbbu1MMbO+ue=yuuubbpububupbpzz%+lb<fbzzbpppyuypzufbb7OeyezzxZxzzppxiii99izi+7iixzzxxye",
"O7zi;e;;eufzbVbVbbblluO+uyeuububbpZZnnbpZxpz%+lbubbbpZZpZubbbbbbbb9O==;eyyxzzzzuiyeeye9yi+7yyyizyyye",
"O7ziu;;uuubzubzybbMljb++yeeuuybbMbZbnZbzZxxx%+MMbbbbbZZuZpZZZZZuZbwO;y;eyizbzuyyy**e;eyxiO*yz9yzuyy=",
"O*9==;;;uubbuuubVMMMMbO+uppbbzbbZbbbfnnZZZxx%+bMZbbZZbZZZzSAZSZzZAwO=;;==zVZzzSzyze;;;yyeO*eyiiyuiyy",
"O-yeyyzzuzfyefufMbbVMb++bypzzzpbbbVMMbbbbzzz%+VVVZZZZbSSZZZZDZZZDZiO=;yyzZSSbbzzzu;;ueyuy+=;*9yzzpe;",
".XXXOOXOOOOOOOO+++++++$OOOOOOXXOOOXXOXXXOOOXO+++OOOOO++OOOO++++++++$++++++++OOOO+$+OO++O+OOO+OOO+OOO",
"zw9999977--+.+77%%77%7ww77%57777-*.X777-*77797%757777775OX+%%7%77awwwww9w97997OX++75%57577777+*7++**",
"zbbuuuufbVMbX<fbuuyuyuyzzyy1buVMu3X+lb1uuuuy;eeee;uuubbl*+ffffufuyueybjMbff331*O3ff;u=eeee9eee;;ubfb",
"uMbffzpbbbbbX;fMbyyueeuzziyfMbjMb3O+lbubuuu;99e9e9euzbMB-+ffMMfbpuuuufMuMfb<31*O3Mfeeeueeeee==eubVVM",
"uMMtuuuuuzffO;uMbyuee;ypzbzzb3jMM3O*l31uuyuy9=e99=yu1bMB*+<3MMMfeeu1u1fubbb331=O3buubfe9*-9e=;=ubVVM",
"=uf=;uu=uuuuX=fMuee;eeyuzzzzbuMbu<O*l3;;1;;9=99999yyuubM-+<<fMffuyu;11<;=ff13t=O3jfbb;;99e9y=eyuuzMf",
"=;;;u11;f1ffX1MMbut;u;upyzzb33bbu3+*MM1;uee===9=9=;;uzbC-+<;<3ffuuuu11<<u3ft<u=O3f<uueeee;=;e;uubbfl",
"*====;;;<**;Oyu1z1;=;=eeyuuu;;zy==O+efuyee==*5*9=99eyyzx++;;uuu1;e;=;*;;;;;;;=+Oeu;=*==;;===;;e=;uu;",
" .....XXXOOO+OOXXXXXX...XXXXXXXXXO$OOXXXXXXX....XXXXXXOO$#XXXOXXXX..XXX......XOOX.XXXX... . ........",
"X+;;==*=;;;e=*;;;e<<1<O*;;uu;uyyueeubuubbbbb+Oyuuuuzbbpuz9zuuzbuu;+O=====99==yeue*6=====+.+6*59699=5",
"O=33<**====<<;===*;<33+=eeu=euueeuebbbbVZVVM++ffuf33fufubeeufufff1++3;<;=;;===*<;pu<;;=<9X;tu<;<====",
"O<33<tf=**=;;;===;===<+=<;eeeteeeyyezuVVZbVM++fbuuut=ppuuuuutuuee<++3<;;;;==;ee<<<t;fueu9O=utt<tut=;",
"O;33<=<=tt==*o======<<+=<<e9**9e=eezfuZVVVVM@+yzuuuuuuppfuueeeeye1*+3<<<;;e9=;=;;=;=e;<t9O;uftuttuee",
"O=;;<<<<<<<;6e======;<O*=*=ey99e9euuuzZVVVbM++zupuzupzz9y;buiyeee<*+3<3u=;====;*=;=*=;<beO;<ututteey",
"O=f3<==<<<=;;;9;=**=<<+=upeueeyueeyuuppVbVVV-+zzzppppfbbbb3byi9euu*+33eeu<;eeeuietei9eeziO;uteeeee6e",
"O++++++++OOOOOOOO+OXOO$++++++++++++++++++++++++++++++--+7--++OOOOO++++++++++++%+%++++++7+O++***+*+++",
"77%%++++++%+.+$%$%%%%77%%%%++++++O.O+++%%%%7ww%77%%%%%%%O+%++$++%%%%OOOOOO++$+OOO+OO+$$+%7%$$$++$$%+",
"=e;;;;=;;<u=O=ep9eteee9==e==<<<uf<X*33<u;e=9eeppuuuee==1+*fufMfeyuuuyey7e9ubuu+%yiyiyepbpzZsbbfupZbp",
"1==;;;;;=te9O=tt9eppe99e==6e;teuu<O=33uuu=eeeeeubueue;;;+*3<3fbbpuuu9e;9y9;1zt%+ipepbeezppfpffbuuzpx",
"e9;=;<;;=ue9O=teeei99eee=69ettuet=O=l3uuyeee9*;u;==;;e;;+*31;<f1u<1;ee;;;eteuf+%iyeepe9puteet<ezbiwi",
"<;;;=*e;yu;9O=tteeiiie699996te99e=.&l311uuee99eyuuye9e;<+*<<e<ff<t<=y9eee*9e5u++ieiipyyputut;=e9ppZb",
"9ey;=e;e;;=iOeppeepzpe6*=56eueetu=O<j11u;eueeee;uyy;ee;1$*u11<;ue=;;e99=9eeeiu++9ipiiyuu;uutt;euzZZD",
"7e=*++++==+5O*9996999669***=;9*+9=O=1u1zy9yeuuuuuzuyeeu<%*bfu;;uute;eeeteyyy==%+iiiiipeueeeeyye95iii",
"X.....XXXXOO#OXX.XXXX.XXXXXXXXXXXO$OXXXOOOXXXXXOOOOXXXXO$OOOOXOOXOOOOOOOOOOXXO$$OOOOOOOOOOXXOOXXXXXX"
};
