/* XPM */
static char *_27486a9c4004beff5e25da481e55e6a1pZXypXHloOHAjUx[] = {
/* columns rows colors chars-per-pixel */
"40 40 211 2 ",
"   c #3C2010",
".  c #4C2612",
"X  c #482715",
"o  c #4C2B1A",
"O  c #552B15",
"+  c #5A2D15",
"@  c #542E1A",
"#  c #5A2E19",
"$  c #5D3116",
"%  c #56301D",
"&  c #5D321B",
"*  c #5E381F",
"=  c #602D15",
"-  c #633216",
";  c #63341B",
":  c #6A361B",
">  c #65391E",
",  c #6B391C",
"<  c #733D1C",
"1  c #553421",
"2  c #5B3621",
"3  c #5D3925",
"4  c #623621",
"5  c #633A23",
"6  c #6C3D22",
"7  c #613D2A",
"8  c #683E29",
"9  c #723D24",
"0  c #7E421E",
"q  c #6C4024",
"w  c #65422E",
"e  c #6C432B",
"r  c #744224",
"t  c #7B4424",
"y  c #7B4923",
"u  c #73442A",
"i  c #7C452B",
"p  c #75492C",
"a  c #7C4A2B",
"s  c #774B32",
"d  c #823D1C",
"f  c #853F24",
"g  c #84451E",
"h  c #8C441E",
"j  c #95421E",
"k  c #954A1E",
"l  c #A2461D",
"z  c #B24D1A",
"x  c #AF501E",
"c  c #B85117",
"v  c #844225",
"b  c #8B4524",
"n  c #8B4B24",
"m  c #884827",
"M  c #854A29",
"N  c #8C4C2A",
"B  c #924627",
"V  c #944A26",
"C  c #9A4C26",
"Z  c #944C2B",
"A  c #9C4C2A",
"S  c #8B512C",
"D  c #9C5024",
"F  c #93522B",
"G  c #9C532D",
"H  c #9C5C2C",
"J  c #824A30",
"K  c #994E30",
"L  c #875737",
"P  c #955233",
"I  c #9C5533",
"U  c #975B33",
"Y  c #9B5A36",
"T  c #93573A",
"R  c #95593B",
"E  c #9D5B3B",
"W  c #A64C23",
"Q  c #AA4D25",
"!  c #A24B2A",
"~  c #AC4E2A",
"^  c #A35024",
"/  c #AC5326",
"(  c #AD5A24",
")  c #A4542D",
"_  c #AC562B",
"`  c #A55A2D",
"'  c #AC5A2D",
"]  c #B35425",
"[  c #BA5625",
"{  c #B45A24",
"}  c #BB5B24",
"|  c #B3552B",
" . c #B8552B",
".. c #B35B2C",
"X. c #BB5C2B",
"o. c #A25531",
"O. c #AA5531",
"+. c #A45A34",
"@. c #AC5C33",
"#. c #A05738",
"$. c #A35D3A",
"%. c #A95C3C",
"&. c #B35530",
"*. c #B35D32",
"=. c #BA5E32",
"-. c #B15E3D",
";. c #9C6031",
":. c #BF6227",
">. c #B4622D",
",. c #BC622D",
"<. c #A56137",
"1. c #AC6234",
"2. c #A3623D",
"3. c #AC633C",
"4. c #AC6A3F",
"5. c #B46233",
"6. c #BB6433",
"7. c #B76934",
"8. c #BC6A35",
"9. c #B4643B",
"0. c #BB653A",
"q. c #B46C3C",
"w. c #BC6B3A",
"e. c #BD7037",
"r. c #BD723E",
"t. c #C35E25",
"y. c #C15E2C",
"u. c #C55F33",
"i. c #C36224",
"p. c #CA6226",
"a. c #CB6A26",
"s. c #C3632C",
"d. c #CB672B",
"f. c #C46B2D",
"g. c #CA6B2D",
"h. c #D16C25",
"j. c #D06D2B",
"k. c #CE732E",
"l. c #D97727",
"z. c #D2742D",
"x. c #C36534",
"c. c #C56736",
"v. c #C36B35",
"b. c #CA6C33",
"n. c #C36C3B",
"m. c #CB6E39",
"M. c #D26D31",
"N. c #C67236",
"B. c #CC7234",
"V. c #CE7937",
"C. c #C5723B",
"Z. c #CC743C",
"A. c #C27B38",
"S. c #CD793D",
"D. c #D37234",
"F. c #D97534",
"G. c #D57A35",
"H. c #DB7A35",
"J. c #D2743C",
"K. c #D47A3C",
"L. c #DA7B3A",
"P. c #E0772A",
"I. c #9B5D41",
"U. c #A25F41",
"Y. c #9E6244",
"T. c #9F6F48",
"R. c #AB6342",
"E. c #A56B46",
"W. c #AC6943",
"Q. c #A86946",
"!. c #B36642",
"~. c #BC6741",
"^. c #B46B44",
"/. c #BB6D44",
"(. c #B46C49",
"). c #BE6E49",
"_. c #A67146",
"`. c #AB714E",
"'. c #BA7343",
"]. c #BD7547",
"[. c #B7714A",
"{. c #B37152",
"}. c #BA7452",
"|. c #BC7A53",
" X c #C16D42",
".X c #C86E40",
"XX c #C37244",
"oX c #CA7443",
"OX c #CF7B40",
"+X c #C57449",
"@X c #CB774A",
"#X c #C37C4A",
"$X c #CB794B",
"%X c #D27B42",
"&X c #D87C41",
"*X c #D67F49",
"=X c #C67B53",
"-X c #D07F50",
";X c #DB8236",
":X c #D8843A",
">X c #E2813D",
",X c #BC845B",
"<X c #DA8343",
"1X c #DB874C",
"2X c #CA8056",
"3X c #D68657",
"4X c #E28D44",
"5X c #CF8862",
"6X c #D28B62",
"7X c #D98F61",
"8X c #D4926D",
/* pixels */
"*.*.*.5.@.) t 6 ) V I $.I #.R.Z B A ! A A O J P I.U.$.3.[.|.(.R.2.Y.R N X ..) @.",
"6.b.c.m.Z.n.Z v c.X. .| ~ ! ! ! ! ! ~ ~ ~ ; %.-.R.=X9.+XXX9.XX~.).[.!.R & ] ] Q ",
"m.m.V.J.J.m.G v u.X._ | |  .| X.] | &.~  .4 I O.O.~.w.n.n.0.XX+XXX/.!.R & [ ] / ",
"b.m.J.K.K.OXG v =.y.X.x. . .y.6.X. .|  . .4 o.*.0.n. X X/...+X+X=X=X/.E & } x l ",
"$ ; ; > : , % o ; ; ; : > : ; : : - = - > 7 6 : 6 ; 4 : # > 4 5 e 6 9 ; 2 , ; ; ",
", b b f b b v K b b v f < d   B V Z B Z N Y P b b Z G o.h . ` ) ) I +.$.#.I m G ",
"k } [ |  . .*.| _ C ] ] z W . ] _ O.@.@.*.) @._ _ .._ / l O X.s.f.s...| } :.@.X.",
"D i. .] X.=.6.@._ -.] Q c z O | ) @.@.*.` o.o.@.O.` ` _ l + X.X.p.s.X.} ) X.X.] ",
"D p.X.| 9.*.0.).| ..X.*.z x O | @.@._ ` ' ^ *.@._ ` ' _ l ; X.{ t...s.X.s.[ ! X.",
"& # # O # O # + O . O O # + o $ # + + # # + # O O O # + + o O O O O O + + + O O ",
"n.C.8.7.w.q.4 b +.@.@.5.5.9.5.o.+.o.G o.` @ G ` A G C A G o.Z C Z A D 0 . A C ^ ",
"t.a.d.j.g.g.u k =.......6.,.( 5..._ 5...*.7 ,.v. X...._ ^ ^ _ ..>.7...^ : X.X...",
"s.s.i.j.d.b.r V *.' ..5.....X.] / ..*...5.4 ,.0.5.....@.' ' A ..v.c.,.( 9 X.{ X.",
"} d.M.D.K.OXu D X.=.| X...f...,.g.s.6.v.oX5 6.6.8.*.' ' _ _ @...0...,.( , X.{ } ",
". . $ & ; ; 7 ; - : ; - ; < < : : : , u 4 3 4 ; ; ; ; ; + + $ & + & ; & 1 O . . ",
"' >.^ ` B ) o.Z b B Z b N r 9 G @.+.o.6.' n.5.3.5.9.@.0.> L T._.`.E.E U.Y P E Y ",
"G.d..._ _ O.5.*...W X.....I M 6.S.%Xv.Z.x.v.6._ *.' ) ..u _.,XQ.,X`.$.W.%./.+X/.",
",.*.O.*.@.I 5.w.8.*...,...+.S m.Z.c.6.n.n.Z.c.8.*.@.' | i E.E.`.Q.{.(.R.*.w.n.oX",
",.=.9.9.9.XXC.5.0.n.v.m.v.1.S v.C.Z.6.*.*.0.9.0.*.*.....r Y I.W.3.!.#.!.9.0.oXS.",
"r r 6 & 6 6 6 q < t < t M i p i M t , 9 9 9 r r , ; & & 4 > 6 > ; 4 6 > 6 > : ; ",
"G D ` ' o.h * >.1.5.>.*.8.9.9.9.9.@.9.9.M u 3.3.9.@.+.#.E Y E P P P 2.& y U 4.b ",
"@.h.g.X.i.} 6 F.b.>XL.H.x.%X<XK.oXn.*..XN i -.3.!.~.9.9.!.!.).^.!.R.$.5 ( v.w._ ",
"[ h...s.z.i.6 b.D.D.b.b.D.K.n.:X<Xc.n.n.N i %.%.%.9.!.^.9.^.(.(.R.$.I.3 { g..._ ",
"X.` a.a.H.g.6 n.x.m.K.B.K.m.b.b...b.*.6.N i R.R.^.R.(./.!.(.}.(.|.{.Y.7 ( ,.5.( ",
": q , , , > 7 * $ ; > ; ; > & ; ; & & ; 4 2 * & 4 2 * 4 4 4 2 4 3 2 1 3 $ & O & ",
"$.W.4.3.1.q.q.7.5.>.' ` 1.0 t N.>.1.1.<.2.Y I +.1.<.'.].o m ` I F F +.W.3.^.q.<.",
"'.#XXXw.,.8.g.k.B.z.g.f.g.b F ;Xz.{ { ' ' ..' _ ,.f.<XK.@ ^ { ' .._ 7.w.w.r.'.8.",
"w.S.v.6.f.V.K.G.G.D.f.D.x.m ;.4Xf.( ( _ ..{ ..' ..( B.1X2 ) ] ..] _ ..>.5.8.r.1.",
"9.XX6.v.7.f.G.V.v.B.B.b.b.F ;.<XZ.*.5.w.1.5.@.O.0.0.C.1X3 9.,.*.../ | 5.e.8.#X#X",
"5 5 * $ > ; > > 6 , q > ; 2 1 > > ; 4 ; ; ; ; > , r y y w u p 6 6 > ; > , , , r ",
"0.+.5.r.A.+.X Z I #.+.0./.9.9.9.) ) #.+.9 , ` +.3.$.(.R.(.W.^.3.9.1.R.8 N $.4.|.",
"<XV.V.g.l.6.@ *.%.5.c.6.$X0.oXXXoX X X/.T g F.X.OXXXXX/. X0.0.n.8.m.@Xu F ..5.9.",
"OXq.V.;Xz.B.% ..@.0.9.oX%XoX+XoX$XXX2X=XT m F.J.Z.oX2X$X+XXX-X3X-XXX$Xs G _ ' 1.",
"x.c.L.K.:XS.% c.9.XX XoX%X*X*XJ.J.oX$X}.T m <X3X$X3X$X7X6X=X6X8X5X3X6Xs C ' ` r.",
", r t i y a 7 4 2 5 5 O q ; $ - - - , - 4 q r e p 6 p p w e e p , r i e r r t L ",
"A 0.3.@.$.3.^.^.R.*.5.S.6._ . f.5.5.9.@.@.+.G +.@.5.5.7.0 g 5.5.@.9.3.9.3.w.N.w.",
"{ J.n.*.@.O.9.'.<.v.D.z.D.:.+ P.v.v.5...` G o.) ' 7.B.F.G j d.F.M.x.*.X...M.c.b.",
"/ D.0.' ' ' 9./.XXn.d.D.S.} ; l.} ..X.' G G G o.) >.v.D.H j [ D.M.x.@.6.X.t...,.",
"N.b.C.*.....w.w.XXC.g.B.v.,.6 D.b...*.! A A K A ) >.v.&XY j ] s.M.x...6.X.[ [ s.",
"q > > & $ + $ > > ; $ > @ O 1 ; ; $ # O o O # O & & ; 4 w * - ; ; ; & $ - + + + "
};
