/* XPM */
static char *_f2bc5d7b37c41d7e26e84ddac3b6cactw0azA1MXMdcAoO4[] = {
/* columns rows colors chars-per-pixel */
"64 64 233 2 ",
"   c #16120F",
".  c #181516",
"X  c #1C1A15",
"o  c #1B1C1C",
"O  c #241C15",
"+  c #251E18",
"@  c #1D211F",
"#  c #292116",
"$  c #23231B",
"%  c #2C241B",
"&  c #2D2A1D",
"*  c #31271C",
"=  c #332A1E",
"-  c #3A2D1D",
";  c #1D2222",
":  c #2B2522",
">  c #292A25",
",  c #342C22",
"<  c #392E22",
"1  c #342F2A",
"2  c #2C322A",
"3  c #343223",
"4  c #3C3225",
"5  c #34332B",
"6  c #3B342B",
"7  c #3D3A2D",
"8  c #2E3031",
"9  c #353935",
"0  c #3C3B33",
"q  c #3C3D3A",
"w  c #573B1D",
"e  c #532A29",
"r  c #423525",
"t  c #4A3A26",
"y  c #42362B",
"u  c #433A2D",
"i  c #4B3C2D",
"p  c #573C26",
"a  c #443D33",
"s  c #4A3E31",
"d  c #413539",
"f  c #433E3A",
"g  c #633232",
"h  c #3A4237",
"j  c #49422E",
"k  c #5B4228",
"l  c #454134",
"z  c #4C4235",
"x  c #44423B",
"c  c #4C453A",
"v  c #41483A",
"b  c #4E493D",
"n  c #534434",
"m  c #5B4934",
"M  c #51463B",
"N  c #534A3D",
"B  c #5A4D3C",
"V  c #57503A",
"C  c #66482B",
"Z  c #6C4D32",
"A  c #634D38",
"S  c #675139",
"D  c #6C523B",
"F  c #715234",
"G  c #75573E",
"H  c #373F41",
"J  c #6A3B43",
"K  c #3D4345",
"L  c #464846",
"P  c #4D4A42",
"I  c #4C4D4C",
"U  c #544D43",
"Y  c #574C46",
"T  c #4E514C",
"R  c #565145",
"E  c #5B5245",
"W  c #54534C",
"Q  c #5B544B",
"!  c #5D594E",
"~  c #484E52",
"^  c #4C5254",
"/  c #4B575C",
"(  c #545554",
")  c #5B5653",
"_  c #5D5A54",
"`  c #565958",
"'  c #5B5C5C",
"]  c #67444A",
"[  c #74454B",
"{  c #625445",
"}  c #6C5744",
"|  c #62564A",
" . c #645A4D",
".. c #6A5C4C",
"X. c #725742",
"o. c #755A44",
"O. c #7B5D44",
"+. c #745D4A",
"@. c #7A5E49",
"#. c #6B5657",
"$. c #645D53",
"%. c #695F53",
"&. c #615F5A",
"*. c #765358",
"=. c #5E605D",
"-. c #69604F",
";. c #7C6147",
":. c #7D624C",
">. c #6C6255",
",. c #64625C",
"<. c #6A655A",
"1. c #6B655B",
"2. c #736353",
"3. c #7D6553",
"4. c #7C6857",
"5. c #73665A",
"6. c #746A5D",
"7. c #796B5D",
"8. c #575C61",
"9. c #5F6261",
"0. c #5C6368",
"q. c #636464",
"w. c #696764",
"e. c #656866",
"r. c #6B6A64",
"t. c #646668",
"y. c #66696A",
"u. c #6A6C6C",
"i. c #776467",
"p. c #736C63",
"a. c #7A6E62",
"s. c #746E6A",
"d. c #6D706E",
"f. c #767166",
"g. c #7B7265",
"h. c #74736B",
"j. c #7C756A",
"k. c #7D7A6D",
"l. c #646A70",
"z. c #6B6E71",
"x. c #756F71",
"c. c #6D7273",
"v. c #6C767B",
"b. c #727574",
"n. c #7B7770",
"m. c #767A75",
"M. c #7C7C73",
"N. c #737678",
"B. c #757B7B",
"V. c #7B7D7A",
"C. c #855553",
"Z. c #836146",
"A. c #83654B",
"S. c #87684D",
"D. c #826751",
"F. c #856A53",
"G. c #8A6D54",
"H. c #846D5B",
"J. c #8A6F58",
"K. c #8E7157",
"L. c #86705D",
"P. c #8D725A",
"I. c #907157",
"U. c #90745B",
"Y. c #8D5D63",
"T. c #85666A",
"R. c #8C7562",
"E. c #827A6D",
"W. c #887868",
"Q. c #927760",
"!. c #907A65",
"~. c #917D6B",
"^. c #946C75",
"/. c #837D73",
"(. c #867A77",
"). c #7F8176",
"_. c #7E817B",
"`. c #858176",
"'. c #898175",
"]. c #84837B",
"[. c #8A857B",
"{. c #8C897E",
"}. c #968776",
"|. c #7A7E81",
" X c #7B8183",
".X c #7D868B",
"XX c #7B8796",
"oX c #848682",
"OX c #878783",
"+X c #8B8A83",
"@X c #838A8C",
"#X c #8C8D8B",
"$X c #928B89",
"%X c #948E8F",
"&X c #94928C",
"*X c #888E92",
"=X c #8C9497",
"-X c #8D969B",
";X c #939593",
":X c #9A9A97",
">X c #94999C",
",X c #A59191",
"<X c #A6A39C",
"1X c #8E9CA5",
"2X c #959DA3",
"3X c #989EA4",
"4X c #A79DA6",
"5X c #9BA2A5",
"6X c #97A1A8",
"7X c #9DA5AB",
"8X c #9DA9B3",
"9X c #A7A8A7",
"0X c #A4A9AC",
"qX c #B2B0AB",
"wX c #A4ADB4",
"eX c #ACACB2",
"rX c #A9B2B8",
"tX c #B4B7BB",
"yX c #A9B6C1",
"uX c #B3BBC3",
"iX c #B7B8C6",
"pX c #B6C1CC",
"aX c #BBC3CC",
"sX c #BEC8D2",
"dX c #C2C1CC",
"fX c #C3CBD5",
"gX c #C9D2DC",
"hX c #CED6E1",
"jX c #D3DCE6",
"kX c #D6E0EA",
"lX c #DAE3EC",
"zX c #DEE8F1",
"xX c #E0EAF3",
/* pixels */
"B.B.B.V.V.m.m.m.m.m.m.m.m.m.M.M.M.k.k.k.k.k.k.k.k.k.j.j.j.j.j.g.g.g.6.>.>.-.%. .$.$.>.E ,   X j l T t.c.c.d.b.V.M.M.s.{ p w w w ",
"B.B.B.B.V._._.m.m.m.m.m.M.M.M.M.M.M.k.M.k.k.k.k.k.k.k.k.j.j.j.g.g.f.6.>.>... .%.%.<. .z O   u u s _ w.,.' q.b.).n.s.1.| k w w w ",
"m.B.V.V.V.V._._.).M.M.M.).).).M.M.`./././././.E.E.E.E.E.k.k.g.g.6.6.f.>.>.>.%.%.>.<.R , X % j 4 s _ w.,.<.u.m.oX].M.j.%.k p p w ",
"r.h.m.V.V.V.).).).oX).).`.`.`.`.`.`.`.`././././.E.E.E.E.E.g.g.g.6.6.f.6.>.>.>.%. .,.7 # & l 6 , f _ w.w.r.u.M.oX`./.j.<.A k k k ",
" .6.r.h.m.).).).).).].oX`.`.`.`.`.`.`.`.`.`./././.E.E.E.j.g.g.a.6.6.6.p.<.<.>. .E P % % u u 6 , 0 _ _ r.r.w.s.M.`./.j.2.S C C C ",
"c E p.f.h.m.V.).).].].].+X].].`.].`.`.`.`.`.`.`././.E.E.g.j.g.6.6.6.5.f.<.<. .P P 0 & , 6 4 z 7 c ! p.r.$.w.j.`.[.E.4.} C C C C ",
"c M Q <.g.r.h.m.].].].].].+XoX].[.[.].`.`.`.'.`./.E.E.j.g.g.p.6.6.6.6.f.,.) c f T 7 s 7 6 6 4 u z | 5.$.$.>.>.g.`.E.} Z Z C C C ",
"c M z U <.j.f.r.M.`.].].[.[.+X+X[.[.[.[.[.[.'.`./.E.g.6.6.6.6.6.6.6.1.&.' ~ x 5 I 6 a 3 6 u u 6 4 B E >.<.$.Q 1.`.+X+.C C C C C ",
"R c c M U Q <.p.<.s./.`.[.[.[.+X+X[.{.[.[.[.'./.E.g.<.$.$.$.>.6.6.$.I L ' q 9 5 ` 6 a l l s 3 s z N | 5.2.6.>.p.g./.} Z Z Z Z Z ",
"<.z z z z b U $.p.$.$.f.M.`.[.[.+X$X[.{.[.'./.E.g.<. .U M Y _ _ ( L K I / L I 0 q.x l a 7 s u u s s z B ..g.6.6.p.6.} Z Z Z Z Z ",
"M.Q M U Q R U U ! 6.Q M Q >.f./.[.{.+X[.`.E.E.j.6.$.U x x I ~ ~ K ~ I ^ / ` ( L ,.W P f c b z U a x 3 s M 2.a.7.5.>.} Z F F Z F ",
"oXh.Q Q _ _ ,.q.' ,.s.1.c 7 c ! p.j.`./.j.6.p.p.>.( ^ ~ ~ K H L q T ` =.=.u.q.q.b.Q _ <.Q  .z U a M 6 c U  .>.5...$.$.D F F F F ",
"].M.Q s z c c M U &.,.u.oXr.l u M E  .r.W ! R W I ` ^ L ~ K 9 L 0 x ,.$.0 ( Q r.m.,.W b _ P c U U U s z E Q M ..| N ! ..F F F F ",
"].].6.c N N N U U U M s c f.#X<.z u u u ' W P q x P L ` L 9 5 P x ! j.6 f ,.T W q.m.M.,.c & , a a b U N M c N E | | ! 5.2.D Z D ",
"oXoX/.<.E U Y R ) ' _ P a s c u.oXQ u u b e.W 0 9 b R _ x L 5 0 l %.U 6  .$.I 9 W oXoXs.b + 6 l x Q U ! Y z M U >.5. .$.s.<.E E ",
"oXoX[.j.| N N U c u u a c Y a P P m.b s c ( ' x l l U $.s.) L u 1 x : Q j.p.I 8 l ].+Xh.a l  .! $.r.M.f.6.$.U R E | E U $.r.( I ",
"oXoX{.`.p.E E E z y s M x 6 6 q I ` u.W 6 l y.` l > 1 3 >.e.9.3 < 1 1  .{.[.,.q , M.).f.$.6.U $.<.M.$XoXh.<.$.! <.Q Q Q $.r.` ~ ",
"oX+X+X[./.>.{ B n z i 4 r a 6 < < = f c.W f ` z.l 7 U 6 a q.v.1 O f c z g.k.M.x 1 f.k.<.-.s & & , s 5.{.`.p.<.,.q.t.e.w.u.w.8./ ",
"{.+X+X{.[.g...B n z i s u 4 1 r * * % x .X` R =.I , Q R 5 ' *Xf # u n r >.>.$.c z ..6...% O % = = O ,  .E.E.' ( ' ' u.m.N.u.9./ ",
"+X+X+X{.'.E.6.B z s i s r < 4 - # % & P P @Xd.0 ^ 6 Q 6.R 9.=X' & < z B B  . .>.>.5.2.* O # 6 T XX1.y U :X9X:Xr.r.&.` d.V.N.z.8.",
"{.{.{.{.[.`.E.%.n n n r < 4 r - % # 3 c W 9.-X^ > 0 E >.| _ 7Xd.z r M N B E >.a.g.7.i # $ X > 9 q.E.{ , $X9X;Xs.Q I ' I b.V.N.8.",
"{.{.{.{.[.`.'.g...B n r < r t - % & l l ( *X X0.K , N B E Q wX7XQ l  .R E $.6./.W...% & : X @ > L d...= E.:X#Xg.<.I w.( ( m.B.0.",
"{.{.{.[.[.`./.E.5.B n r 4 r r = , < 0 b ! q.d.) 1 5 z B M n #XtX].E ! <.<.p.`.}.W.z 3 3 > .   @ 9 v. .= a.:X/.! U x h.u.` 8.B.l.",
"{.{.[.[.'./.E.g.5.A i 4 i i 4 = 4 s 7 $ 7 Q ! E s 6 M E z N p.5XeXp.h.<.h.M.:X:X'.s j j h o   o H ` z < W.[.,.6 q P M.].b.q.y.c.",
"[.[.[.`./.E.j.a.5.| i - u y & % 3 6 & X X 5 N N N B E E M M M ].0X;Xr.h.].].9X<X[.a i V h h > ; h v 3 z W.p.s 5 x >.r.&.h.m.t.z.",
"[.`././.E.j.g.a.a.>.n y z r # = 3 3 7 7 x N E | B {  .$.$.U z <.;XrX#XV.#X+X9X9X$Xf = S V h 9 2 5 3 5 5.<.P , f f Q ( _ ,.V.N.0.",
"/./.E.E.j.g.g.g.g.5.N s n 4 % = 3 5 l c s , % % % , c  .>.>.E R oX:XrX5X&X0X9XqX#X^ > 7 V V 7 3 , c 5.f.R f 0 f R ,.I h.h.oX@Xz.",
"/.E.j.j.g.g.j.j.g.6.| z y 4 & & 3 s c u X . $ . . X X , E 5...N h.#XeXfXrXuXqXqX9Xw.K q 4 , 6 z ..7.f.R l c x f r.) R M.+X#X:X@X",
"j.j.g.g.g.j.j.j.a.6.2.n 4 4 < < u M z + . 3 & o ; > $ $ = | 2.B 6.+X0XjXkXkXjXdX:X<.q Y 3.!.}.&X&Xk.! E b b b _ W x <.g.j.].:X0X",
"g.g.g.g.j.j.g.a.7.5.2.B 4 = = < z E 7   & h > o ; > 9 & & u ..{ <.;XrXhXkXlXzXzXaXW > 8 E }.,X}.>.U x Q b c x q q P  .$.<.r.oX0X",
"g.g.g.j.j.g.a.5.5.2.+.B 4 4 = < s z &   l h @ . . X 9 3 4 + B } 6.0XuXgXkXkXzXxXxXgXN.8 h $.j.g.R b 7 x x P Q $.R 0 , 0 Q u.b.;X",
"a.g.j.j.g.a.7.5.2.+.o.D i < < 4 6 u , X U l > .     2 3 4 O 6 { ].5XeXaXgXjXkXlXxXxXhX7X^ x Y  .<.,.( W L L 0 f 5 6 l ( ,.W .X6X",
"g.g.g.a.7.5.2.+.+.o.o.G i < = r # , n X l N 0 @ o o 2 3 - X & N #X3X9XeXdXgXjXjXzXxXlXjX8X' Q M Y &.<.<.` W P l 6.g.g.m.-XB.^ ' ",
"g.a.a.6.5.2.+.o.X.o.o.X.i , = # : E { 4 # B l 5 2 2 & 3 # - X U &X&X:X4XiXdXgXhXjXjXkXlXxXeXj.%.,.<.h.m.q.,.r.M.[.[.&XoX<.Q P ( ",
"a.7.5.2.2.+.o.X.o.O.O.o.i = & , r E ..A * = n 7 3 = = + p - + ,.+X$X:X4X4XeXiXiXdXgXhXjXxXxXgXtX0XoXh.r.oX;XM.`.[.+Xg.p.%.>.%.q.",
"6.5.2.+.o.X.X.o.O.O.Z.O.m < * , < M { ..A 4 * % # # r S X.< : h.+X$X$X$X%X%X,X,X4XiXdXtXgXxXzXkXgXwX|.oX#X+X+X$Xg.a.g.6.>.6.n.B.",
"2.2.+.o.X.G o.O.Z.Z.Z.Z.D r = % + % r M B { A m A } ;.;.S * b ].+X(.(.^.^.Y.^.^.,X,X^.9XgXjXkXjXhXfXaXeX<X<X:X:X$X(.#X;X;X>X>X3X",
"+.+.o.X.X.o.O.O.Z.Z.Z.Z.G i * < = O + & 4 i i B B m k k t 4 _ +X(.T.T.Y.Y.Y.Y.Y.[ g $XfXhXjXjXjXjXgXsX2X[.qXtX0X:X:X:X#XoXoX#X*X",
"+.X.X.o.O.Z.Z.Z.Z.Z.Z.Z.Z.m , 4 6 * + + # + = = = - = r < 4 s.oX(.i.*.Y.C.C.C.C.g [ 4XaXfXfXfXaXaXaXfXsXtXqX9X9X:XM.E n ..5.g.].",
"X.X.X.O.Z.Z.Z.Z.Z.Z.Z.Z.Z.S , < < = 1 # + & , * = = < r r c ].+Xs.#.] e g [ [ C.T.T.:XrXaXsXaXfXfXfXgXpXwX<XqX<X&XoXf.5.6.p.s.;X",
"G o.O.Z.Z.A.A.A.A.Z.S.S.A.G r = , # # , < * # & * * = 6 u 6.+X+X(.<.Y e e [ [ [ T.T.;X0XuXuXuXuXuXuXuXwX:X9X0X:X:X`.>...>.s.].wX",
"o.O.Z.Z.A.A.A.A.A.J.G.K.A.@.n = y s 6 # & # # % * + < 6 z M.+XoXoX]./.j.#.] [ J *.i.%X3X0X7X5X0X7XrXaXpXpXuXwX;X:X#XM.&XoXoX0XpX",
"O.:.A.A.A.A.A.A.A.S.S.G.K.J.o.z 6 a s 6 , % & : + % 1 y E ].].V.V.V._.(.M.i.] ] ] i.oX*X>X3X3X2X5X7XwX7XwXwX6X0X>XoXoX0XwXwXrXuX",
";.Z.A.A.A.A.S.A.S.S.G.G.G.S.:.n 4 c U f 6 6 1 , : 1 a z s.oXoXoXB.B.B.B.V.(.x.#.] i.V.*X*X*X*X*X@X*X>X2XwX6X-X=X-X2X2X7X8XwXrXsX",
":.Z.A.A.A.A.S.G.G.G.G.G.G.G.G.@.i 6 u & : & , d f P U <.V.oXoXB.b.N.b.c.z.s.s.i.] #.x.V.|.|.|.|. XoX=X>X5XwX5X@X@X@X=X6XwXrXyXpX",
":.:.A.A.A.A.S.G.G.G.G.G.K.G.G.D.} i a f 5 q U x b c s $.<.b.B.B.V.N.b.u.q.e.r.w.) d I ( ( ^ I ( q.b.@X>X3X2X2X-X@X*X-X6X7X8XrXpX",
":.:.Z.Z.Z.A.S.D.G.G.G.G.K.K.U.R.R.2.b , X , c Y c s M R $.B._.V.B.c.u.u.t.q.w.' 8 . + > > > 2 9 I m.;X>X2X=X.X*X-X-X-X>X6X7XrXuX",
":.:.:.Z.Z.Z.A.S.D.J.K.Q.!.!.!.K.J.D.S 1 + 1 x M z M 6.<.r.m.B.b.c.c.c.y.q.q.' 8 o o o : 6 b Q _ s.+X3X5X-X@X X X*X-X>X=X>X6X8XyX",
"O.O.O.;.;.Z.A.J.R.R.!.K.K.P.U.P.K.K.:.z , : 6 c $.Q U  .$.,.u.b.N.b.y.y.q.( 8 o o + > f U Q <.f.`.>X7X-X XB. X X X@X*X-X-X2X8X8X",
"O.O.O.O.:.D.J.D.D.J.K.K.K.P.U.U.U.G.D.} s < P R z Y U ) ! r.b.V.N.z.z.t.( 9 6 a d f f U _ >.6.j.oX>X2X@XB.B.B. X X X@X@X-X2X1X6X",
"o.o.O.O.O.Z.A.D.D.J.K.K.K.K.U.P.K.J.D.A.H.2.y y b s b U ! _ V.b.u.c.z.t.( I U Y Y Q _ Q <.r.f.m._.@X@XB.c.b.B.B.|.|. X.X*X-X2X1X",
"X.o.O.O.Z.Z.A.D.D.J.K.K.U.U.P.U.K.G.P.~.K.A.+.{ c U Q Q M $.u.,.w.z.y.e.q.' ! ! | $.<.,.r.h.m.V.m. X|.b.u.c.c.b.B.B.|. X.X@X*X1X",
"X.o.O.O.Z.A.A.F.J.J.K.K.K.K.K.K.P.~.!.G.G.K.J.D.4.2.{ N c <.$._ &.e.y.u.u.y.q.&.$.<.w.r.u.b.B.B.b.c.B.B.N.u.d.c.c.B.B.B.|. X.X*X",
"o.O.O.:.:.A.D.F.J.J.K.K.K.K.K.~.~.K.K.K.U.K.P.R.R.F.4.{  .$.c Y ) W &.y.u.z.z.u.w.u.d.b.b.c.c.c.u.u.u.B.c.z.u.u.c.c.c.c.B.B.|..X",
"o.O.@.:.:.A.F.J.J.J.J.K.K.!.}.U.K.K.K.P.K.K.R.!.K.R.J.F.E.5.{ N ! Q &.q.y.u.z.z.z.d.u.z.u.u.y.y.u.u.u.u.c.z.u.u.u.c.c.c.c.N.B.B.",
"o.O.:.:.:.D.F.F.F.J.J.P.~.!.K.K.K.K.P.J.K.R.!.K.!.U.U.!.~.L.H...<.$.,.e.w.y.u.u.u.y.y.u.y.y.e.y.y.y.y.y.y.u.u.u.u.u.u.z.z.c.c.v.",
"o.@.:.:.:.A.F.D.J.J.R.W.P.J.J.K.K.K.J.J.P.R.K.Q.U.U.U.~.~.U.!.P.R.a.p.w.w.w.y.y.y.y.y.y.y.e.e.e.e.y.y.e.e.y.y.u.y.y.u.y.u.u.u.c.",
"o.@.@.:.:.F.D.D.F.R.L.J.J.J.J.J.J.J.J.L.R.K.K.U.I.I.!.~.!.U.P.K.P.J.4.5.,.w.y.y.w.y.y.w.e.e.q.q.e.e.e.e.q.t.e.y.y.e.e.y.y.y.y.u.",
"@.:.:.:.:.:.A.F.R.F.D.F.F.F.F.F.F.F.J.L.J.J.R.G.K.K.~.~.K.R.K.J.J.J.D.+.{ ) &.q.e.w.e.e.e.e.q.q.q.t.t.q.q.9.q.e.t.t.e.t.t.t.t.y.",
"+.+.@.@.:.:.D.H.:.D.F.F.D.D.D.D.D.F.J.J.D.L.J.J.J.P.R.!.J.K.G.G.J.F.A.@.A c P ) &.q.e.q.q.q.q.q.q.q.q.9.=.' 9.9.9.9.9.q.9.9.9.t.",
"+.o.o.@.@.4.4.:.:.:.3.D.D.D.D.F.F.D.J.D.F.P.J.J.J.R.L.L.F.J.S.A.D.D.A.:.D n y l Y ) ' =.q.9.' ' ' ' ' ' ' ' ' ' ' ' ' ' ' ' ' ' ",
"o.+.+.@.4.:.@.:.:.:.:.:.:.A.A.D.D.H.D.D.H.D.F.J.J.R.R.F.D.D.A.A.D.A.Z.:.o.A y 6 d P W ) ' ' ' ' ' ' ' ' ' ' ' ' ' ' ' ' ' ( ( ( ",
"o.o.2.4.+.@.@.@.@.@.:.:.:.:.:.3.D.A.A.D.F.D.F.F.L.F.R.A.F.Z.Z.Z.D.A.:.:.O.D n 4 , 6 f P T ` ` ` ' ' ' ' ' ` ( ` ` ( ( ( ( T I L ",
"+.2.2.+.+.+.+.+.@.@.@.@.:.:.3.3.3.:.:.D.D.D.D.F.H.D.H.:.3.:.:.:.:.:.@.@.O.X.S i , & , 6 f P I ( ( ( ' ` ` ( ( ( ( ( ^ I L L q 5 "
};
