/* XPM */
static char *cdcb75844c384fc68a64b43a6580587d[] = {
/* columns rows colors chars-per-pixel */
"60 60 256 2 ",
"   c #070707",
".  c #19180A",
"X  c #0C0C12",
"o  c #181818",
"O  c #140E0E",
"+  c #281808",
"@  c #251717",
"#  c #331713",
"$  c #39251A",
"%  c #2D3111",
"&  c #1D1B23",
"*  c #251D24",
"=  c #341E25",
"-  c #272528",
";  c #382828",
":  c #383729",
">  c #282933",
",  c #372A33",
"<  c #373639",
"1  c #2E3137",
"2  c #1E2018",
"3  c #4B2516",
"4  c #693117",
"5  c #4A352A",
"6  c #563729",
"7  c #483936",
"8  c #583B37",
"9  c #472A2A",
"0  c #683732",
"q  c #591C19",
"w  c #284609",
"e  c #2C4814",
"r  c #354A19",
"t  c #39551A",
"y  c #33520E",
"u  c #3B4626",
"i  c #395525",
"p  c #3B4F38",
"a  c #2F5717",
"s  c #445819",
"d  c #4B5318",
"f  c #4A681A",
"g  c #464C28",
"h  c #47572B",
"j  c #56592A",
"k  c #484636",
"l  c #574739",
"z  c #4A5736",
"x  c #575837",
"c  c #5D4927",
"v  c #66473A",
"b  c #66593B",
"n  c #775537",
"m  c #714F2A",
"M  c #486627",
"N  c #57672B",
"B  c #58722A",
"V  c #596736",
"C  c #5B7636",
"Z  c #496533",
"A  c #656739",
"S  c #756639",
"D  c #647C3C",
"F  c #66753B",
"G  c #74763B",
"H  c #646E2D",
"J  c #744717",
"K  c #35394A",
"L  c #2E3548",
"P  c #4E3B48",
"I  c #3C424D",
"U  c #594747",
"Y  c #595648",
"T  c #4D4E54",
"R  c #634946",
"E  c #695847",
"W  c #765748",
"Q  c #674B57",
"!  c #675957",
"~  c #775B56",
"^  c #764B49",
"/  c #596649",
"(  c #686548",
")  c #766849",
"_  c #6A7843",
"`  c #767948",
"'  c #7A6A5C",
"]  c #786657",
"[  c #797657",
"{  c #6A6658",
"}  c #755A67",
"|  c #6B5668",
" . c #786665",
".. c #7A6B6D",
"X. c #565A6D",
"o. c #855031",
"O. c #8D693C",
"+. c #865A47",
"@. c #93534B",
"#. c #A5514B",
"$. c #88664A",
"%. c #95694B",
"&. c #88764A",
"*. c #876756",
"=. c #976B54",
"-. c #887656",
";. c #97765A",
":. c #997B49",
">. c #A77959",
",. c #A6714E",
"<. c #845D73",
"1. c #866965",
"2. c #897669",
"3. c #987767",
"4. c #876678",
"5. c #977874",
"6. c #8C7074",
"7. c #A47B64",
"8. c #AD716F",
"9. c #A15765",
"0. c #5D8237",
"q. c #69873A",
"w. c #748B3D",
"e. c #77963C",
"r. c #6D9139",
"t. c #7BA13C",
"y. c #6B8745",
"u. c #768949",
"i. c #7C9A4C",
"p. c #789746",
"a. c #7B8755",
"s. c #7C9952",
"d. c #6C944A",
"f. c #7EA247",
"g. c #849A4B",
"h. c #888A56",
"j. c #98885C",
"k. c #839B53",
"l. c #879858",
"z. c #99985B",
"x. c #8B8C4D",
"c. c #AF8B59",
"v. c #84A34C",
"b. c #89A54C",
"n. c #84A253",
"m. c #8BA454",
"M. c #8CAB54",
"N. c #8CA35B",
"B. c #8BAB5B",
"V. c #85A757",
"C. c #92AD55",
"Z. c #94AC5C",
"A. c #95A65A",
"S. c #8DB15A",
"D. c #94B35C",
"F. c #9AB35C",
"G. c #98B658",
"H. c #91AF4F",
"J. c #A1BA5F",
"K. c #8C9664",
"L. c #969A66",
"P. c #978678",
"I. c #94906F",
"U. c #B78969",
"Y. c #AA9866",
"T. c #AA8677",
"R. c #B88B76",
"E. c #A69A76",
"W. c #B99579",
"Q. c #AE916A",
"!. c #8DA763",
"~. c #95AB63",
"^. c #9BAC64",
"/. c #9CAC6B",
"(. c #96A566",
"). c #95B362",
"_. c #9CB463",
"`. c #9CB36A",
"'. c #9CBB6A",
"]. c #9ABA65",
"[. c #9EB772",
"{. c #96A86F",
"}. c #A4AB6A",
"|. c #A3BB64",
" X c #A2B56C",
".X c #A4BC6B",
"XX c #A8B86A",
"oX c #A8A875",
"OX c #B7A974",
"+X c #A3BB72",
"@X c #ABBC74",
"#X c #A7B776",
"$X c #B5B579",
"%X c #B6B16C",
"&X c #C48C66",
"*X c #C8976B",
"=X c #C89877",
"-X c #D49B76",
";X c #CC9073",
":X c #C8A778",
">X c #D7A679",
",X c #C9AE74",
"<X c #E3AB7C",
"1X c #A4C36D",
"2X c #A9C46B",
"3X c #ABC273",
"4X c #AAC676",
"5X c #B2C575",
"6X c #B4CB7B",
"7X c #B5C87A",
"8X c #BBD17F",
"9X c #9FC46E",
"0X c #CBC37B",
"qX c #957087",
"wX c #A97894",
"eX c #B17FA2",
"rX c #9C8E88",
"tX c #AF908E",
"yX c #B6B983",
"uX c #B3AB8C",
"iX c #B78DA7",
"pX c #BBABA6",
"aX c #C89A86",
"sX c #CC9688",
"dX c #E89D8C",
"fX c #C9A586",
"gX c #D8A787",
"hX c #DAB68A",
"jX c #D9B794",
"kX c #CEAF91",
"lX c #E5AB86",
"zX c #E6B789",
"xX c #E1AA99",
"cX c #E7B896",
"vX c #F5B795",
"bX c #F7AE91",
"nX c #C59CB3",
"mX c #D1B1AD",
"MX c #E6BCA8",
"NX c #F5BCA7",
"BX c #EBB3AE",
"VX c #B8C983",
"CX c #D1C890",
"ZX c #E9C598",
"AX c #F6C79C",
"SX c #ECCE94",
"DX c #D2C4A7",
"FX c #F4CBAB",
"GX c #E7FDB2",
"HX c #E8B8C5",
"JX c #D6B5CD",
"KX c #FAD6C9",
"LX c #FBD7D8",
"PX c #F0CDD0",
"IX c #FFEEED",
"UX c #E7D3D3",
/* pixels */
"] 2.] ]  .] ' 1.1.' ] '  .' ' 2.1.*.+.$.*.*.*.*.*.*.*.] ] ' ] ] ] ] ] ] ] ) ) ) ] ] ! ] W pXmX5.^ 1.E b ) A ( tX*.' !  .",
"' ' E ' 2.' ] ] ' ' ' ' ' ] { ] E ) ) ) ) ) ) E ) E E E E ( ( ( E E E E E E ( ) E ' ] ~ 2.mXpX8 5 R ' [ ) b ) E W ~ R 2.",
"E.E.E.E.I.-.[ [ ' ] ) ( ( b b V z V Z Z Z Z Z h h h i h i i h h h z z h h h x ( z { { U tXLX6.O + k [ [ K.h.-.c *.*.E P.",
"#XyX#XK.` A _ ( A A x g g g h h Z Z i a a t a a i i i i i i i i i i i i h h V / z Y ! Y mXUX8 @ . k / z a.I.;.n ;.*.b P.",
"@XA.u.H H _ F N V V V x V V x z h i t t t y e e w e r r e r r r r r r r r r h h k z Y ..UXpX@ ; : Y / z z ) -.W 3.*.E E.",
"Z.q.B q.l.l._ V j j h h z z g u r r r t t r e e e r r e e r r e i t r e e r i i u k k tXUX6.O O : Y / z z ( ] ' ] E ' uX",
"B f D k./.l.V N V z g g u u u u : r r r r r r e e e e e e e w w e w w w w w e e r : z DXpXl . . $ l Y z / Y ( [ ' ( I.pX",
"y B i.!.{.s.V V h g u u u : : u r r r r r r r e r e r i i e w w % w w w w w w w r % [ UXP.$ + 6 6 c -.) z g [ ] ( x K.{.",
"w q.p.k.!.k.C V h z h u z z k u r r t t e e e w i i h r t w h w t w y y % w y w % % kXDX) T.jXMXcXAXjXuX&.S ) ) b x h.K.",
"y d.n.s.p.u.D C N j g r h h z h h M M t s t t t r h N r A h.d j d s s y d N j S S j.FXjX=XfX;X,.&X-X:XjXjXkXQ.$.c A {.{.",
"w r.n.i.B B B B F F F A _ _ _ y.y.y.d.d.u.w.G G G h.oXCXZXZXhXfXY.Y.c.j.Y.OX:XhXhXcXhXvX-XO.4 ,.;XlXgXjXkXjXjXjX%.S L.L.",
"y p.n.p.f f B q.k.~./.!.l.l.s.s.s.n.B..Xg.A.%XCXSXOXZXAXZXZXAXZXcX:X*X*X*XhXZXZXcXhXgX>XzXo.q o.,.8.R.fXkXkXxXcXMXW.oXh.",
"f i.r.f s f C g.v.N.m.g.u.p.p.u.s.q.w.g.z.%XCX,X:.:XAXZXAXAXAXAXAX<X-X*X>XZXSXZXZXZXcX=XfXU.>.R.xXBXPXPXBXmXxXxXNXMXjXj.",
"y q.f w s q.w.i.m.m.v.v.g.Z.Z.m.k.w.g.z.,X,XY.J O.AXcXAX>X*XZXAXvXvXlX>XzXZXzXFXcX=X>.fXU.fXR.MXLXLXLXIXIXLXFXR.gXcXZXfX",
"w t y t C s.i.i.m.n.n.B.n.n.n.k.z.OXhX,X>Xc.O.o.vXcXNXlX%.U.hXAXlXvX<X>X<X<X>XAXcX,.4 o.=X=XsXxXHXPXLXLXLXPXMX7.U.:X:XhX",
"w w w B y.p.p.i.n.v.V.].k.g.m.}.CXZX:X=X&X,.O.-XFXNXFXtX6 W jXcXzX<X-X-X<XzXlXgXfX=.3 0 tX8.R.aXBXHXLXLXPXKXMXn Q.:X:X,X",
"w w f i.p.Z.w.M.D.p.V.B.~.A./.CXjX=XgX&X>.J *XFXMXmXiXnX6.W jXhXgXlX-X&X>XlXgXgXkX1.$ R ; @ 7 5.sXBXKXKXFXKXkX) E.CXCXOX",
"w y p.p.m.g.b.m.D.f.f.S.`.}.CXZXhXgXgX,.o.,.ZXZX-.# , ..} W W.gXgXlX-X&X-X<X-XaXT.R = , , o   l R.sXxXFXFXKXkX&.&.j.L.z.",
"y C B.g.m.b.C.v.].S.V.'.~.(.CXCXhXgXU.o.o.zXFXW.+ U rX} P ~ 3.U.=XgX-X&X*X-X*XU.*.v # 7 6.7 @ + 0 =.sXgXkXjXjXuXh.h.L.}.",
"0.i.B.M.m.b.C.M.D.).S.).N.l.CXhXhX*X%.4 -XvX:Xm 6 ~ tX.. .~ n U.=XgX-X&X&X;XU.7.+.6 5 ; U 7 # 5 0 o.=.U.kXfXfXyX(.L.(./.",
"p.k.).Z.Z.g.).].B.S.B.N.l.x.$XCX:Xc.4 o.-XZX:.O.W R } Q Q ~ *.W.=X=X=XU.U.&X>.=.=.v l 9 9 9 5 v n o.n O.OXkXCX$X#X(./. X",
"i.N.F.).F.].D.S.].S.B.n.~.(.$XCXY.:.O.O.>X*X>X:XW.1.Q R 1.1.3.fXaX=X=XU.U.U.=.$.;.W W 1.] W *.m n n m &.oX$XCXVX$X X#XVX",
"A._._..XF.6XD.S.9X).].`.}.}.$X$X&.Y.,X,X,X,XZX:XfXkXtX3.tXT.T.fXaXR.W.R.U.7.%.+.*.v *.3.3.3.;.$.O.S S $XCX}.(. X/./.#XyX",
"XX_.5X_.|..X].1X'.).4X6X+X}.$XY.G %XY.,XY.zXAX>XhXaXxXxXaXT.R.aXW.T.R.W.T.7.*.W *.W W 3.R.;.>.n n x.x.oX#X#X#X/./.#XyXoX",
"5X7X7X6X3X].].D.D.9X).`.^.}.yXj u.}.%X,X%XZXAXzX=XgXxXxXsXR.U.R.tXT.T.T.3.2.1.*.W E E *.3.;.O.m $.x.h.}.A.A.^.#X/.#XyXyX",
"@X7X3X2X3X1X].V.].)..XN.A.$Xz.d }.@XXX%X,XSXAXzX-X;X-XgX-X;XU.7.5.5.5.5.1.1.1.] l R W ) $.n m n &.&.&.x.z.g.l.A././.oXuX",
"5XXXZ..X4X].).D.'.M.+X~.A.+Xx.l.VX+XXX}.0XSXSXzX-X&XU.&X;X=XR.3.2. .!  . . .! ! U l R W n n n o.%.&.&.z.A.l.l.l.l.K.L.L.",
"5X3X3X5X].v.M.1X1XD.m._.3X@X^.@X+X`.XXA.0XSXZXzX>X*X&X*X*XR.3.~ Y ! ! | ....} ! ! U l E W +.$.%.$.%.S Y.z.A.g.l.l.h.h.a.",
"7X3X_.Z.'.4X'.M.v..X.X_._.Z.Z.'.'.+X5XA.0XSXhXcXlX>X=X=XW.T.] 7 K X.X.T T X.X.T P < 7 l v n $.%.;.>.&.OX}.@XA.A.s.a.h.h.",
"Z._..X).).1X].Z.Z.Z._.M._.F.Z.B.B.'.2XA.%XSXZXcXcXhX=Xc.j.2.! < I T T T K K K K > - : k l b $.%.;.=.&.z.XXXXZ.g.u.l.K.L.",
".X`.+X'.'.'.m.g.F.m..XF.|.M.).].i.M.m.b.%XSXjXgXhXjXU.&.] ! I L L L T X.X.I K L 1 - ; 7 l W -.$.$.$.-.z.@X1X1XZ.N.!.L.{.",
"_.+X6X.X'.3X_.Z._.^.@X_.5X).4Xp.i.i.e.b.%XSXkXQ.7.W.T.) ! T L L K T X.X.K K K > > & - ; ; l E v c ) h.}.@X6X5X3X`.^.(.(.",
"5X3X.XZ.^.@X X`.k.@X@X_..X3X).M.f.p.t.G.C.0XjX6 E 2.2.Y k T > > & X o o & - o   X X & , - 7 k 5 + ( L.yXVXVX5X7X7X@X}.}.",
"J.|.|._._.XX~.l. XA. X@X6XZ.m.B.r.e.f.v.b.A.ZX6 $ Y ..{ p p 1 O       X o O     X X & - - ; 7 + . a.K.#XVX5X7X5X8X5X@X@X",
"F.|.5X.X X X~.~. X3X3X.XGX4Xm.)..Xv.1XD.C.^.FX;.+ k { T p < < 1 o X X X o X     - & & & * o :   % K.a.k. X5X8X8XVX6X5X3X",
"F..X5X@X_._.^.`.@X#X@XA.VX.X3XXX6XXXZ.Z.3X XoXuX: % Y < < I > 1 T I > X   o o > 1 > & o o o - . g ` u.u.`.VX2X.X5X3X3X2X",
"_._.3X3X.X+X`.`.@X X+X X`.~.3X7X@XXXA.7X XA.OXE.[ . k T > K < & 1 1 - X   X o - & - & o o 2 . : V F u.g.~.6X].D.4X5X5X6X",
"_.].2X.X_._.`.3X^.^.A.`. X`.Z. X}.$X7X#X/. X$XoXuX/ : < > > P * o X o o o X   o - & & o . 2 . Y a.u.D p.i.M.1X2X].'.1X1X",
"F.D.F.Z.m.Z.^.@XVX X^. X^.3X5X_.XXA.VX^.k. X@X}.(.I.k - > > > * > o o & * - - - > o o . O 2 : ( a.u.y.k.n.M.].1X1X4X2X1X",
"2XC.b.C..X2X_.Z.XX3X X^..X_.Z.3XXXXX^. X4X[.}.@X!.uX] $ o , = = @ O @ * , < , @ * O o o . @ k x _ y.u.k.).1Xm.'.).].'.].",
"G.2X2XG.m.|..X.X6X8X7XXX.Xm..XZ.XXm.}.+X[.).M.^.A.L.E.R ; = 9 7 ; , P P P Q P , , = - @ . : E k a.u.u.(.`.4X'.).).4X4X[.",
"2X2XJ.G.G.2X|.F..X_.5X|.Z.F.F.F._.|.+XN.s.V.n.p.p.x.uX3.9 9 8 6.4.4.} ..Q | ..} Q } 7 O ; 7 l $ ` u.u.l./.+X~.'.4X+X[.[.",
"G.G.b.H.G.2XJ.C.F.F.F.2XZ.C._.v.v.M.N.n.d.d.n.i.p.` j.aX*.8 ^ 5.qXwX4.4.<.4.} } Q ! R $ 8 E 3 + A ` ` K.#X#X!.[.+X[. X+X",
"J.G.H.J.F.J.G.G.5X|.b.F.m.b.3XM.v.i.i.N.s.q.i.i.N.x.;.gXT.v ~ tXwX<.qXqX4.wX} Q R  .R 8 v W 3 + ) ` ` u.l./. XVX!.{.[.`.",
"2X|.G.2XJ.J.F.|.2Xm..X_._.Z.).B.s.V.s.s.d.d.s.u.l.G c.hXaXT.^ nXHX} 4.iXqXwXqX4.6.PX8 6 v E 6 # [ _ F F y.K.#X+X{.[.+X[.",
"F.H.b.|.|.|.F.|.F._.6X3X4Xk.n.n.y.s.s.i.d.d.d.D u.G O.hXcXMXv 1.PXiX4.wXwXiXiXqXmXBX6 6 8 W 5 3 ) V _ _ _ k.[.!./.!.!.~.",
"2XG.C.|.|.|.Z._..XVX_.~.'.u.n.~.s.d.s.k.d.0.C C _ ` m =XjXMX~ R iXHXiXqXeXiXiXtXnX~ 9 6 8 ~ $ l [ A F H D u.(.~.[.~.!.`.",
"F.C.C.|..X.X_..X.X+XN.k.'.N.y.!.!.u.u.u.C C C _ _ G $.U.FXKXP.R <.nXPXnXeXnXnXJX4.8 9 3 v W # *.) A _ _ u.y.s.~.[.[.+X+X",
"J.|.F.|.5XC.M.b.F.1X_.).k.k.k.k.u.D u.u.D B D y._ A E.Q.aXKXpX7 | tXiXJXJXJXiXqXP U ; 8 ^ 0 0 -.-.) ` a.F F a.N.~.!.~.+X",
"|.2X2X|.2XD.M.g.D.D..Xm.N.k.~.u.h.u.D u.D D C B s ` DXW.=.BXIXtX, Q ..6.qXqX| Q 7 ; : ! @.q n -.;.) A _ F _ u.u.l.N.~.`.",
"Z.F.|.C.C.G.C.e.v.1XZ.p.~.l.u.u.k.u.D y.C _ C D N ` jXgX@.n mXUXtXU 5 : : < , , U U E ~ q q =.$.j.` A A A F F F l.~.`. X",
"C.M.|.D.C.F.F.D.v.D.B.N.s.s.u.D u.u.y.y.C _ D _ N z.cXNX;X4 ^ mXuXtXrX] { ! !  .!  .2.W q o.=.=.;.-.) A V A F F s.!././.",
"m.g.].F.b.v.v.M.v.p.).B.k.q.s.D D y.y.C y.C C N d OXcXlXbX8.@.MXFXW.uXkXtX5.5.*.1.rX*.3 o.@.=.;.=.-.) A V A F F y.l.(.(.",
"F.v.D.F.F.v.p.i.i.v.n.n.u.C D q.C B C M B M B H S :XvXbXFXdX#.@.gXMXMXaXtXtXT.5.P.1.5 6 +.=.7.%.$.$.S b A F _ F C u.l.l.",
"M.v.e.e.b.p.e.r.v.p.p.~.M C D B C M M M M s N H :.hXzXdXbXNXdX#.#.9.aXuXrXP.1.1.! ; U P.*.3.;.=.*.) ) S b A _ A _ l.(.(.",
"v.D.f.r.e.r.v.v.p.n.p.p.y.y.D D q.M M M M N N d Y.>XlXbXbXbXFXdX#.@.@.~ ~  .$ $ O U JXP.b ;.*.;.=.$.&.) j j A V V ` l.l.",
"M.v.b.b.C.v.D.v.g.p.y.q.y.C M C q.M M M d.y.H G OX:X>XzXlXvXvXNXxX9.wXq 0 0 0 # } mXmXv $.;.T.-.*.=.-.) b j V V _ _ a.l.",
"M.f.v.b.b.p.b.v.v.p.w.q.C B M M B M h M C C N &.hX:X*XlXvXAXcXgXBXPXtX8.9.9.+.# tXLX8 +.>.=.=.-.$.=.;.-.S A A _ _ F a.l.",
"M.p.e.b.e.e.p.b.v.e.w.q.C B M N M N M M B N N x.hX>X*XlXcXZXzXlX&XKXnX .tXrXE P.UX! W $.%.,.U.=.%.=.;.;.) x V V j Z _ a.",
"b.p.e.b.e.e.e.C.v.w.w.q.C D C B M C N C C C N j.hX>X>XzXhXzXzXzX;X;XIXrXrXuXI.uXpXU 3.$.>.>.>.>.%.=.7.;.S j h h V V a.{."
};
