/* XPM */
static char *ab104f5f61d64d5bf8ef86c9e1bb38e3t0yD23Mwgz0q4X36[] = {
/* columns rows colors chars-per-pixel */
"64 64 212 2 ",
"   c #342B2C",
".  c #392E2D",
"X  c #36312D",
"o  c #3C352E",
"O  c #352F33",
"+  c #363133",
"@  c #3D3433",
"#  c #3E3935",
"$  c #3C3639",
"%  c #3E393B",
"&  c #43312E",
"*  c #48332F",
"=  c #433534",
"-  c #4A3532",
";  c #433933",
":  c #4C3935",
">  c #433C3C",
",  c #4C3C3A",
"<  c #533B34",
"1  c #593D36",
"2  c #543D39",
"3  c #5B3E39",
"4  c #4C4136",
"5  c #47413D",
"6  c #4C433D",
"7  c #524335",
"8  c #53423E",
"9  c #5A433D",
"0  c #554A3D",
"q  c #63453E",
"w  c #72493E",
"e  c #64523C",
"r  c #6A563F",
"t  c #6C5A3D",
"y  c #443E41",
"u  c #454142",
"i  c #4C4444",
"p  c #4F4944",
"a  c #474449",
"s  c #4B4648",
"d  c #4D4A4A",
"f  c #534543",
"g  c #5A4542",
"h  c #544A45",
"j  c #5C4A44",
"k  c #574748",
"l  c #544A4B",
"z  c #5A4D4B",
"x  c #55514D",
"c  c #5C5448",
"v  c #5B514D",
"b  c #544E51",
"n  c #565252",
"m  c #5C5452",
"M  c #5D5956",
"N  c #575559",
"B  c #5C5758",
"V  c #5D5A5A",
"C  c #634740",
"Z  c #654A43",
"A  c #6C4B43",
"S  c #624D49",
"D  c #694D49",
"F  c #704740",
"G  c #744D43",
"H  c #7C4E44",
"J  c #625444",
"K  c #6A5740",
"L  c #6C5941",
"P  c #64514D",
"I  c #6C544D",
"U  c #665A4A",
"Y  c #6A5A4B",
"T  c #765045",
"R  c #7D5245",
"E  c #755249",
"W  c #7D554A",
"Q  c #725C4A",
"!  c #7F594E",
"~  c #625553",
"^  c #6B5551",
"/  c #655A56",
"(  c #6C5954",
")  c #655759",
"_  c #655C5B",
"`  c #6A5D5A",
"'  c #705550",
"]  c #725A53",
"[  c #7B5E53",
"{  c #725E5A",
"}  c #7C5F59",
"|  c #6F614E",
" . c #71614F",
".. c #6E6153",
"X. c #66615D",
"o. c #6B625D",
"O. c #726351",
"+. c #7C6054",
"@. c #7A6955",
"#. c #73625D",
"$. c #7D625B",
"%. c #76695A",
"&. c #7B6B5C",
"*. c #635E61",
"=. c #666261",
"-. c #6B6463",
";. c #6C6965",
":. c #6B6769",
">. c #6E6A6B",
",. c #756561",
"<. c #7A6662",
"1. c #736B64",
"2. c #7D6C65",
"3. c #726C6A",
"4. c #7C6D6A",
"5. c #7C7163",
"6. c #76716D",
"7. c #7B726D",
"8. c #706E71",
"9. c #737172",
"0. c #7B7573",
"q. c #7D7975",
"w. c #7E7B78",
"e. c #805041",
"r. c #865947",
"t. c #81564B",
"y. c #85594C",
"u. c #885A4B",
"i. c #825A51",
"p. c #8B5D52",
"a. c #846055",
"s. c #8D6255",
"d. c #83655C",
"f. c #8B6559",
"g. c #836A5E",
"h. c #8C685C",
"j. c #916356",
"k. c #92665A",
"l. c #936A5D",
"z. c #826761",
"x. c #816D66",
"c. c #8B6C63",
"v. c #816E68",
"b. c #8E6E68",
"n. c #946C61",
"m. c #986D61",
"M. c #817564",
"N. c #8D7166",
"B. c #83726C",
"V. c #8B736C",
"C. c #847A6D",
"Z. c #8A7D6D",
"A. c #947164",
"S. c #9A7165",
"D. c #93746C",
"F. c #9C756B",
"G. c #9D786F",
"H. c #857671",
"J. c #8A7772",
"K. c #857A75",
"L. c #8A7D73",
"P. c #837D7A",
"I. c #8B7D7A",
"U. c #937B73",
"Y. c #9C7C72",
"T. c #947E7A",
"R. c #A27B6F",
"E. c #A47E74",
"W. c #8B8175",
"Q. c #86817D",
"!. c #8C837D",
"~. c #938575",
"^. c #938674",
"/. c #948775",
"(. c #958876",
"). c #92857C",
"_. c #9B847A",
"`. c #998D7D",
"'. c #A6857C",
"]. c #A88279",
"[. c #878381",
"{. c #8B8482",
"}. c #8F8A86",
"|. c #8F8E8C",
" X c #928985",
".X c #978987",
"XX c #9C8D82",
"oX c #938A89",
"OX c #9E9283",
"+X c #9F9385",
"@X c #9F9387",
"#X c #97918E",
"$X c #9C938E",
"%X c #9D948F",
"&X c #979291",
"*X c #9D9491",
"=X c #9C9690",
"-X c #9E9993",
";X c #9F9A98",
":X c #AC8B81",
">X c #A09385",
",X c #A1958A",
"<X c #A69A8E",
"1X c #A19792",
"2X c #A39B94",
"3X c #A39D9A",
"4X c #A6A099",
"5X c #ABA49B",
"6X c #AEA7A3",
"7X c #B2ACA6",
"8X c #B2ACAA",
"9X c #B8B0AD",
/* pixels */
"..|  . . . .J o.|  . . . .O.O. . .U 1.~.~.~.~.~.~.~.~.~.C._ $X$X%X%X$X%X$X%X*X#X~ $.$.$.$.$.$.$.$.$.$.v K r r r r r r r r r i  .",
"O.O. .O.O.O.J U  . . . . .O. .O.O.U X./././././././././.Z.M %X*X*X*X*X*X*X*X*X#Xz $.$.$.$.$.$.$.$.$.d.i r L L L K L K K K L >  .",
"n > m ~ ~ m v z z f 8 2 . n M B B m n n v z h ; z / ) ) P z v z j 8 : M -.-.-.=.M M M m x h i m m m n l l s u > ; u _ X._ _ B B ",
"*X=.'.k.s.p.u.y.y.y.y.y.< .XJ.H.B.v.v.2.2.2.2.z U.k.s.u.u.y.y.y.y.u.A %X2X<X,X@X@XOXOXOX@X!.0.1.-.o._ / / / / / m 9.3X2X*X*X%X$X",
"$XX.F.u.y.y.u.y.y.u.y.u.: K.v.v.v.v.v.v.v.v.v.z c.u.u.u.u.y.y.y.y.u.A  X@X@X@X@X@X@X@X@X@X!.;./ / / / / / / / / m >.$X%X%X%X%X$X",
"%XX.f.y.u.y.u.y.y.y.y.u.< 4.v.v.v.v.v.v.v.v.v.z +.y.u.u.y.u.u.u.u.u.A !.@X@X@X@XOX@X@X@X@X!.B / / / / / / / / / ~ =.$X$X%X$X%X$X",
"Q.m T G G G T T G T G G * ` #.#.#.#.#.#.#.#.#.f A T G G T T T T H G q 3.L.W.W.L.L.L.L.W.W.7.u c z v v v v v z v l n Q.Q.Q.Q.Q.Q.",
"P ~ S S j g : *.9.9.8.>.>.;.-.=.X.m i / m v c h h 0 6 4 ; > _ _ ~ m v z z h f , a 9.8.>.>.:.>.-.=.=.=.u o._ / ) v v z k f 8 + ` ",
"p.p.p.p.p.p.T &X$X&X$X$X*X*X$X%X%X{.#.r r r r r r r r K e ) [ [ [ [ +.+.+.+.+.[ >.-X#X$X$X$X&X&X$X$X*X-.c.[ [ [ [ +.+.+.+.+.z m.",
"p.p.p.p.p.p.T  X$X$X$X%X%X%X%X%X*X{.U r r r r r r r r K e z [ +.+.+.+.+.+.+.+.[ :.*X$X$X$X$X$X$X$X$X*XX.+.+.+.+.+.+.+.+.+.} z s.",
"p.p.p.p.p.p.T Q.$X$X$X$X$X$X$X$X*X{.h r r r r r r r r K e f [ +.[ +.[ [ [ [ +.[ *.$X$X$X$X$X$X$X$X$X*X) +.[ [ [ [ [ +.} [ +.f u.",
"Z Z Z Z Z Z 3 V 3.3.3.3.3.3.3.3.3.X.o 7 7 7 7 7 7 7 7 7 4 @ j j j j j j j j j j i 3.3.3.3.3.3.3.3.3.3.> j j j j j j j j j j @ Z ",
"2.l XXY.Y.D.D.c.h.a.i.! - q.q.9.3.>.=._ B n l $ q.P.P.K.0.4.1.-.` / h B.U.D.D.c.h.i.[ W T q Q.5X4X2X2X2X%X@XXX XL.*..XoX X).I.K.",
"v.z Y.u.u.u.u.u.u.y.u.u.: -.l l l l l l l l l $ 6./ / / / / / / / / l z.H H H H H H H H H G {.@X@X@X@X>X@X@X@X@X).X.v.v.v.v.v.v.",
"v.z l.u.y.y.y.y.y.y.y.u.: B l l l l l l l l l $ -./ / / / / / / / / l $.H H H H H H H H H A P.OX@X@X@X@X@X@X@X@X).B 2.v.v.v.v.v.",
"v.z p.u.u.u.u.u.u.u.u.u.< l l l l l l l l l l $ _ / / / / / / / / / z E H H H H H H H H H w 7.@X@X@X@X@X@X@X@X@X).z v.v.v.v.v.v.",
"s % , , , : : : 2 2 , 2 @ $ $ $ $ + + % $ % % + % > > ; # $ > > > > % = : : : - = , : , , : i v v x x h v v v v l @ i i i , > s ",
"J.H.B.B.v.v.` U.G.F.m.n.l.f.s.s.p.W 2.D.A.b.c.f.a.i.i.i.E ) F.A.n.l.f.s.p.u.u.t.-.2X,X@XXX`.(.(./.~./.` E.S.n.l.k.s.p.u.u.u.z ,X",
"v.v.v.v.v.4.` V.p.p.p.p.p.p.p.p.p.W #.i.y.i.i.i.i.i.i.i.E P r.u.u.u.u.u.y.y.u.y.-.(.~.~.~.~.~.~.~.~./.` s.u.u.u.u.y.y.u.u.u.z J.",
"v.v.v.v.v.v.` d.p.p.p.p.p.p.p.p.p.W I i.y.y.y.y.y.y.i.y.E j y.u.u.u.u.u.u.u.u.r.X./.~.~.~.~.~.~.~.~././ u.u.u.u.u.u.u.u.u.u.h v.",
"v.v.v.v.v.v.` E p.p.p.p.p.p.p.p.p.W j i.y.y.y.y.y.y.i.y.E 2 y.u.y.y.u.u.u.u.u.y.U ~.~.~.~././././././.S y.y.y.y.y.y.y.y.y.u.i v.",
"m u _ _ _ _ / M ~ m v z = z ~ ~ ~ v z z j g 2 = n _ _ _ _ B _ / B n i l ~ ~ ~ ~ n ~ m z j 8 n =.=.-.-./ / ~ B m z u _ _ _ _ B *.",
"*X=.5XOX`.`.(.(./././.~.h U.k.j.s.s.p.u.u.u.u.3 ;X3X2X2X2X1X*X*X*X*Xq.T.A.A.n.l.h.h.f.f.f.[ oX3X2X2X2X1X*X*X*X*X}.9.3X2X2X2X2X*X",
"%X=.@X~.~.~.~./././.~.~.z h.y.y.u.u.y.u.u.y.y.3 #X$X*X%X%X%X%X%X%X%X0.V.f.f.f.f.f.f.f.f.f.[ {.&X$X$X%X%X%X%X%X%X X>.$X$X$X$X%X%X",
"$X=.`.~.~.~.~.~.~.~.~.~.z i.y.y.u.u.y.y.y.y.u.3 }.*X$X%X%X$X%X%X%X%Xq.z.f.f.f.f.f.f.f.f.f.[ q.$X%X%X%X%X%X%X*X*X X=.$X%X%X%X%X%X",
"oX/ Z.Z.Z.Z.Z.L.L.L.L.L.h E t.t.W t.W W t.t.W 1 P. XoX X X XoX X X X0.I a.a.i.i.i.i.a.a.a.] 3.oXoXoXoX XoXoXoX XQ.M  X XoX X X X",
"#.] I D Z q 2 >.[.Q.P.w.q.0.6.3.3._ v v.2.<.#.] I I Z C 9 i 0.0.4.3.;.X._ ~ m v s 4.4.,.#.` ^ P S C g l [.Q.P.K.q.0.6.3.1.1.> v.",
"y.y.y.y.y.y.G #X%X$X$X$X$X$X$X$X*XQ.<.u.u.y.y.y.y.y.y.y.R / 4.v.v.2.v.2.2.v.v.2._ f.i.! ! y.y.y.y.y.i.;.<X@X@X@XOX@X@X@X@X@Xm n.",
"y.y.y.y.y.u.G  X$X$X$X%X%X$X$X%X*X!.] y.y.y.y.u.u.u.u.y.R n 2.v.v.v.v.v.v.v.v.2./ i.y.y.y.y.i.i.i.i.i.-.,X@X@X@X@X@X@X@X@X@Xv u.",
"y.y.y.u.y.u.G Q.$X$X$X%X$X$X$X$X*XQ.D y.y.u.y.u.y.y.y.y.R z v.v.v.v.v.v.v.v.v.2.z i.y.y.y.i.i.i.i.i.i._ @X@X@X@X@XOX@XOXOX@Xh r.",
"3 3 1 1 1 1 - x X._ X.X.=._ _ X._ m & 1 1 1 1 1 1 1 1 1 < O f h h l h l h h h f X 2 2 9 2 3 2 2 2 2 3 > _ _ _ _ X.X./ _ _ _ + 1 ",
"m > T.N.c.c.f.d.a.i.! E - K.B.B.v.2.&.$.+.] I , 0.K.B.B.4.2.,.#.{ ] j :.>.-.=.V B m n l d u ;.C.7.5.1.%.%.....U c m 0.7.3.3.;.X.",
"/ i Y.y.y.u.u.u.u.u.y.u.< B.[ +.[ +.+.+.+.+.+.8 H.+.$.$.$.$.$.$.$.$.P >.l l l l l l l l l i 7.|  . . . .O. . . .Y B / / / / ` / ",
"/ s l.y.u.u.u.u.u.u.y.u.< &.[ +.+.+.+.+.+.+.+.8 2.$.$.$.$.$.$.$.$.$.P _ l l l l l l l l l i o. . . . . . . . . .Y z / / / / / / ",
"/ i p.u.u.u.u.u.u.u.u.u.< [ +.+.+.+.+.+.+.[ [ 9 #.$.$.$.$.$.$.$.$.$.P b l l l l l l l l l i c  . . . .O. . . . .Y i / / / / / / ",
"s > g 9 9 9 1 8 g g g g > f h f f 8 8 f h h h , f j h f 8 , k h h h i > y y > ; % i u i i u i h h f f 5 f p p f i % s i u 5 ; i ",
"S.l.k.j.s.u.T !._.T.U.V.N.c.g.d.+.Q B.].E.R.F.S.n.k.k.s.y.` ].E.E.G.S.m.l.k.s.p.3.9X7X7X6X5X4X2X2X-X2X=..XI.K.H.7.1.,.o.` ` l :X",
"y.y.u.u.u.y.G B.[ [ [ +.+.[ [ +.+.I $.p.p.p.p.p.p.p.p.p.t.~ i.p.p.p.p.p.p.p.p.i.3.-X$X*X*X%X%X%X%X%X1X=.-./ / / / / / / / / l f.",
"u.u.u.u.y.u.G #.[ [ +.+.[ +.+.+.+.I ' u.p.p.p.p.p.p.p.p.t.j p.p.p.p.p.p.p.p.p.p.-.*X$X$X$X%X*X$X$X$X*X_ / / / / / / / / / / s u.",
"u.u.u.u.u.u.G ^ +.+.+.+.+.+.+.+.+.I Z p.p.p.p.p.p.p.p.p.! g p.p.p.p.p.p.u.p.p.i._ %X*X*X*X*X*X*X*X*X2Xx _ / / / / _ / / / _ , u.",
": . z z z z f f f , , :   s l z l h i f 6 , : . i l l l f i i , , : @ u l z l h d d s i u > u l d d d u y > % + O $ l l l h i f ",
"y.9 :Xl.f.p.p.p.u.u.u.p.< T.x.z.$.$.} } } $.$.f U.f.s.i.i.! ! y.y.i.A I.x.c.$.$.$.+.} } $.] 3./ n l l l l d l l s ` h.f.i.i.y.! ",
"y.g G.p.p.p.p.p.p.p.p.p.2 v.$.$.$.$.$.$.$.+.$.f z.u.y.y.y.i.i.i.i.i.A B.$.$.$.$.$.$.$.$.$.] *.l l l l l l l l l s ~ t.y.i.y.y.i.",
"i.g l.p.p.p.p.p.p.p.p.p.< $.$.$.$.$.$.$.$.$.$.f $.i.i.i.i.i.y.i.i.i.A <.+.$.$.$.$.$.$.$.$.] l l l l l l l l l l s j i.i.i.y.i.i.",
"E 2 W W W W W W W W W W - ^ ^ ] ^ ] ] ] ] ] ] 8 D E E E E E E E E E q P ^ ^ ] ] ] ] ^ ] ] P % i i i i i i i i i u : E E E E E E ",
"( ^ I I D C : -.q.q.0.7.6.3.3.;.-.M b 3.3.;.-.=._ / ) m l > #.#.{ ` ( I P S C 9 y *.V V N n b d s u > y ,.o.o.` / ~ ~ v z g @ ,.",
"y.u.u.u.u.u.G $X@X@X@X@X@X@X@X@XOXW.4.v.v.v.v.v.v.v.v.v.,.~ u.u.y.y.y.u.u.u.u.y.B n l l l l l l l l z / c.+.+.+.+.+.+.+.+.+.l n.",
"y.u.u.y.y.u.G  XOX@X@X@X@X@X@X@XOXW.;.2.v.v.v.v.v.v.v.v.,.z y.u.u.u.y.u.y.u.u.y.n l l l l l l l l l l ~ $.+.+.+.+.+.[ [ [ +.h p.",
"y.y.u.u.y.u.G P.OX@X@X@X@X@X@X@XOXW.~ v.v.v.v.v.v.v.v.v.,.8 y.y.y.y.y.y.y.u.u.r.d l l l l l l l l l l z [ } } [ +.[ +.+.[ +.f y.",
"q q q q q q 1 M 1.1.1.1.1.1.1.3.1.X.u m ~ ~ ~ m m ~ m m z & q C q q q q q q q q + > > > > > > > > > > @ j j j j j j j j j j @ q ",
"e ; T.D.b.c.d.i.[ E G G & {. X!.I.K.H.7.4.2.,.f |.3X3X-X&X#XoX X}.{.3.7.U.J.V.c.z.d.} [ E D ;.C.M.5.&.%. .Y K J 0 v Z.M.5.&.%. .",
"r 4 S.H H H H H H H H H - I.2.v.v.v.v.v.v.v.v.z &X$X&X$X$X$X$X$X$X$X0.V.i.i.i.i.y.y.i.i.y.E 1.r r r r r r r r r e ~ r r r r r r ",
"r 4 f.H H H H H H H H H - 7.v.v.v.v.v.v.v.v.v.z oX&X$X$X$X$X$X$X$X$X0.z.i.i.i.i.i.i.i.i.i.E ( r r r r r r r r r e h r r r r r r ",
"r 4 W H H H H H H H H H - 2.v.v.v.v.v.v.v.v.v.z {.$X$X$X$X$X$X$X$X$X0.] i.i.i.i.i.i.i.i.i.E j r r r r r r r r K e 6 r r r r r r ",
"; + = = = = & & & & & &   ; > > > ; > > > > > @ i d d d s s d d d d u @ ; = = = @ = = = = = X o @ o o X o o @ @ o   o o o o X # ",
"3X-X*X*X$X#Xq.V.n.h.f.p.i.u.t.e.R F <.n.h.s.p.i.t.t.R R w M 0.7.3.3.,.,.o.` ` ~ m 3.=._ _ B B n l l l m Z.&.@.@. . .Q L L K x 8X",
"$X$X$X$X$X$Xw.z.H H H H H H H H H w { H H H H H H H H H w n / / / / / / / / / ~ N l l l l l l l l l l B Q r r r r r r r r r n 2X",
"&X&X&X&X$X$Xw.] H H H H H H H H H w D H H H H H H H H H w d / / / / / / / / / ~ l l l l l l l l l l l v L r r r r r r r r t l &X",
"*X*X*X*X*X*XP.A R R e.R e.e.e.R e.w q R R e.e.e.e.e.e.e.w u ` ` ` ` ` ` ` ` ` / u l l l l l l l l l l 6 L t t t t t t t t L h -X",
"s % =.=.-.-.=.) ) m z h @ m ) ) ) ~ ~ P S j 9 = l ) ) ) B n n n l i % l / ) ) ) v v z f 8 : i M m M M m v x h p > > n n m m n B ",
"l > 1XI.J.H.B.B.v.v.v.v.i Y.n.n.k.j.s.p.p.p.p.q P.1.,.,.o.` / / / / z U.l.k.s.s.u.u.u.y.u.R q.M.&.@.@.%.O.O. . .Y B _ / B n x l ",
"l >  Xv.v.v.v.v.v.v.v.v.i c.p.p.p.p.p.p.p.p.p.q 3./ / / / / / / / / l c.y.u.u.u.y.u.u.u.u.T 1.|  . . . . . . . .Y x l l l l l l ",
"l y J.v.v.v.v.v.v.v.v.v.i a.p.p.p.p.p.p.p.p.p.9 =./ / / / / / / / / l +.u.u.y.y.y.y.u.y.u.R /  . . . . . . . . .Y u l l l l l l ",
"s % ,.,.,.,.,.,.,.,.,.,.5 E ! ! ! ! ! t.t.t.t.3 v m m m m m m m m m i D R R W R W R W R R A h U U U U U U Y Y Y c $ s s s s s s "
};
