/* XPM */
static char *_e484a78bc2d452ec810e6919cbeb7462JaqbzbjcDh8RTXU[] = {
/* columns rows colors chars-per-pixel */
"60 60 244 2 ",
"   c #240B04",
".  c #26120E",
"X  c #2C1C16",
"o  c #321B13",
"O  c #341E19",
"+  c #37231B",
"@  c #3C2A22",
"#  c #42261B",
"$  c #47342B",
"%  c #593B38",
"&  c #4F342D",
"*  c #6D3D35",
"=  c #7F3D2D",
"-  c #752D17",
";  c #584237",
":  c #62443D",
">  c #684C35",
",  c #754836",
"<  c #6B513A",
"1  c #7B5B3E",
"2  c #75573B",
"3  c #7D4A2D",
"4  c #554744",
"5  c #644945",
"6  c #695547",
"7  c #755A43",
"8  c #7B5D44",
"9  c #73554B",
"0  c #735C4C",
"q  c #765443",
"w  c #755B53",
"e  c #70554D",
"r  c #7C634B",
"t  c #7C644A",
"y  c #746355",
"u  c #7D6353",
"i  c #74645A",
"p  c #7B685B",
"a  c #796B63",
"s  c #7F7876",
"d  c #844D3C",
"f  c #924D39",
"g  c #875337",
"h  c #A35F3A",
"j  c #A0643F",
"k  c #835847",
"l  c #97594A",
"z  c #945349",
"x  c #82644C",
"c  c #856A4C",
"v  c #896A4F",
"b  c #896448",
"n  c #95654B",
"m  c #826552",
"M  c #846C54",
"N  c #8B6C53",
"B  c #836C5A",
"V  c #8B6F59",
"C  c #976853",
"Z  c #8C7155",
"A  c #85705B",
"S  c #8C725C",
"D  c #8A7658",
"F  c #9A7B5F",
"G  c #967558",
"H  c #99714E",
"J  c #A8644C",
"K  c #A66954",
"L  c #A37B5C",
"P  c #A67757",
"I  c #B2724E",
"U  c #8A7668",
"Y  c #937A63",
"T  c #9B7C62",
"R  c #947C6A",
"E  c #957866",
"W  c #8B7B74",
"Q  c #827876",
"!  c #937E73",
"~  c #946863",
"^  c #A57A66",
"/  c #B37C66",
"(  c #A26C60",
")  c #B48358",
"_  c #B08B5C",
"`  c #9B8163",
"'  c #97836C",
"]  c #9B846C",
"[  c #988668",
"{  c #8C807E",
"}  c #9C8573",
"|  c #978677",
" . c #A2846B",
".. c #A88767",
"X. c #B78768",
"o. c #B4926D",
"O. c #B9956A",
"+. c #A48B73",
"@. c #A4857B",
"#. c #AA8D79",
"$. c #A98A75",
"%. c #B58C72",
"&. c #AB9274",
"*. c #A5917B",
"=. c #AD947B",
"-. c #AC9B7F",
";. c #BC9A75",
":. c #B3957B",
">. c #BA9A7B",
",. c #B7987A",
"<. c #B7A07E",
"1. c #C69A69",
"2. c #C69976",
"3. c #C38F77",
"4. c #CAA479",
"5. c #DDAD7A",
"6. c #C5A16F",
"7. c #9E8D82",
"8. c #9E9282",
"9. c #A58E82",
"0. c #AB9A82",
"q. c #A2948C",
"w. c #AB9D8C",
"e. c #A99485",
"r. c #B39C83",
"t. c #BA9B84",
"y. c #B79986",
"u. c #A89A96",
"i. c #B4A38B",
"p. c #BCA48B",
"a. c #BCA789",
"s. c #AEA396",
"d. c #B5A492",
"f. c #BAA593",
"g. c #BCAB93",
"h. c #BCAB9C",
"j. c #B4A99C",
"k. c #BEB39D",
"l. c #B9AFA5",
"z. c #BCB4A8",
"x. c #C69787",
"c. c #CD9E8C",
"v. c #CBAB85",
"b. c #C1A58A",
"n. c #CCAC8C",
"m. c #C7A689",
"M. c #D2AD84",
"N. c #D1A689",
"B. c #C3AC93",
"V. c #C2AC9B",
"C. c #CBA997",
"Z. c #D7AC96",
"A. c #C4B39B",
"S. c #CAB49B",
"D. c #CBB597",
"F. c #D9B794",
"G. c #D1B99B",
"H. c #D8B798",
"J. c #D2B28D",
"K. c #CBAEA5",
"L. c #C5B4A2",
"P. c #CCB5A2",
"I. c #CCBAA3",
"U. c #C2B9AE",
"Y. c #CCBDAB",
"T. c #C3B9A8",
"R. c #D3BCA2",
"E. c #DCBEAD",
"W. c #D7B9A6",
"Q. c #C2B9B1",
"!. c #C6BFB8",
"~. c #D8BBB2",
"^. c #E2BAA7",
"/. c #CDC5AB",
"(. c #DBC3A3",
"). c #D3C3AC",
"_. c #DCC5AC",
"`. c #DBCAAD",
"'. c #D5C3A6",
"]. c #CCC3BC",
"[. c #CEC5B5",
"{. c #D4C4B2",
"}. c #DBC5B2",
"|. c #D6C9B4",
" X c #DCCBB3",
".X c #D5CBBB",
"XX c #DBCBBC",
"oX c #D4C4BB",
"OX c #DDD2BD",
"+X c #E5CAAD",
"@X c #E1C9B8",
"#X c #E3D2BC",
"$X c #E3D3B7",
"%X c #DABBC1",
"&X c #CDC7C1",
"*X c #D4CCC3",
"=X c #DBCEC3",
"-X c #D6C9C7",
";X c #DDD3C3",
":X c #DCD4CB",
">X c #D7D3C7",
",X c #DFD5D2",
"<X c #DCDBD5",
"1X c #E3CEC1",
"2X c #E5D4C5",
"3X c #E4D4CC",
"4X c #E4DACC",
"5X c #EBDDCC",
"6X c #EAD6C6",
"7X c #F2D7CB",
"8X c #E4DCD3",
"9X c #E7DDD7",
"0X c #F2DED7",
"qX c #DEE0DF",
"wX c #ECE2D4",
"eX c #E5E2DB",
"rX c #ECE5DA",
"tX c #FCECDD",
"yX c #F3E7DB",
"uX c #DBE4E1",
"iX c #E6E6E4",
"pX c #E9E5E2",
"aX c #EEEFEC",
"sX c #EEEBE4",
"dX c #F4ECE3",
"fX c #F9ECE6",
"gX c #F5F3ED",
"hX c #FCF5EC",
"jX c #FCF5E9",
"kX c #EDF4F7",
"lX c #F4F4F4",
"zX c #FAF5F2",
"xX c #F4FBF5",
"cX c #FDFCF5",
"vX c #F4F6FA",
"bX c #F5FDFD",
"nX c #FBFFFF",
"mX c #F9FEFF",
"MX c #FFFDFF",
"NX c white",
"BX c #FFFEFF",
"VX c #FEFEFE",
"CX c #FFFFFF",
"ZX c #FCF5FD",
/* pixels */
"NXNXNXNXNXNXNXNXNXNXNXNXNXNXNXNXVXlXNXbXbXnXNXMXNXnXNXNXNXNXNXNXkXNXcXVXnXnXVXjXcXNXMXmXVXVXvXNXNXNXNXNXNXNXNXNXNXNXNXNX",
"NXNXNXNXNXNXNXNXNXNXNXNXNXNXNXNXnXNXZXNXNXcXNXNXNXNXNXNXMXcXcXVXnXlXcXVXNXNX8XS.{.dXNXNXcXVXNXNXNXNXNXNXNXNXNXNXNXNXNXNX",
"NXNXNXNXNXNXNXNXNXNXNXNXNXNXNXNXbXcXcXjXjXcXVXmXzXcXVXVXNXNXNXNXNXgXcXVXvXVXV.v.,._.cXNXxXnXNXNXNXNXNXNXNXNXNXNXNXNXNXNX",
"NXNXNXNXNXNXNXNXNXNXNXNXNXNXNXNXbXzXtXD.S.2XVXnXVXVXNXNXNXNXnXbXVXVXnXnXNX4X+.F.1.v.5XVXbXnXvXVXNXNXNXNXNXNXNXNXNXNXNXNX",
"NXNXNXNXNXNXNXNXNXNXNXNXNXNXNXNXnXcXG.o.>.e.fXNXNXNXnXbXbXnXnXnXVXNXbXkXNXq.a.F.5.6.`.VXnXnXvXcXNXNXNXNXNXNXNXNXNXNXNXNX",
"NXNXNXNXNXNXNXNXNXNXNXNXNXNXNXNXvXtX;.1.F.t.l.cXvXbXnXnXnXNXvXlXcXnXbXnXpXa _.+X5.4.'.hXnXNXNXcXNXNXNXNXNXNXNXNXNXNXNXNX",
"NXNXNXNXNXNXNXNXNXNXNXNXNXNXNXNXNX XO.1.M.E.| wXNXNXlX9X-X].Q.l.:XaXlXVXw.m +XR.4.v.D.jXMXNXNXcXNXNXNXNXNXNXNXNXNXNXNXNX",
"NXNXNXNXNXNXNXNXNXNXNXNXNXNXNXNXMXS.6._ 4._.} } NXsX&Xu.W U U U W z.>X*X} ^ +XG.n.n.a.jXNXMXNXVXNXNXNXNXNXNXNXNXNXNXNXNX",
"NXNXNXNXNXNXNXNXNXNXNXNXNXNXNXNXVXS.1.1.;.'.t.1 U.z.' R U R E T ! B ] +.R #.(.H.v.F.S.yXNXbXNXVXNXNXNXNXNXNXNXNXNXNXNXNX",
"NXNXNXNXNXNXNXNXNXNXNXNXNXNXNXNXVXS.6.1.6.(.b.N | | R ! ! | R ] | } *.Y m #.+XJ.M.F.R.fXNXnXNXNXNXNXNXNXNXNXNXNXNXNXNXNX",
"NXNXNXNXNXNXNXNXNXNXNXNXNXNXNXNXcXI.4.1.2.H.>.v B S ] ' U ! U } E Y ] S m  .W.F.M.F.}.cXNXNXmXNXNXNXNXNXNXNXNXNXNXNXNXNX",
"NXNXNXNXNXNXNXNXNXNXNXNXNXNXNXNXcX X2.1.1.M.%.1 x N Y B w w i a B r Z Z Z T n.F.4.n.2XVXNXNXmXNXNXNXNXNXNXNXNXNXNXNXNXNX",
"NXNXNXNXNXNXNXNXNXNXNXNXNXNXNXNXNXyX>.4.1.M.%., 8 N x 0 e 6 y y N Z Z c v T n.n.6.B.yXVXNXNXNXnXNXNXNXNXNXNXNXNXNXNXNXNX",
"NXNXNXNXNXNXNXNXNXNXNXNXNXNXNXNXNXhXa.2.) 2.%.q 2 N 8 7 u w p y t N Z v Z T m.n.;.P.zXbXNXVXNXNXNXNXNXNXNXNXNXNXNXNXNXNX",
"NXNXNXNXNXNXNXNXNXNXNXNXNXNXNXNXnXcX_.O.) X.^ 0 7 v 8 > m w 7 2 < t Z T  .F :.n.,.XXNXbXNXcXVXnXNXNXNXNXNXNXNXNXNXNXNXNX",
"NXNXNXNXNXNXNXNXNXNXNXNXNXNXNXNXnXNXtX;.) ) F u N S c > m m < 1 7 N T  .] V  .a.>.4XnXnXVXcXVXnXNXNXNXNXNXNXNXNXNXNXNXNX",
"NXNXNXNXNXNXNXNXNXNXNXNXNXNXNXNXcXNXNX[.L P L x ` Y u 7 8 8 7 7 2 R u R $.N N a.j.l.gXNXNXNXVXVXNXNXNXNXNXNXNXNXNXNXNXNX",
"NXNXNXNXNXNXNXNXNXNXNXNXNXNXNXNXNXvXlXU...P N Y G r 7 6 t t 2 0 c S t A ` &.&.D.d.s.eXvXNXNXNXxXNXNXNXNXNXNXNXNXNXNXNXNX",
"NXNXNXNXNXNXNXNXNXNXNXNXNXNXNXNXNXNXvXq.F 2.G B Z r r r t x 7 r c ` ] ] F ,.&.a.w.q.>XvXNXNXNXVXNXNXNXNXNXNXNXNXNXNXNXNX",
"NXNXNXNXNXNXNXNXNXNXNXNXNXNXNXNXNXbX<X7.+.:.M R S M U A 8 b 8 x Z Y 0 B Y >.&.&.0.e.*XzXNXNXNXNXNXNXNXNXNXNXNXNXNXNXNXNX",
"NXNXNXNXNXNXNXNXNXNXNXNXNXNXNXNXbXNX&X| ] +.R } B 0 p A 7 x 8 m S U @ 5 } :.$.&.0.w.!.zXNXNXNXNXNXNXNXNXNXNXNXNXNXNXNXNX",
"NXNXNXNXNXNXNXNXNXNXNXNXNXNXNXNXnXgXj.| +.S ' 0.U ; $ B r 1 8 M S U X ; 9.#.+.+.=.0.s.8XNXNXNXvXNXNXNXNXNXNXNXNXNXNXNXNX",
"NXNXNXNXNXNXNXNXNXNXNXNXNXNXNXNXxXgXh.R S Y *.] W $ X p r 2 t M S B X $ 9.r.:.=.=.i.8.*XVXNXNXNXNXNXNXNXNXNXNXNXNXNXNXNX",
"NXNXNXNXNXNXNXNXNXNXNXNXNXNXNXNXnXeXd.+.Y M R [ W $ X a 0 > t r x R i i i.t.,.<.a.S.w.*XVXNXNXNXNXNXNXNXNXNXNXNXNXNXNXNX",
"NXNXNXNXNXNXNXNXNXNXNXNXNXNXNXNXnX9X*.$.T Y Y  .[ e 6 A < : : 8 t R A M +.y.t.-.i.P.d.U.gXNXNXNXNXNXNXNXNXNXNXNXNXNXNXNX",
"NXNXNXNXNXNXNXNXNXNXNXNXNXNXNXNXnX:X} +. .] ] &.` 6 6 u 8 ; 9 c F &. .Y +.#.+.0.i.P.f.T.gXNXNXNXNXNXNXNXNXNXNXNXNXNXNXNX",
"NXNXNXNXNXNXNXNXNXNXNXNXNXNXNXNXbX>X*.:.+.[ [ =.D u 0 &.c w 9 v ..>.a.+.=.p.r.g.L.).f.h.pXNXNXNXNXNXNXNXNXNXNXNXNXNXNXNX",
"NXNXNXNXNXNXNXNXNXNXNXNXNXNXNXNXbX*Xe.t.=.] ' +.` u Y ..G k q x n ..>.+.r.S.g.A.).}.f.d.,XvXNXNXNXNXNXNXNXNXNXNXNXNXNXNX",
"NXNXNXNXNXNXNXNXNXNXNXNXNXNXNXNXbXQ.' =.p.r.*.*.=.U $.` b k * 1 g H ,.r.g.R.V.P.Y.Y.p.d.:XNXNXNXNXNXNXNXNXNXNXNXNXNXNXNX",
"NXNXNXNXNXNXNXNXNXNXNXNXNXNXNXNXxXz.' &.p.f.i.i.p.e.=...3 k & , g H b.).{.Y.A. X.X).B.d.:XNXNXNXNXNXNXNXNXNXNXNXNXNXNXNX",
"NXNXNXNXNXNXNXNXNXNXNXNXNXNXNXNXzXU.*.-.a.g.g.g.g.h.C...b * * , g ^ A.OX;X{.).`.2X).S.V.4XNXNXNXNXNXNXNXNXNXNXNXNXNXNXNX",
"NXNXNXNXNXNXNXNXNXNXNXNXNXNXNXNXVXU.e.t.S.I.A.i.T.;XP.4.n k ~ ^ n >.).4X4X4X#X).{.P.S.P.wXVXnXNXNXNXNXNXNXNXNXNXNXNXNXNX",
"NXNXNXNXNXNXNXNXNXNXNXNXNXNXNXNXmX&Xk.g.B.P.P.).R.|.;XI.:.n Z.x.@.~.4X8X3X7X5X/.).S.i.Y.fXNXmXNXNXNXNXNXNXNXNXNXNXNXNXNX",
"NXNXNXNXNXNXNXNXNXNXNXNXNXNXNXNXNX:Xk.i.B.R.R._.$X|.=X2XE.t.C.~.~.2X8X9X3X1X#X).).I.A.|.gXNXmXNXNXNXNXNXNXNXNXNXNXNXNXNX",
"NXNXNXNXNXNXNXNXNXNXNXNXNXNXNXNXNX9XL.r.b.G.D.'.}.XX:X4X5X6XK.%XyXwX:X4X2X@X X`.).)./.4XcXNXmXNXNXNXNXNXNXNXNXNXNXNXNXNX",
"NXNXNXNXNXNXNXNXNXNXNXNXNXNXNXNXMXsXY.i.B.S.B.G.).#X;X.X:XdX-X-X4X;X.XXX#X$X X`.).|.OXrXVXNXnXNXNXNXNXNXNXNXNXNXNXNXNXNX",
"NXNXNXNXNXNXNXNXNXNXNXNXNXNXNXNXNXgX.XA.I.S.D.(. X X X/.T.z.{.oXw.L.}. X X$X$X`.{.XX5XfXNXNXNXVXNXNXNXNXNXNXNXNXNXNXNXNX",
"NXNXNXNXNXNXNXNXNXNXNXNXNXNXNXNXNXzX:X{.).I.'.+X X`.+XG.0.U p.b.A =.E.+X`.$X$X#X=X4XyXzXNXNXNXVXNXNXNXNXNXNXNXNXNXNXNXNX",
"NXNXNXNXNXNXNXNXNXNXNXNXNXNXNXNXNXcXwX;X.X{. X_.).(.J.%.T S >.o.N G %.N.G. X#X7X5XwXfXVXNXNXNXVXNXNXNXNXNXNXNXNXNXNXNXNX",
"NXNXNXNXNXNXNXNXNXNXNXNXNXNXNXNXNXVXdX4X;XXX#XI.z.:.n 3 d C %.o.L g g P b.).XX0XyXyXhXVXnXNXNXVXNXNXNXNXNXNXNXNXNXNXNXNX",
"NXNXNXNXNXNXNXNXNXNXNXnXNXNXNXNXNXnXbX<X4X1X}.[.n...g j h I 2.o.X.P ) P b.XX4XdXiXgXVXVXVXNXNXNXNXNXNXNXNXNXNXNXNXNXNXNX",
"NXNXNXNXNXNXNXNXVXVXNXNXNXNXNXNXNXzXcXeX=X2XwX.X XB.^ 3.X.X.N.n.2.2.N.n. X8XdXyXaXxXVXNXNXNXNXNXNXNXNXNXNXNXNXNXNXNXNXNX",
"NXNXNXNXNXNXNXNXVXVXVXVXVXVXcXcXcXVXVXgX:X].:X*X*X;XY.W.c.3.N.H.Z.Z.E.6XrXeXsXeXxXVXNXNXNXNXNXNXNXNXNXNXNXNXNXNXNXNXNXNX",
"NXNXNXNXNXNXNXNXNXNXNXNXNXNXNXNXnXNXbXlXpXQ.U.;X*X8X=X{.W.Z.N.N.E.W.@XwXpXqXiXsXVXNXNXNXNXNXNXNXNXNXNXNXNXNXNXNXNXNXNXNX",
"NXNXNXNXNXNXNXNXNXNXNXnXmXmXnXMXbXbXvXNXVX:Xd.y.Q.*X4X1X@X^.H.^.1XXX5X8X9XkXkXVXNXNXNXNXNXNXNXNXNXNXNXNXNXNXNXNXNXNXNXNX",
"NXNXNXNXNXNXNXNXnXnXNXNXNXNXNXNXnXnXNXNXhX5X0.b } | T..XXX~.}.6X,X4X2XY.*XVXNXNXNXNXNXNXNXNXNXNXNXNXNXNXNXNXNXNXNXNXNXNX",
"NXNXNXNXNXNXNXNXnXNXNXVXcXjXfXtX5X2X@XV.d.P. .n k ; | ].9X9X8X:XiXwXV.#.L.cXNXnXNXNXNXNXNXNXNXNXNXNXNXNXNXNXNXNXNXNXNXNX",
"NXNXNXNXNXNXNXNXNXVXgXrX=XL.y.*...^ C q Y t.v C k q [.VXnXNXNXnXNXyX#.F S.hXVXNXNXNXNXNXNXNXNXNXNXNXNXNXNXNXNXNXNXNXNXNX",
"NXNXNXNXNXNXNXNXcXwXR.>./ K f l z , 2 F %.L l l u.,XVXNXcXVXNXNXbXcX#.C L 6XVXbXNXMXMXMXcXxXcXNXNXNXNXNXNXNXNXNXNXNXNXNX",
"NXNXNXNXNXNXNXNXwXY.p.b , g , , 2 T :.%.C d n %.lXcXNXNXNXNXNXnXNXcX7Xz l x.fXvXbXNXNXNXNXVXNXNXNXNXNXNXNXNXNXNXNXNXNXNX",
"NXNXNXNXNXNXNXNXK.K.S.t.v & Y f.A.P.t.C d d ^ I.iXaXlXxXnXnXnXnXNXlXcX$.= l W.hXxXbXbXnXNXNXMXMXNXNXNXNXNXNXNXNXNXNXNXNX",
"NXNXNXNXNXNXNXvX@.@.y.C.R.B.6XXXXXL. .C ( T R w.&XdXVXVXVXVXNXNXNXbXxX Xn J X.|.jXVXnXxXNXNXNXNXNXNXNXNXNXNXNXNXNXNXNXNX",
"NXNXNXNXNXNXNXvX9.; w 9 S @.@.e.f.V.g.C.K.b.9.9.7.w.q.{ W Q a w s uXcX5X/ f X.v.W.tXVXcXVXVXVXnXNXNXNXNXNXNXNXNXNXNXNXNX",
"NXNXNXNXNXNXNXNX].6 % & : 5 % % * 9 i i y 9 5 % & # o o + O . . & ,XVX7X/ - J 3.K ^.hXVXVXVXVXcXNXNXNXNXNXNXNXNXNXNXNXNX",
"NXNXNXNXNXNXNXNXlX!.Q 4 @ O $ o + + + + o O o     o $ 6 a s Q { oXVXcXfXK.^ K / J Z.fXNXNXcXNXnXNXNXNXNXNXNXNXNXNXNXNXNX",
"NXNXNXNXNXNXNXNXNXvXNXzX-Xz.q.{ W i i i 9 e p a W u.].eXlXNXNXNXxXxXnXbXcXyXE.^.N.+XgXnXNXMXNXnXNXNXNXNXNXNXNXNXNXNXNXNX",
"NXNXNXNXNXNXNXNXNXNXNXNXNXNXNXNXNXNXNXNXNXNXNXNXNXNXNXNXNXNXNXNXNXNXNXNXNXNXNXNXNXNXNXNXNXNXNXNXNXNXNXNXNXNXNXNXNXNXNXNX",
"NXNXNXNXNXNXNXNXNXNXNXNXNXNXNXNXNXNXNXNXNXNXNXNXNXNXNXNXNXNXNXNXNXNXNXNXNXNXNXNXNXNXNXNXNXNXNXNXNXNXNXNXNXNXNXNXNXNXNXNX",
"NXNXNXNXNXNXNXNXNXNXNXNXNXNXNXNXNXNXNXNXNXNXNXNXNXNXNXNXNXNXNXNXNXNXNXNXNXNXNXNXNXNXNXNXNXNXNXNXNXNXNXNXNXNXNXNXNXNXNXNX",
"NXNXNXNXNXNXNXNXNXNXNXNXNXNXNXNXNXNXNXNXNXNXNXNXNXNXNXNXNXNXNXNXNXNXNXNXNXNXNXNXNXNXNXNXNXNXNXNXNXNXNXNXNXNXNXNXNXNXNXNX"
};
