/* XPM */
static char *d541db4c5fbd422dd83ee559f71a422146JgWeuUifVDl5t4[] = {
/* columns rows colors chars-per-pixel */
"60 60 238 2 ",
"   c #160900",
".  c #1F1201",
"X  c #261404",
"o  c #2C1506",
"O  c #37220D",
"+  c #372A1A",
"@  c #432D1D",
"#  c #563718",
"$  c #4B301B",
"%  c #493925",
"&  c #583B25",
"*  c #623E20",
"=  c #5B442C",
"-  c #554634",
";  c #6A4829",
":  c #744B26",
">  c #79512D",
",  c #674B33",
"<  c #6E5233",
"1  c #6C533C",
"2  c #785738",
"3  c #665749",
"4  c #7A5E41",
"5  c #775C4C",
"6  c #7E6145",
"7  c #7C634B",
"8  c #786757",
"9  c #7F6E66",
"0  c #87572A",
"q  c #845D3B",
"w  c #845A36",
"e  c #905F39",
"r  c #854F21",
"t  c #8C633C",
"y  c #8B6236",
"u  c #90643D",
"i  c #966534",
"p  c #9F7B3D",
"a  c #AC7238",
"s  c #815A44",
"d  c #856343",
"f  c #8D6946",
"g  c #8A684A",
"h  c #936A45",
"j  c #926C4B",
"k  c #986B44",
"l  c #9C744C",
"z  c #977249",
"x  c #8B6C53",
"c  c #8A6D5C",
"v  c #826C57",
"b  c #986F5C",
"n  c #8D735B",
"m  c #957556",
"M  c #9B7552",
"N  c #9D7953",
"B  c #9C7B5C",
"V  c #92765C",
"C  c #A2754C",
"Z  c #A77948",
"A  c #B57E47",
"S  c #A57C54",
"D  c #A27D5C",
"F  c #A97659",
"G  c #856D61",
"H  c #8C7464",
"J  c #877566",
"K  c #937D6B",
"L  c #987A64",
"P  c #8A7C71",
"I  c #A67D66",
"U  c #968051",
"Y  c #A9834C",
"T  c #B8844C",
"R  c #AC845D",
"E  c #A98358",
"W  c #B38352",
"Q  c #B58A5D",
"!  c #B98959",
"~  c #BA915B",
"^  c #9B8269",
"/  c #8B8173",
"(  c #9B8472",
")  c #9B8A7B",
"_  c #9A8774",
"`  c #A38364",
"'  c #A98764",
"]  c #AC8963",
"[  c #A48669",
"{  c #A4896C",
"}  c #AA8A6B",
"|  c #AD846B",
" . c #B48C64",
".. c #B18E6B",
"X. c #BD8E63",
"o. c #AC9369",
"O. c #B69366",
"+. c #BC9367",
"@. c #B6926C",
"#. c #BB936D",
"$. c #AB8D72",
"%. c #A48B77",
"&. c #B28D75",
"*. c #B88A72",
"=. c #AE9174",
"-. c #A8927C",
";. c #B49374",
":. c #BB9572",
">. c #BD9A75",
",. c #B59A7D",
"<. c #BB9B7B",
"1. c #B2977C",
"2. c #BFA17F",
"3. c #C7925A",
"4. c #C48446",
"5. c #C49463",
"6. c #CC9964",
"7. c #C4966A",
"8. c #CD9C6B",
"9. c #C59B67",
"0. c #D29C65",
"q. c #C39B74",
"w. c #CC9D72",
"e. c #C19E7B",
"r. c #C49977",
"t. c #D09F76",
"y. c #CCA06E",
"u. c #DAA66C",
"i. c #C4A17D",
"p. c #CCA778",
"a. c #D4A473",
"s. c #DBA775",
"d. c #DCAD7B",
"f. c #D3A879",
"g. c #DAB37E",
"h. c #E6B67D",
"j. c #E2AE6F",
"k. c #9B8F84",
"l. c #9D958C",
"z. c #9B9184",
"x. c #AC9583",
"c. c #A99889",
"v. c #B59583",
"b. c #BB9D83",
"n. c #B69C88",
"m. c #A79C93",
"M. c #B59F91",
"N. c #BEA284",
"B. c #BCA48C",
"V. c #B4A288",
"C. c #B9A695",
"Z. c #B7ABA3",
"A. c #BFB3A7",
"S. c #C19D83",
"D. c #C3A484",
"F. c #CDA683",
"G. c #CFAA84",
"H. c #C2A38B",
"J. c #C4A98B",
"K. c #CBAC8C",
"L. c #CBA787",
"P. c #D4AC85",
"I. c #D5AE88",
"U. c #CDB38D",
"Y. c #D8B688",
"T. c #C3AE9A",
"R. c #C7AB95",
"E. c #CBB39A",
"W. c #D4B393",
"Q. c #D8BB96",
"!. c #E4B482",
"~. c #E2BA85",
"^. c #E4B58A",
"/. c #E3BD8B",
"(. c #EABB85",
"). c #E2BD92",
"_. c #E2B795",
"`. c #F1BF8A",
"'. c #C6AFA3",
"]. c #C5B5A3",
"[. c #CEBBAD",
"{. c #CAB7A8",
"}. c #D5BBA6",
"|. c #CBBCB4",
" X c #DCC099",
".X c #E7C69A",
"XX c #F2C996",
"oX c #DCCAB6",
"OX c #D6C5B7",
"+X c #D3C5B1",
"@X c #E3C6AE",
"#X c #E8C8A3",
"$X c #EED2AD",
"%X c #FCD8AE",
"&X c #E1CEBB",
"*X c #E3C2B1",
"=X c #E5D1B9",
"-X c #F7D8B9",
";X c #F2CFA7",
":X c #D3CCC2",
">X c #DBD5CC",
",X c #DCD8D2",
"<X c #E4D3C5",
"1X c #EBDBCB",
"2X c #E8D7C9",
"3X c #F4DECB",
"4X c #E8DBD2",
"5X c #F1DFD3",
"6X c #F8E3CA",
"7X c #EBE2D8",
"8X c #FDEADC",
"9X c #F9E8D7",
"0X c #FFF2D9",
"qX c #F4EBE3",
"wX c #FBEDE2",
"eX c #F6EFEA",
"rX c #FFF3E5",
"tX c #FFFAE4",
"yX c #F6F2ED",
"uX c #FEF4ED",
"iX c #FFFBED",
"pX c #EFF6FC",
"aX c #F4F4F4",
"sX c #FCF6F3",
"dX c #FFFCF4",
"fX c #F6FCFC",
"gX c #FAFEFF",
"hX c #FFFFFD",
"jX c #FFFEFD",
"kX c #FCFFFF",
"lX c #FFFEFF",
"zX c #FEFFFF",
"xX c white",
"cX c #FEFEFF",
"vX c #FEFDFE",
"bX c #FFFFFE",
"nX c #F7F7FA",
"mX c #EAE7E0",
/* pixels */
"xXxXxXxXxXxXxXxXxXxXxXxXxXxXxXxXvXxXxXjXxXxXxXgXxXxXvXxXnXxXjXjXjXjXjXxXgXgXgXgXxXdXxXjXxXxXgXxXxXxXxXxXxXxXxXxXxXxXxXxX",
"xXxXxXxXxXxXxXxXxXxXxXxXxXxXxXxXxXxXxXxXnXaXxXxXxXaXvXxXxXxXdXjXjXjXxXgXgXgXaXnXxXxXjXdXxXxXxXgXxXxXxXxXxXxXxXxXxXxXxXxX",
"xXxXxXxXxXxXxXxXxXxXxXxXxXxXxXxXxXnXxXxXjXjXxXnXxXxXxXxXaXxXxXjXjXxXxXxXxXnXjXjXsXdXjXjXnXxXxXxXxXxXxXxXxXxXxXxXxXxXxXxX",
"xXxXxXxXxXxXxXxXxXxXxXxXxXxXxXxXxXxXxXxXjXjX7X,XdXxXaXxXxXxXjXxXxXxXnXxXnXjXjXyX:X>X7XjXjXjXxXxXxXxXxXxXxXxXxXxXxXxXxXxX",
"xXxXxXxXxXxXxXxXxXxXxXxXxXxXxXxXxXxXnXnXjXmXl.m.l.qXjXyXxXgXgXgXgXnXxXxXjXyXqXm.Z.m.Z.eXjXxXxXnXxXxXxXxXxXxXxXxXxXxXxXxX",
"xXxXxXxXxXxXxXxXxXxXxXxXxXxXxXxXgXxXnXjXjXOX3 P Z.9 |.dXeXxXfXfXfXxXxXsXjX4XG C.c.) c.qXjXxXxXxXxXxXxXxXxXxXxXxXxXxXxXxX",
"xXxXxXxXxXxXxXxXxXxXxXxXxXxXxXxXgXxXgXxXjX:X3 J H M.G OXdXaXgXgXgXnXxXsX4X8 {.x.x.%.M.uXdXdXxXxXxXxXxXxXxXxXxXxXxXxXxXxX",
"xXxXxXxXxXxXxXxXxXxXxXxXxXxXxXxXxXxXxXjXdX4X8 H c H v.G wXjXxXgXgXxXjXqXJ T.n.H.n.x.C.dXjXxXxXnXxXxXxXxXxXxXxXxXxXxXxXxX",
"xXxXxXxXxXxXxXxXxXxXxXxXxXxXxXxXxXxXvXxXjXrXG c | b I L x.dXjXxXxXxXdXJ H @XH.H.n.( [.dXsXjXdXxXxXxXxXxXxXxXxXxXxXxXxXxX",
"xXxXxXxXxXxXxXxXxXxXxXxXxXxXxXxXvXxXvXxXdXsXJ H I | I &.5 2XsXsXxXjX|.@ %.}.W.b.v.K <XdXdXxXxXxXxXxXxXxXxXxXxXxXxXxXxXxX",
"xXxXxXxXxXxXxXxXxXxXxXxXxXxXxXxXdXvXxXvXdXdX) c | F F *.s K dXdXdXuX3 $ S.#XL.<.%.( wXjXjXxXxXxXxXxXxXxXxXxXxXxXxXxXxXxX",
"xXxXxXxXxXxXxXxXxXxXxXxXxXxXxXxXvXvXxXvXjXdX'.5 I I F *.s x 2XrXrX{.& & L._.F.| V M.dXjXxXjXxXxXxXxXxXxXxXxXxXxXxXxXxXxX",
"xXxXxXxXxXxXxXxXxXxXxXxXxXxXxXxXdXvXxXxXxXjX5X5 D F F F w x n.tXtXv # q P.P.t.{ c oXjXxXxXxXxXxXxXxXxXxXxXxXxXxXxXxXxXxX",
"xXxXxXxXxXxXxXxXxXxXxXxXxXxXxXxXjXdXxXxXgXdXdX( g j e C w ; ^ tX3X& * h f.P.#.m %.rXdXxXxXxXxXjXxXxXxXxXxXxXxXxXxXxXxXxX",
"xXxXxXxXxXxXxXxXxXxXxXxXxXxXxXxXjXjXgXgXgXjXdXOX2 l 0 C : > 4 V x * h : 7.t.7.g oXdXdXxXgXxXxXjXxXxXxXxXxXxXxXxXxXxXxXxX",
"xXxXxXxXxXxXxXxXxXxXxXxXxXxXxXxXxXxXgXgXgXxXdXiXx.< j > w q > ; # w u C 7.q.` E.tXdXdXxXjXxXjXjXxXxXxXxXxXxXxXxXxXxXxXxX",
"xXxXxXxXxXxXxXxXxXxXxXxXxXxXxXxXxXxXxXxXxXxXxXjXdXP 7 6 j h y 0 0 0 Z E o.o.+XdXjXjXjXdXdXdXdXjXxXxXxXxXxXxXxXxXxXxXxXxX",
"xXxXxXxXxXxXxXxXxXxXxXxXxXxXxXxXxXxXxXxXxXxXxXxXxXeX8 v &.S 0 r r i 0 P.U.V.rXjXxXxXjXjXdXdXjXjXxXxXxXxXxXxXxXxXxXxXxXxX",
"xXxXxXxXxXxXxXxXxXxXxXxXxXxXxXxXxXxXxXxXxXxXxXxXaXjXl.8 $.q > w 0 e y >.{ E.dXvXxXxXxXxXxXxXxXxXxXxXxXxXxXxXxXxXxXxXxXxX",
"xXxXxXxXxXxXxXxXxXxXxXxXxXxXxXxXxXxXxXxXxXxXxXxXxXyXA.3 1 B : u h u h #X= {.yXxXxXxXxXxXxXxXxXxXxXxXxXxXxXxXxXxXxXxXxXxX",
"xXxXxXxXxXxXxXxXxXxXxXxXxXxXxXxXxXxXjXjXjXjXxXxXjXjX>X% = { 2 h j M E #X# ( jXvXxXxXxXxXxXxXxXxXxXxXxXxXxXxXxXxXxXxXxXxX",
"xXxXxXxXxXxXxXxXxXxXxXxXxXxXxXxXxXxXxXxXjXjXjXjXdXjX:X- v n ` M k  .O.#X< _ dXxXxXxXxXxXxXxXxXxXxXxXxXxXxXxXxXxXxXxXxXxX",
"xXxXxXxXxXxXxXxXxXxXxXxXxXxXxXxXxXxXxXxXxXjXjXjXjX>X/ 8 ( $.} l C C p.XXY.^ oXdXxXxXxXxXjXxXxXxXxXxXxXxXxXxXxXxXxXxXxXxX",
"xXxXxXxXxXxXxXxXxXxXxXxXxXxXxXxXgXgXxXxXxXjXjXdXeXl.8 - L [ g t y S ~ g.Y.U %.1XdXjXjXjXjXdXjXxXxXxXxXxXxXxXxXxXxXxXxXxX",
"xXxXxXxXxXxXxXxXxXxXxXxXxXxXxXxXgXpXgXxXjXsXdXdX{.k.J , x m ; h u k Y p p.O.{ ].iXdXdXdXdXdXjXjXxXxXxXxXxXxXxXxXxXxXxXxX",
"xXxXxXxXxXxXxXxXxXxXxXxXxXxXxXxXpXgXxXnXjXdXuXiX[.-.n , m j q.R q C ~.9.Y +.W.V.dXdXjXdXdXdXjXjXxXxXxXxXxXxXxXxXxXxXxXxX",
"xXxXxXxXxXxXxXxXxXxXxXxXxXxXxXxXxXfXnXdXdXdXrX3Xx.K v < g ; @.M w r.%Xy.Y O.W.'.dXvXxXxXxXxXvXxXxXxXxXxXxXxXxXxXxXxXxXxX",
"xXxXxXxXxXxXxXxXxXxXxXxXxXxXxXxXxXdXdXrX].%._ L B.{ 7 < x 2 d D b &.:.S w.q.;.{.dXvXxXxXxXxXvXvXxXxXxXxXxXxXxXxXxXxXxXxX",
"xXxXxXxXxXxXxXxXxXxXxXxXxXxXxXjXdXiX2X-.7 7 L b.J.b.L n [ B d ;.L I :.q.Y.G.R.8XdXxXxXgXxXxXxXxXxXxXxXxXxXxXxXxXxXxXxXxX",
"xXxXxXxXxXxXxXxXxXxXxXxXxXxXxXjXiX&X%.6 d B ..;.} { { 1.}.@X-X-X}.*X-X%X%X;X@X8XjXxXgXgXgXxXxXxXxXxXxXxXxXxXxXxXxXxXxXxX",
"xXxXxXxXxXxXxXxXxXxXxXxXxXxXxXdX1X$.d d h  .F.i...6 , 1 H %.B.K c 1.W.I.g.Y.Q.6XdXxXgXgXgXjXjXxXxXxXxXxXxXxXxXxXxXxXxXxX",
"xXxXxXxXxXxXxXxXxXxXvXxXjXjXdXwXK j w t R q.q.:...d d < , < 2 4 4 2 z R 9.~..X=XdXjXgXgXjXjXjXjXxXxXxXxXxXxXxXxXxXxXxXxX",
"jXjXxXxXxXxXxXgXxXaXxXjXuXdXuXx.g 2 2 M ] i.>.@.] S h w l k k k l E ~ 6.u.h.XXQ.wXjXxXgXjXjXxXdXxXxXxXxXxXxXxXxXxXxXxXxX",
"jXjXxXxXxXxXgXgXgXxXjXdXdX8X].c g > j ` <.i.e.] ] E l Z W Z Z T T ! 8.u.u.j.h.).9XdXvXgXjXjXxXxXxXxXxXxXxXxXxXxXxXxXxXxX",
"jXjXxXxXxXxXxXxXxXjXdXuX8XC.H x 2 > D ;.e.i.i...@. .S Q ! 5.W ! 3.3.8.s.j.u.h..X3XsXxXxXgXjXxXxXxXxXxXxXxXxXxXxXxXxXxXxX",
"xXxXxXxXxXxXxXxXxXjXdX9XT.n n x ; g ..<.;.D.>.>.@.@.Q Q ~ 8.5.W 6.5.6.s.h.h.~..X9XdXxXxXgXjXxXxXxXxXxXxXxXxXxXxXxXxXxXxX",
"xXxXxXxXxXxXxXxXdXdXdX&Xx.^ [ 2 ; ` e.;.;.K.;.<.R ] O.R Q 5.8.5.8.a.a.s.h.(./. X8XdXxXxXgXjXxXxXxXxXxXxXxXxXxXxXxXxXxXxX",
"xXxXxXxXxXxXxXxXjXdX9X{.n.^ m 2 2 [ L.[ N.U.,.:.' D ] R  .Q 7.9.5.s.d.s.d.~.).#XrXjXvXgXgXxXxXxXxXxXxXxXxXxXxXxXxXxXxXxX",
"xXxXxXxXxXxXxXjXjXdX2XT.,.m f f d ` J.} ,.U.D.<.@.R R  .Q Q +.X.~ d.d.f.g./..X-XrXjXvXxXxXxXxXxXxXxXxXxXxXxXxXxXxXxXxXxX",
"xXxXxXxXxXxXxXjXdXdX1XB.$.D N q B } K.b.` L.D.D...@.:.#.S  .+.7.y.!.d.f./..X$X6XtXjXxXxXxXgXxXxXxXxXxXxXxXxXxXxXxXxXxXxX",
"xXxXxXxXxXxXxXjXdXiXoXR.N.' l f I $.K.<.} ,.2.D.D.i.>.#.>.q.q.+.a.8.f.XX).%X$X8XdXjXxXxXxXxXxXxXxXxXxXxXxXxXxXxXxXxXxXxX",
"xXxXxXxXxXxXxXjXdXdX&XT.N.' M g L $.N.D.$.` } ;.e.i.i.i.q.q.q.q.w.a.f./..X$X=XtXdXjXxXxXxXxXxXxXxXxXxXxXxXxXxXxXxXxXxXxX",
"xXxXxXxXxXxXxXjXjXdX<XT.H.;.R j L $.;.J.,.m B ' :.e.G.Y.F.i.F.I.f.^.g./..X X&XiXdXjXxXxXxXxXxXxXxXxXxXxXxXxXxXxXxXxXxXxX",
"xXxXxXxXxXxXxXxXjXdX<XC.n.D.;.D ^ { } N.D.` M B ] ] q.I.P.i.P.I.^.XX~.Y.Q.E.2XdXdXjXxXxXxXxXxXjXxXxXxXxXxXxXxXxXxXxXxXxX",
"xXxXxXxXxXxXxXxXxXsX<XC.x.H.D.;.$.` { ;.L.<.N z D N  .P.P.P.I.I.^.^.g.Y.U.}.rXdXdXdXxXxXxXxXxXjXxXxXxXxXxXxXxXxXxXxXxXxX",
"xXxXxXxXxXxXxXxXjXjX9X].x.B.R.J.<.} } { i.K.' f N l ..P.G.F.G.t.w.w.y.p.N.oXdXdXdXdXxXxXxXxXxXjXxXxXxXxXxXxXxXxXxXxXxXxX",
"xXxXxXxXxXxXxXxXxXjXdXoXC.T.R.R.b.,.$.} <.W.e.N z l >.P.q.@.@.R X.7.9.p.J.6XdXdXdXdXxXxXvXvXxXjXxXxXxXxXxXxXxXxXxXxXxXxX",
"xXxXxXxXxXxXxXxXxXxXdX2X[.}.E.H.b.b.=.=.<.W.Q...l R P.).q.' ' D Q 6.y.p.Q.tXdXjXdXjXxXxXxXxXxXjXxXxXxXxXxXxXxXxXxXxXxXxX",
"xXxXxXxXxXxXxXxXxXjXjXdX{.M.}.E.b.v.-.-.x.R.W.>.E 9.h.XXp.' 1.;.W 0.6.f.#X8XiXdXjXjXxXxXxXxXxXxXxXxXxXxXxXxXxXxXxXxXxXxX",
"xXxXxXxXxXxXxXxXdXjXuXuX5X_ H n.v.x.%.) _ _ N.Q.W ! 6.(.f.<.C.b.Z 3.0.d.P.W.&XtXdXjXxXxXxXxXxXxXxXxXxXxXxXxXxXxXxXxXxXxX",
"xXxXxXxXxXxXxXxXxXjXdXiX<XK , , n ( ) ( K ^ =.F.Z T 6.XXP.i.C.,.T A T a.I.K.E.7XdXjXxXxXxXxXxXxXxXxXxXxXxXxXxXxXxXxXxXxX",
"xXxXxXxXxXxXxXxXdXyXdX7XC._ 1 O O & 5 8 8 7 B Y.Z a T !.p.} K 6 A a A 6.p.,.1.+XdXjXxXxXxXxXxXxXxXxXxXxXxXxXxXxXxXxXxXxX",
"jXjXjXxXxXxXxXxXjXdXiXA.c.v = @ @ .   + - % < P.W A 3.(.>.4 5 2 T 4.3.8.q.L.B.[.dXjXxXxXxXxXxXxXxXxXxXxXxXxXxXxXxXxXxXxX",
"jXjXjXjXxXxXxXxXjXjXiXz./ % O o X       . X ; Q.9.8.8.7.#X0XrX1.i i A 7.).0XtXiXdXjXxXxXxXxXxXxXxXxXxXxXxXxXxXxXxXxXxXxX",
"jXjXxXxXxXxXxXxXxXdXdX:XA.) ) G k.Z.,X7X7XoXB.U.f.Q Q q.6XtXiXC.t i Q #.i.6XtXdXdXjXxXxXxXxXxXxXxXxXxXxXxXxXxXxXxXxXxXxX",
"xXxXxXxXxXxXxXxXxXdXdXdXuXiXiXdXjXdXxXdXdXrXE.N.] ] >.;.6XiXdXz.< : M [ { &XuXdXjXxXxXxXxXxXxXxXxXxXxXxXxXxXxXxXxXxXxXxX",
"xXxXxXxXxXxXxXxXxXxXjXjXdXdXdXdXxXgXgXxXjXqX+XV.1.b.J.}.9XdXdX,XT.R.E.+X2XqXdXjXxXxXxXxXxXxXxXxXxXxXxXxXxXxXxXxXxXxXxXxX",
"xXxXxXxXxXxXxXxXxXxXxXxXjXjXdXvXgXgXgXxXxXjXdXrX0XtXtXiXdXdXxXjXdXiXiXdXdXjXjXxXxXxXxXxXxXxXxXxXxXxXxXxXxXxXxXxXxXxXxXxX",
"xXxXxXxXxXxXxXxXxXxXxXxXxXxXxXxXgXgXgXgXgXnXdXdXiXiXdXdXdXaXfXgXnXdXdXnXgXgXgXnXxXxXxXxXxXxXxXxXxXxXxXxXxXxXxXxXxXxXxXxX",
"xXxXxXxXxXxXxXxXxXxXxXxXxXxXxXxXgXgXgXgXgXxXjXdXdXdXdXjXxXxXgXgXgXxXxXxXgXgXgXgXxXxXxXxXxXxXjXjXxXxXxXxXxXxXxXxXxXxXxXxX"
};
