/* XPM */
static char *af26c798d05e4ce98b9379347f3c8b42QT7mL3FFSteNXM8O[] = {
/* columns rows colors chars-per-pixel */
"64 64 101 2 ",
"   c #080A0E",
".  c #0C0D15",
"X  c #0E0F19",
"o  c #100F16",
"O  c #110F1A",
"+  c #0E1016",
"@  c #0E111A",
"#  c #101116",
"$  c #12131C",
"%  c #14181F",
"&  c #0F1320",
"*  c #141621",
"=  c #181723",
"-  c #161924",
";  c #191A26",
":  c #161C2A",
">  c #1A1D2B",
",  c #1B1F31",
"<  c #17202C",
"1  c #1B212E",
"2  c #1D2433",
"3  c #1F2836",
"4  c #1F2638",
"5  c #1F2738",
"6  c #1F283A",
"7  c #21222F",
"8  c #202432",
"9  c #212535",
"0  c #202737",
"q  c #212837",
"w  c #252836",
"e  c #212639",
"r  c #232A3C",
"t  c #232B3D",
"y  c #282E3F",
"u  c #27303F",
"i  c #29303F",
"p  c #262D40",
"a  c #272E40",
"s  c #292F43",
"d  c #292E48",
"f  c #2B3144",
"g  c #293246",
"h  c #2E3445",
"j  c #2D3449",
"k  c #303547",
"l  c #31354A",
"z  c #34374A",
"x  c #31364C",
"c  c #33394D",
"v  c #353C52",
"b  c #3A3E55",
"n  c #363F5A",
"m  c #3B3F58",
"M  c #3A3F59",
"N  c #403F57",
"B  c #394052",
"V  c #3A4057",
"C  c #3B4256",
"Z  c #3D4055",
"A  c #3B4158",
"S  c #3C4059",
"D  c #3C4359",
"F  c #3E4559",
"G  c #3B415C",
"H  c #3D425C",
"J  c #3D445F",
"K  c #3F485F",
"L  c #3E4661",
"P  c #3F4462",
"I  c #3F4862",
"U  c #40435C",
"Y  c #40445C",
"T  c #41465E",
"R  c #44475F",
"E  c #41485F",
"W  c #434760",
"Q  c #434766",
"!  c #414860",
"~  c #434961",
"^  c #434867",
"/  c #454867",
"(  c #454C65",
")  c #454C66",
"_  c #484B62",
"`  c #4A4D65",
"'  c #454A6A",
"]  c #464D69",
"[  c #474E6D",
"{  c #494E6B",
"}  c #47506C",
"|  c #4A516D",
" . c #484F73",
".. c #4C5371",
"X. c #4E5271",
"o. c #4F5875",
"O. c #515672",
"+. c #515676",
"@. c #535A77",
"#. c #515779",
"$. c #54597C",
/* pixels */
"$ . z s - ; ; ; - ; - ; - ; ; ; ; ; @ V f 2 3 3 2 2 2 3 3 3 2 2 3 2 , * U w > > > > 1 > 1 1 > 1 > > 1 ; * T ; % * * * * % % * * ",
". . l a - - * % % % * % - * - * * $ @ Z a 2 1 1 > > > < : < < < > ; * - T 8 > > ; - ; ; ; ; ; ; > - * * $ R - % $ $ $ $ $ $ $ $ ",
"; ; Z l > > > > > > > > ; > ; > > > > W j 3 2 2 2 2 2 , 2 , 2 2 2 2 2 2 ( r 2 2 > > , , > 1 > , > < < > 2 _ 2 > - : : : - ; - - ",
"A A J G S V A M S A A H O.J ! W W ! ! ' ! ^ ^ Q / ' / Q ' ..P W W J W W ^ W T J T ! T T T ( { S S S Z U Z W S S Z S S S S M ' [ ",
"$ $ $ $ $ $ $ $ $ $ $ * F 2 3 0 3 2 2 4 2 3 3 3 4 3 0 3 3 B : < < < 1 < < > < < < < 2 1 : r h * * - % ; = * = * * - - - - @ s j ",
"% * - * * * - - * - $ * W 3 r e e e e e 0 e e e e q e 1 3 S < 1 2 1 2 2 2 2 2 2 2 2 2 2 : r h - ; ; ; ; ; ; ; ; ; ; - - ; @ f c ",
"% - $ * - % * * - * $ * T 3 r e r q e e e e e e e r r > e H < 2 3 2 1 1 1 2 2 1 1 1 1 1 * r z - ; ; - ; = ; ; ; ; : : ; ; . f v ",
"$ @ @ @ $ @ $ $ $ @ . * W 3 e 2 2 1 2 2 2 2 2 2 2 2 : - 0 Z > 1 > > > > > > > > : > - * & r l - - - * * * * * * * * * * $ . f v ",
"- ; ; ; ; ; ; > > ; ; 2 ( e r 3 0 8 2 2 2 0 8 0 8 0 8 e f ^ 2 8 2 1 1 2 > 2 2 2 2 2 2 2 2 l b 1 > > > > > ; > > > > > > > : v n ",
"{ ] @.] ] } ] ] ] ] ] ] ..] { | [ ] ] ..H A A A S F V A S J B V V V B J ..S V S S S G A F J J V S F A A ^ ..J J J J J P F F ! ! ",
"f e ( s y f r y r s r a a r f a s s 3 Z $ $ $ $ @ @ @ . + @ + # @ $ # - b $ $ $ $ $ $ $ $ $ $ $ $ $ $ @ 2 M ; > ; ; ; ; ; ; ; ; ",
"a 2 ] f f f s y r f r f r u f r f r 2 S $ $ $ $ $ + @ $ $ $ $ @ @ $ . - V $ $ $ $ * $ $ $ $ $ $ $ @ $ . 2 S > > ; > > ; > > ; ; ",
"r 2 } h f f y y s s f f f f u u u 0 2 S $ $ $ $ # + + # $ $ $ $ $ $ . - Z $ $ $ $ $ $ $ $ $ $ $ $ $ $ . 1 S > > ; ; ; ; ; ; > > ",
"> 2 { f s r r e r e r r r r r e 2 > 2 H $ @ $ . . . . . . . . . . . . - M * $ $ $ @ $ $ $ $ @ $ $ $ . . 1 S ; ; ; - - - * - - - ",
"e r ..f a r e e r e e r r r e r e e r ! > : : - - - - - - : - - - - - 2 T > > : : : ; - - : : : : - - - r J 2 1 1 > < > > 1 1 > ",
"{ |  .{ { } ] | | | | { ] @.! J J T T W S S J H H J J T T J @./ ^ / / ( [ / / / / / ( / / / / ..M Z Z Z S P S Z Z Z Z S S Z M ! ",
"f f f s f f s f f f f f 4 W > - - - : - - - - - - - - - - * / r r e e r e r e e e e r e e 3 e V X @ @ @ @ @ @ X @ @ @ $ @ $ . 0 ",
"a f f f y f s f s a f a > ! > ; ; - * - - - - * - - - - * * ( e r e e e e e 0 q q q q 0 e 2 2 V O $ $ $ $ $ $ $ $ $ $ $ @ @ . 2 ",
"f f f s f f f f f h f r 2 W > - - * - * * - - - - - - - $ * ( r e r e e e e e r e e e e e > 3 A X $ $ $ $ $ $ $ $ $ $ $ @ X . 0 ",
"r r e r r r r r r r 0 2 2 / > - - * $ $ $ * % * * * * $ X * ` r e 0 3 2 2 2 2 2 2 0 3 3 > : 2 V $ $ $ . . . . . . + . # + .   8 ",
"r r r r e r e r e r r r r { 8 > > > > > > > > > > > > > > 2 { r r e 3 4 0 0 3 0 0 0 0 e 0 8 s J ; - - - ; ; - - - - - - - - - f ",
"W ! ! E ! ! E E ! ! ! ! / ] ! T +.W Q ^ ! ! ! ! ! ^ ^ ! / W ] ^ ^ #.( ] } ] ] ( ] ] | { { { { | ] { ..Q / / ^ ^ / Q ^ ^ ^ / / / ",
"2 2 3 2 2 2 2 2 2 2 2 3 3 2 2 > ! 0 0 e 0 q 0 0 3 0 8 3 e e e 3 3 / a f h f f f f f j f f j f f f f A 4 r e e r r r e r r r r r ",
"e 3 0 3 2 3 q 2 2 2 2 2 2 0 > : / e r r e e e e e e q e e 3 r 1 2 / f j h f h h h f h j j j f j r s P e r r r r r r r r r r r r ",
"r 2 q 0 3 3 3 3 0 0 3 3 3 0 ; > / e e e e 3 e e e e e e e r e > 2 ] f j l f f h f j j j f j j f 0 f P r r r r r r r r r r r a r ",
"q 2 2 2 > > 1 > > < < 2 < : * : / w 0 0 8 1 2 8 2 2 2 2 2 2 > : 2 { a f u r r r r r a r s s r 3 2 f P q q e 3 3 3 3 3 3 0 3 0 3 ",
"a 0 8 3 2 2 2 2 2 2 2 2 0 1 2 r { r r e e e e 8 0 0 8 e 0 e 8 2 s } s f r r r a r r a a r r r r a v W r r e e e e 4 e e r 4 r e ",
"I ! W W ! ! W W ! I ! ! +./ / ( [ ] ^ ( ^ ( / ' ] ] ^ / ( +.! / { { ( ( ( ( ] ] { ] ] ] ( } | F J ! ^ T ! W W W W T W ! ! F [ } ",
"2 2 2 2 2 2 2 8 2 2 2 , J 4 r r e e e r e r e e r e r e r P 3 r r r a r r r r r r r r r e d c : > 1 : < < 1 : 1 1 < < 1 > * f j ",
"2 2 8 2 2 2 2 3 2 2 1 > ! e a y r r r r r a r r r r r 2 e W r r s y r y a a a s s s y r 2 f v < < < > 2 2 2 2 2 2 2 2 < > $ j v ",
"3 0 3 3 3 2 2 3 3 8 > > / r r r r r r r r r r r a a r 2 r ' r f s s r s r s s f r s f y > f v < 2 1 < < < < 1 1 < < 1 1 > $ k c ",
": : > > 1 < : < < - * > / 4 e q 2 2 8 0 2 0 0 3 3 3 : : e Q q r r e e 0 0 0 0 0 0 q 3 > : f v > > > - - : - - : ; > ; - * X f l ",
"2 2 2 2 2 2 3 3 3 2 2 r { r r e e e e e 3 e 4 e e e e 4 j ] r a e e r e 0 e r e r r e 4 4 v A 3 3 2 2 2 2 2 2 < 2 2 < 2 2 > v v ",
"{ / / @.! / / / ' / ( / ] ] ( { ' ] / } o.! ! ! ! ! ^ ! / ' ! ^ ! ! ^ ! } ..P W W W W W W / / W W ! W W T | | ( { / ( ] / ( ] ] ",
"r e 3 ! 3 e e 0 e e e q 3 q 0 e e e 3 r V : 1 1 > > > > > 1 1 1 1 1 1 > y l - > > > > > > > > > > > > > - k j 3 e e q e e e q e ",
"r 2 2 ! e e e 3 0 q e 3 e 3 e 3 3 e < 0 b > > 1 > > > 1 > > > > > > ; * y c ; > > ; ; > > > > > > ; ; ; @ f c e e q q e q q q q ",
"r < 2 ( e r e 0 0 e e e e e e e e e ; r A > > 1 > > 1 > > > 1 > > > > * s c ; > > > ; > > > > > > > > ; & j v q e e q q 3 e e e ",
"< : 2 ! 3 3 2 2 1 > 2 1 1 1 1 1 1 : % r B ; > ; ; = ; ; ; ; ; ; ; ; $ @ s c ; ; = - * * = * ; - - = - $ @ k c 8 8 8 < 1 2 2 1 2 ",
"4 2 a { r e 2 0 0 8 2 3 0 3 8 0 0 2 2 f J 2 2 2 < 1 1 < > < < 1 < > > > c b 1 2 1 > > < > 2 : < < < < < < v v e 0 0 0 8 0 8 8 8 ",
"S V A H Z S Z S S b Q +./ ^ / / / / / / ] ^ / ^ / ! R | | ! ! ( ! ! ! ( ^ ( ! / ( / / ! ..! b b b b b b b A A b b b b M A ..P V ",
"* $ * * $ $ $ $ $ $ > ! e r e e e e e e r e r r e r 8 j A r r r r e r e e r e r e r r 2 b e X $ X O O $ X X O O O $ $ $ . Z 2 $ ",
"$ * * * * * % % * @ > / r r r e r r r e e r r e e r > j J r r r r r r r r r r r e r r : n q $ $ $ $ $ $ $ $ @ $ @ @ $ O . b 8 - ",
"$ $ $ % % % * * * . , / r r r r e e r r r r e r r e : f J e r r r e r r r r r r r r e : n e X $ @ @ $ $ $ $ O $ $ $ $ . . b 3 * ",
"$ $ $ $ $ $ $ $ @ . > / r e 0 8 2 3 0 3 0 0 e 0 3 > - j U r r e 0 2 8 0 0 q q 0 0 0 ; : M 0 X $ @ $ O $ . . + . + + . . . N 8 % ",
"; : ; ; ; : : ; ; ; y { r e 0 0 0 e 2 0 0 0 e 0 0 e 8 v W a r r 4 e w 0 3 e 4 e e 0 0 0 T i - ; ; - : - - ; - - - - - - ; R r > ",
"T W W W W W W J I P ^ ' ^ ^ W | ] V A A A S S Z A H S J J A V A } ^ S Z A A A A A A A A W V b Z b | Q S F J J J H H H S S Q T J ",
": 2 2 2 2 2 2 2 2 2 1 2 2 2 > s y $ $ $ $ $ $ $ $ $ $ $ $ $ $ @ f 2 @ $ @ $ $ $ $ $ $ $ $ $ $ $ . c e ; > ; - - - - ; ; ; > ; - ",
"2 q q 3 3 3 0 0 3 3 3 3 3 0 : f f % - - - - - * - - - - - - - @ h q - % % % % % $ % % % % % * % . v r 1 1 > > > > > 1 > > > > > ",
"2 e e e 3 0 0 0 e 0 0 e e 2 - j f $ * - * * * * - - - - - - * @ j e * % - * * * * * * * * * * $ . b r > 1 > > > > 1 1 > 1 > > > ",
"2 2 2 2 > > > 1 2 1 2 > > - * f f $ % % $ @ $ $ $ $ $ $ $ $ o . f q $ $ $ $ $ $ $ $ $ $ $ $ $ . . b w > ; ; ; ; ; ; ; ; ; - ; - ",
"4 e 3 3 2 3 3 3 3 3 3 0 0 8 0 v c 1 > > > : > : > > > > > > ; , b f > > > > > > > > > ; ; ; ; > ; T y 0 2 2 < < < < 1 2 2 > 2 < ",
"^ ^ / / ( ( ^ ] ^ ] | J ! W I ' I J J W W I P J I J | ! S S S S W J S H H S S S H H M ..{ ' ] ( ( } ] ] ] ] { ] ] ( ] ^ o.J M A ",
"e e e e e r e e 3 f j > < < : < < < < < < < < < 2 - l r - - - * * - - * - * - - - - . b h r a r a s a a a s s a a a a , J - $ $ ",
"r r r r r r r r , j c > 1 < < 2 2 < < < 2 2 < < < * l r - - - - - - - - - - ; - - - . b x f f r s f f s s s s f a f r : P ; * % ",
"r r r r r r r e : j c 1 2 2 < < < < 1 2 1 1 2 1 > * c r - - - - - - - - - - - - - % . V c f f f s a s s f s s s f f 0 : J ; % % ",
"3 3 3 3 3 3 2 : - j c > < > : : : > > > > > : : * $ c r - * * * $ * * * * * * * $ @ . A l s r e e 4 e e r e r r e 3 : : K ; % $ ",
"3 3 3 3 3 3 3 3 4 n n 3 3 2 2 2 2 2 2 8 2 2 2 2 1 < V f 1 > > > > > > > > > > > > > : W c r r r r r r e r e r r r r e e ( 7 > > ",
"| ..| | | | ......o.........| $./ W T T T T T T T T T W W T U T $...| ....| | | { | ............| $.{ { { ] ] { { { { { | [ { { ",
"f j f f f f f f f f f f f f e T - @ @ $ $ @ $ $ $ $ $ $ @ $ $ + ! f s f s u f u r r r u f s f r 3 ( 0 3 3 2 2 3 3 2 2 3 3 4 4 3 ",
"f f f s f f s f f s f s f f , H : $ # o . O @ @ @ @ @ O X $ . . ! f s s r r a s a s a s s r s e 2 / e 3 3 3 3 3 3 3 3 3 3 3 2 e ",
"f f f f f f f f f f f f f r < T : @ @ $ $ $ O $ $ O $ $ @ + . . ! j r f a r a a a s s s a f s 3 2 ] 0 q 3 2 2 3 3 3 0 2 2 2 2 3 ",
"f s r e e r r r r r r r e : > U - @ + . . . . . + . . . . . . . ! f s r e 3 3 e e e e e e e 2 < 2 / 0 2 2 > > > > < 1 > 1 < < : ",
"s r e e r r 4 a r a a a r r r ! 8 - - * = - - - - * - - - - - > ` h a r 6 e e e e e e e e e e q r | r e 2 2 2 2 2 2 2 2 2 2 2 2 ",
"A M | ' H J A J A J S S J A J J A A J ..( P I I I I I I ! I ! P ^ I ! ! o.! K J J J J P W W W T T / T E F +.G A A A A A A A S S "
};
