/* XPM */
static char *_eda4dc9a5744809944bd17217a0606dYIQsn8Eb9NieVkIb[] = {
/* columns rows colors chars-per-pixel */
"100 100 60 1 ",
"  c #0D0603",
". c #0F0804",
"X c #130A06",
"o c #1A0D06",
"O c #160D09",
"+ c #1A0E09",
"@ c #1E1007",
"# c #1D110B",+
"$ c #1F1510",
"% c #220F06",
"& c #210F08",
"* c #241107",
"= c #2C1307",
"- c #24130B",
"; c #2B1408",
": c #2A1409",
"> c #2B140A",
", c #2A160B",
"< c #2D1408",
"1 c #2C140B",
"2 c #2C160B",
"3 c #28140C",
"4 c #2A150C",
"5 c #2B170E",
"6 c #2C160C",
"7 c #27180F",
"8 c #2F180B",
"9 c #2D190F",
"0 c #311607",
"q c #341906",
"w c #381D07",
"e c #31170B",
"r c #30170C",
"t c #31180A",
"y c #31180B",
"u c #331B0B",
"i c #351B0B",
"p c #351C0B",
"a c #311A0D",
"s c #321A0E",
"d c #341B0D",
"f c #371C0C",
"g c #381E0C",
"h c #211510",
"j c #241610",
"k c #291610",
"l c #291711",
"z c #261911",
"x c #2E1810",
"c c #2D1A11",
"v c #321D11",
"b c #381F10",
"n c #36200E",
"m c #39210E",
"M c #2F2115",
"N c #352114",
"B c #392312",
"V c #352419",
"C c #39261A",
"Z c #3B281A",
/* pixels */
"$+OOOXXXXXXXXXOOOOOXO#h#+OOXOOOOOXXXXXXOOOO+@#+OOOOOXXXXXXXXXXXXXX+#+OOXXXXXXXX.XOO+OXXX+-#++++@++oo",
"99446262628+O6x6446944*7474474--h#O:a6:6:6646466269aadai@+pda2a6a4:44::22eeeyi:O*yay2:*:*:44744:2::2",
"9962996226a@+6644444744477ll7--hh-O:yy2ry22:2:666666agdp--fffafy2444*46aaaa6ai:O:fd2::-:*:4:444a2222",
"96998229aaa@+644447744777-77---h--O:pyyyye22::64:2222aff--fffdfy64644:6942aadd:O*a944::****464222222",
"6996aaaa2aa@+64444777-7--774j-hh--O:py22e::42:4222a222af-@fydfd:2:6:4:4:96aaaa:O*da::4:::6::-*22:2::",
"aaa2ayay2aa++6647447777----j--h#--O:fi2y2422::4::::622ef-+y96::4:*-*4::4:69aa2:O*ie24**:::::6:22*::2",
"a92aay2aaaa++x6447l447--7jj--jjj--O:dyyyr6a66262:66622ef-+a9:4:::296::-:22yyye*O*a62*66:**:::2::422*",
"XXXXXXOOOoXO+OXXXXXXXXXXXXXXOOOXXO#OooooXXXXXXXXOXXXXXXOXXXXXXXXXXXXXXOXXXXXXXXOXoOXXXXXXXXXXoooOXXX",
"XO+@+@@-@--7z--@@@@@@+XX@@@+@+++@------@@#--+X++ooo+o++--7-+++++@+oXO+OO+++OO+#+OOO+OOOOOXXOOOO++++o",
"X:a2r6r62a6aaa9a26996aX@fiy::::*::::2::228nB7+ada29664-:6a66222ei2y##------##+###-#@-###-+O74444444*",
"X:e:r6a:rrea2aya66996ao@vy22::::44::224229fN7Oydaaaavvv96449222iidy@#zj---h-#####-------7+O744646644",
"X:arer2e22a22dayaaa699+-fy222:::444:::::aafv7Offaa9x9vvv8vvay:*efiy+#jzzhjhj-h-----7jh--h+Ol499x6946",
"X:2:2a22y2y2yi2eiya69r+@fy222:*:::*::222aaff7+mmdaava9xvaaaayaae6ei#-zlxjzh--------#h#h--+Ol46666669",
"X:r2eaaeeyfdiffdieay9ao-dy2222::::2:::46ffgv-+mmfa2a6xv9a6:eye2ifdi+-zzzzzh#----#---hhjjj+Ox49a9666a",
"X*2::222:::22:22269624o+22::::644:::2:2yaffa-#mggdyye222e*:2222agda+O-7--h---------7-----+O7&444444*",
"XX                    OO              XXXXXX##ooXXXX. .XXXXXXX.XXXXOX. .....X...       ..OOXX  .XX.X",
"---****:::**XX::*4:-*::::********:*X*::44444xxl4-77-::-4*Xo-----*&*4*---*---***oX-444:44*xx4:--47*--",
"&*:222y2yiieoOfffaa662r2e2e:2eddgfyO2iidyyy2y8ypyipypggdio*y22:22=:::::9996226y*OaNvvx6446::269222a9",
"v::2*2yedfii&Offbdayayeyy:22yyiigfyO2fpfaa22yyeyeyyyyiiaao-ee202e2262:::99:22yd-OaNvv66:22:22968899a",
":*:6v22*afda&Offfiiy::2y:2yyyyy2iiyO2fd8262262262e222apdd@*yyey:22:22:2:22:82ei-O9vva2222620iyyffa92",
":*:64:69ydfd&Offgda2re2ea2yy2yyeifyO2iiy2e2:=2:2220e2:ggd@*yye2222262222e2222eg:+6vvv2v26ae0ppfvvavd",
"::::::2:aabd&Ogfdddya66e22y2aiiiide+yppfi:2:::22:*2eeymg2+*ie02222::e22e2=20eyi-+2vvvvv9avae0iifNNNy",
"7-&#--*&-@7*OX-7*+*--oo&*::::222y:2#*::::-******::*::2y2:+@::::*:*&%**%%*****::-+********-44:*%*:-**",
". ...XXXXXXXO+XXXXOXX.XXXXXXXXXOOO##OXXXXXXXX   X.XXXXXXO##XXXXXXXXX.XXXXXXXXXX##OXXXXXXXX .XXXXXXXX",
"-.7499xva9a9a92999aa694X@62:4466449x4*:2:22::oX447xxxxxvvNvvvxxll77@X:22:22::::46:**::**2:Xo:::222::",
"7X46a:avv69aaaaaaafvaa9O*aa6e222::::::::2ee:e+Ovx4xNvxvvNvvvvvvxxxl@O:22::2::::*::::2:22eyX%2929ed22",
"zX66r6aaaaaa:afffaffffa+*aaae62266:6:::::22:6++xx4xvv6vv99avvvvvvxl-O2222222:22::22:2::2piX*aNaaee22",
"zX64a666aaaavafffffvava+*daa:2292e2222262r222++4646vvvava9vvvvvv9xl-O2222:26922262222:2egyX*efeiyee2",
"lX96a66aa6adffravvfgfaa+*aae22a222aaaae2rarrr++x6a6vvvvvveavvvvNvvl-O2222:::::::9222:2yygyX:eviiyi02",
"zO6*699aaaaafddffffmfN9+-raaaaaa2eaea2e2:2622++66aav9vvxa99vvvNxvvl-Oee22:::::::::::222yfyX%:6ey2e2:",
"XXXXXXXXXXXXXXXOOOooooOOXooooooooooooooooooo++++oo+oooooooO+++#+++oOOooooooooXXXXoooooooooOXXXXXXXXX",
"4l77-@-@@@+OXXOOOXOOOO+@@+OXXXXXXX. OoXXO++++-h@#++#+++++ X@#+@@-##--++oOO+XooO..+#+#@####--@++ooooo",
"fvvNvfaaaaa9Oo2222::2:**22:4::4:::oX2222:4464444:::466a2:.*yy226629a989:9a996x2oX26:6662226a22:22e22",
"fvvavfffaaaa#oyee26r229622:*22222:oX2266:9:994496:62222:=X*yyaya82:2eyy98y::222oX2:4::*:22:e:2:2yyiy",
"NNBNNNBNNaff@oiyeeeee269a624:22022oX26:696999:44:4666:2::X*22yidyya82yy2e26922yooy:44:622292:222eyye",
"2aaaNVNvBNav#oiy222rv9a4*62:e222==oX26:69:9:4444492:::22:X*eyayyy8e::8y8e22:62aooe:::::2222e2282eye2",
"fafvfNvNnavN@oiye222:2avv662y222=2oX29:694:96:499:6:4:22:X:y2yy62ayyyye:2229eyyoXeva6226:22a2yy2yeee",
"y2:899vNvvaa@oy26::4x:64::4*:46622oX9664:4444:466*444422:X%::22288e28222222:22:Xov69:666:22:::::*:::",
"XXXX    XXXXOOX.X .. ......XX..XXXXOX.XX XXXXXXXXXXXX. XXO.                    XX .        ...XXX .X",
"@+94449944vvvv9x994944@X-l4444449494--77-*7--Xo*--------74--*---**-OX-*****---7--*-**o-::*Xo:::::**-",
"z#vNfaavvadaffdifffffa7X:2822288888aa92699969+*aya999222::::229a222oX:228e2222222:226aariyX*eipy:22*",
"-oafya2ayyyy2yyifiidyf7X:8aa2a:98a899282698:6#-aaaa9982*::222aaa8ee-+2a8a22222:y26:2yy22da+*igge22::",
"@ofayey2yyfdiiyyyiiyfp-O:89:9992982222:26a929+-aay92y99v628*:8aaayy-+2a2y8y2226y28yyye26ea#*pgiee22:",
"*ovfNffydy0yey2yyfffpf4O:y2922y29ya8a892y9aa9+-a9a9:99::2229889aayy-+6y2y2yy222y2yy:2e:*22+*gie2e222",
"*@NNvNNvfvBffyefffffNv7O2a8922822i8yypyyaaaav+-a8aa99:269:2:2aa69yy*+282yyyy222228yaiyr6ea@:mie2ee2:",
"oo-@--@-@----o@***--7-@#-*******:::8-*::-747-O+7-***---o--------***+Oo-oooo****-**:*%*:**-#@--****--",
"++XXXXXXXXX. .XXXXXXXX##OXXXXXXX...XXXXXXXXO+##XXXXOOOOo.XXXXXXXXOO##XXXXX..       ..XXXX+#OOXXXXXXX",
"9922yyy94xx@Xyyy:22::::7-**:2:::--O::6969:a9:aa9v999999aX#xxMxxxl4ll474xx49447XX-7774999474-74444lx4",
"af2aya26xll#Ommd222:62666222y22a24+2aaNvv2f6aaaa6694:6:aO-VNN7Vxx7lxx9vvvvx944+X4994l4xv4l47xxx94xxl",
"ffaaya66xxV-Omaa626626999a::a89899#9aaNNvavaaff2a9964:29O-VMxxVxxxll7xvv9vavx4+Oxxa6x9944497xxxxxxl4",
":aa2e6a9xxN-Oy69:969449aaaa929a929+9faf9aaaavvfaa926:66a+-xxMlxxxxxx99aavva9x4+O4xv9vvvxx4x-7xvvvxxl",
"daa26e2:4xx#Oa6999x:49aa99aaaaaaa9+aaffva2a2:vvva992962aO-xlx7lxx4v99v9avfa99l+O9x9699999494xxxx9994",
"iaaaay8v9xl@Xaya9999vavva9aafafffaOaaavvva9vvx949966624:+-47xxxx949x99avvaa994++449699ax9964999x4ll7",
"ooooXXXXXOOO++@@+Ooooo+++@o@+o@@@@#@@---ooo@+@+@@ooXXXXOOo+@++o+++ooooooooXo+OOOO+@+o++oo++++++@@@++",
".Xoo+++@o+@---@@@@+oOXXO@----@@-77lz-7----7-OO#-@@-------@#+++#+o@+Xo++@++++++@@++o+ooooo.X@@@@-@@@-",
"X:afppiy6629:*6yyayaa2O:pd9apyafaaaaa9aavvvf++9vvvvaaa9949vvx469lv7X-99N92e2:7***:222yfvaX*dyaaax99a",
"+2fmmgiipye4-4appayyyyo:fmaBBmffavvBvvva96vf++xxxxvvvxxxx4vvxxxxl4-X8aav:26664:499a226afaO*aaafnfffa",
"#8apgyagiy66vy8w2:eypy#:fmfgffmgfBvBBBBdvvaf++464lxx9xxxxxxxxxx4ll#O8af9y2:666226222222a9O*a9a9anffa",
"@9ffp2*yi:*220agyvpnpy+*fffffyaiffaBBvfadavf++4xx49xvxxxxxvxlxxx77-Oypa4869226:264:622afaO*aaaffaa9N",
"#9fppyfiie262e*6pipmgy#-af6fffffmfaff6aaa:9a@+l4xxx4xxxx4xvvxxxxxl-O8fa9y2229:96249aa49f9O-v9avvafvv",
"+4aafaayypy9ayvxayapa9+-99aaava9aa9aa9999v9a@+4l44lxxxxxxxxlxxxxzz@+::4:26696999699aaa9a9O@4999vxvav",
"+XXXXXX.XXXX.XXXXXXXXX#O..X.X.XXXX.XXXX....XOO.XXXXXXXXXXXXXXXXX..O+XX..X.XXXXXXXXXXXX.XO#X.........",
"9-*::*:::::XX77444444994994:4::44-.:99444777z77774477xx7.+*77----7ll44444777z-XX@-**-7**44*4--***:--",
"f66ae62adiyoOxxvvv998aaaffafy88ya*Xnmfyyya99422:2yyafBB9.*2y24999vv9vaNNy99a9xO%iii2e:::::::::22222f",
"a66aa669a6aoOxvvvaaaaaafffyffppfa*XBmmy2222228222yayfBB9X-2282228aavaa99avvvavO@fiyea26:2::2e:22e22d",
"eeaya4262aaoXavNa8yapfnfmmffpyfda*XBBmy2:222222922828nB9X*222226:2y9aaav9999vv#@ffe222222::2:62e2:2a",
"622%22666er+Oaafavaaaffnmnfffyffa-XBBfy22298622646a6afNNX4922222628a89avv4v99N#ofBye2222:2222=2e222y",
"ea9v96*9aya@+9vv9aaa2ffnfayffffff:OBBNa99aaa9a964999avBvX4f8a6622699aaaNNN9949#oafda2::2642e2yyy222r",
":::--77***-+O-77----7---444444---@O@-:---7------*--44997O-9477-*-------7:47---#o:47*-7--*@--*%*:*-*7",
"  ..XXXXXOO#@OOXOXXXX.  XXXXXXXXO##+OXXXXXXXXXXXXXXXOOO###OOOOOXXXXXOOOOOOOO####OOOOXXOXXXXXOOOOOOOO",
"X-44x44499996av99aNNn9Xo449999aavxa992::4494+O8a99a6xvxxxxxva9va9x7O:4xvvVVBNNNxvNNNNMNxx#-xx4vxvM44",
"X-vVN999:9a46vaayaymna+o94:99a9vNvavaaaavavv-opf2avvvvvxv996aaaavv7O:99avvVNax9xNxxx44xxx#7xxxxxvx94",
"O7vx24226advaBvNNffppa+o994aaaavvvNNvvvvvNvx-opfafvvvNvav9vvvvvvNN7+::2699Nvvxv949449449x#7994xx999:",
"#7v99::99yfvaNv9anmppa++666aa9vvvvvvvNvvVNvv-@gfvfvvvNN9NxNNNNNaNv4+:9:66xvN99999**4:24v9+-9v449999:",
"O-:::::2aaav9yavBnmmnf+o9x9vvvvvNvvvdvvvNvvx-ofbNvvNNvNNVxVVVVNvNVl#::2::vVNvvVv9v6:22492+*499999x99",
"O*44999a9ad94aaamNaNmf+@v4xvvvavNvNfbffavvxx-@gNBNNNNvCCVVNVVVVVVVl+:299vNZCvvxvv9:294998#*:*44xvx22",
"XXXXXoXXOOOoOOo+@o@@@##OOOOOOXXOOOXXXXXXO+XX+#o+oO+o+##OOO++#ooo@++#+@@+@@@+oX++#@ooO+oooOOoooo#@oOo",
"x444474-7--@.+-------7ll7---777---.X-----77747----77-7--oX------77llzzl7l77777oX@-------777----7---*",
"aafyaaaafmffX:afa969499xv49yfaBmayXogfyaaa98:446929aaafg*odaddaaa9a26figfyfiyy*Oiia29:66667442::aaap",
"9vfadvvfvvffX2ivv999469vv99apfpffiO%gfaa999244444:29affm*oeiggff99a8aafafafeiy*Oigf666966446:*69vNBm",
"aNf6aaaaaaafX:yfv996629vvvvapypfviO%gyyaa9994-444:49yffm*oeyfgfd44ayyydafffiiy*Xifaafa4:-*74:::afBNm",
":aa:2aa:aaayX:afa4686699xavafaffae+%gi2282:4-44444499afm-+e2dgdda99:yye::iiyyr*Xypdfv2:44449::6aaand",
":222ayy:ayyaX8gff928a29v9vvviiffay+*ffy292:**:4*4::2aafB-+22eida89a9yye2ayy2ea:Oya2996626:::4:aavadg",
"*:**:2222**2O4a2a8::::4:9999::a9:*O%2a9966:****7*77499aN@@228ay8222::%2:22222:*O49:**::::::*222::9a2",
" ..XXXXXXOOO#OXXXXXXXX.XXXXXXXXXXO#OXXXXXXXX .XXXXXXXXXX@#XXXXXXXXXXXXXXXXXXXXO+XXXXXXXXX.. XXXX. XX",
"X*2::**:222:**222:2ey2O-2:aa2a999669v9avaanf@+99a9aaavv9v4vaaaa982oO:::**47-:9496*****::-X@**47444*4",
"O:qq2%%:2:22222:%*2eyyo*669*:aa66a6vffvBNNBf-oaayayidaaav66aaadaay-@y222:22::**22v9222=e4X:ra2222:::",
"O:iq2ea2%%2222::22=::0+:226466944992aaNBNNBm-+avaaa2:avaa99a69a64e-@i22222**:4422262aa6a4O:ar62r96::",
"O:ii0===rr:*%o*::::2ee+-e264**46:66aaaNBBNmn-@4v9a9999ava99666694y--iee22264:::2::2:62er4O2raryrra64",
"O*222=e2ee2:46:::::222+*:-:49444449aavNBBNfm-@vav9a9vvx492fax9666e-@eeyy:=::::2-:::*:2ev4O22a6ar6649",
"O*die:*2e2*2224::-*:22+:av686l99449aaaaNvNBB-@vvvxvavvvvffyf4l469a*@ii669224629x666x466vxO:ar46664:6",
"#+@@oo+oooooo+ooo+ooXO#+o@oooooo+++oo@+@ooo@##o@--@@@------@+XOOoX##o++++&--+o-+-@++@+--@+++-&-&--%%",
"j--#@@##@@#+X+#######hj-##-@@@@@@+.O@---###hzz----#####@O+#@##@@####++OO++####OOO#++###@#j-###@@@###",
":62:22::229-O:6v4666664:::::2e2ay=X*0y2y24-444x999944::y#-aaagd69aaa469744avva@#9x4x96avvvNxvvv9vvvv",
"8::2:222:264O:r646xv4446::4:226aa2X*wiyaa:444469va6a22:2+-eeydfvvya84:248:29ar-@xx6xv46vvxvvaavavvxv",
":4::222:*a67O*r666944l44**4666966=O*gy8996444*29:::22222+-i8:edya28:46::26269d@@x946v44x9666224vvxlx",
"222:*-4:9a24O:6666xxx444447466446:X=giy8aa6444499992-:22#*e262ad26649-64:*44-a-@x4x9v96va6ar2:64axNv",
"469:*4:622*xO2av44xvx4:****4966692X:py2a26964:22a69:64:y@*ayy22a6*::644::666xa-@lxxxx9aa2aar6269vNNV",
"74**ooo%**-*O*-474444:474***644&-:O*yy8a949699a9aa99449e#-aaa229a662266r6999::-@lllxxv6a62649964*xxl",
"XX.XXXXXXXXO#OXXXXXXXXXXXOXXXXXXXO#OXXXOOOXXXXXXOOOXXXXo#+OOXXOXXOOOOOOOOOXXXO##OXXOOOOXXXXXOOXXXXXX"
};
