/* XPM */
static char *_60ce6a3b6b240fbd6db0160a13a08be5fBzufjq2FAyg0tE[] = {
/* columns rows colors chars-per-pixel */
"64 64 30 1 ",
"  c #1B1B1B",
". c #1E1E1E",
"X c #202020",
"o c #272727",
"O c #2A2A2A",
"+ c #2C2C2C",
"@ c #313131",
"# c #343434",
"$ c #393939",
"% c #3E3E3E",
"& c gray26",
"* c #444444",
"= c #484848",
"- c gray31",
"; c gray32",
": c #555555",
"> c gray35",
", c #5D5D5D",
"< c #626262",
"1 c #676767",
"2 c #6A6A6A",
"3 c gray43",
"4 c gray44",
"5 c #767676",
"6 c gray47",
"7 c gray49",
"8 c gray51",
"9 c gray52",
"0 c #898989",
"q c #8E8E8E",
/* pixels */
"++++++o.+<O++OOOOOO+OOO. 2$@##@#@@##@##+X@4&***%&****&**@+4@O++O",
"....... +<OXX. .......  .2#@OoXXXXXoooXXX#4&$#+O+++@+@@OO+3+OX. ",
"++++++++%1++O+++O+++O++OO4$@@@@@@@#@@@#@+&4%%$$$%#%$%$%%$$5#++++",
"43q22222232232222259454445445544454q2222223233222225934434443443",
"$+7@+@@@@+@@#@@@++%3&&&&&&&&*&&&&&@7@+@@@@+@@#@@@++%2$$%$$$$$%%%",
"%O7@@@@@##@@@#@@@+&3*&&&**&*&*&*&*+7@@@@@##+@@#@@@+&2%%$%%%$%$%%",
"$O7@+#@@@@@@@+#@@o&3%*&*&****&&&*&O8@+#@@@@@@@@#@@o&2#%%%$%%%%$$",
"@o7@@@@@#@+@@@@+@X%3&*&&&*&*&**%*#o7@@@@@#@+@@@@+@X&2$%$$$%$%$%%",
"+o7#@#@@#@@@@+@@+X&4&**&&&***&&**@O7#@@@+#@@@@+@@+X&2$%%$$$%&%$$",
"oO7@@+oXXooooOoo.X&3&%$@+@@@####+O+7#@+oXXXoooOoo.X&2%#@+OO++@+@",
"oo7OXXXXX.XXXX.X..&2@+OO++o+O+++OOO7OXXXXXX.XXXXX..&1+OoooOoOoOo",
"6685555555568666667866666666976666696666666678555556866665565956",
"@@#@@#@@#@@$3%%&%%&%%&&%%%%@6&&&%&&&&&*&&&&&&2###@#####$###@+5#@",
"#######@##@%3&&&&&&&&&&&&%&@6=**&&=*&***&**&*2$$##$$#$$#$$#$O5##",
"#@########+%3$&&&%&&&&&&&&&O6*%=****&**&***$&2@#$$#$$#$$#$$#o5$+",
"###@@@##+#o$3%&&&&&%%&&&%&%O6*&*&***&&&**%*+&2####$$###$#@$@X5#@",
"######@##@o%4&&&%&&**&%&&&#O6*********&&**&+*2#$$#$#$$####$+X6##",
"OOO++@@++oX%4&&%$@#$$$%$##OO6=&&%#$$$%%&%$+O*2###+O+@+@#@++Xo5##",
"XoX.XXXXXXX$3#OOoOOooOOOOOOO6%@O+oOOOOOOO+OO&1+oXXXoXXXXoooXX5@o",
"4333433433360454444445444444q54444444444444469444444344443434q44",
"%%$@4%%$$$$%$$%%$%$$%<###########$##+3@@++@@@@+@@@@@+#1%$$$$%%%%",
"##$O3%#$#$$##$$##$###<@@@###@@#@#@@@o2@O+++@++++OO++O@1$$$$$$#$$",
"$#$o3%@$##$$#$$$$$#@#<@@@@###@##@#@@X3+O+++++O+++O++o+1#$$#$$$$$",
"$$#X3######$@###$#$O@<@@@@@#@+##@@@@.2+++O+++O+O++O+X+1$$$##$##$",
"#$+X3%#$$#$$#######X#<#@@@@#@#@@@@@O.2@+O++++O+OOOO+ +1$$$$$$$$#",
"#@oX3%#$#@#@@#$$##Oo#1@#@@O++@@#@@+X.3+++OoOoOO++OOX.@1#$$#@@###",
"oXXX3#+ooXooXooXoXXX#<+ooXXXX.XXXX..X2+X.. .. ...... +1@ooXXooXo",
";;;;8:;;;;;;;:;;;;;;,5;;;;;;-;;;;;;--7;-------------->5;;;;;;;:;",
"=------=:4=-=*=--==---=-=6----=---------=;6>,>:,,,>,,>>,,:7----=",
"+@@@@@@+@1++@@@@++@+@+++X2#+@@@@@+@#@@@@@+4&&****&&***&**@4#+@@@",
"+@@@+@@+@1++++@@@++@+@+@X2#+@@+@@+@@@+@++@3&&&&***&&*&*&*@3#+@@+",
"@@++@@@O+1+@+++@++@+++@+.2@@@+@+@@@+@@@@O+3&**&&**&*&&&*&+4@@@+@",
"+@@@@+@.@1+++++++@+@@++o 2@@@@@@@+@@@@+@.@3&&&&&*&*&**%*$O3#+@@@",
"+#@@@@OX@1+@@+O++@@@+++X.3#+@@+@+@@@@@@OX@3&***%&*&**&**@O3#+@@+",
"XXXXXX..@1+Oo...X.XXXX...2@+oXX.XXXXXXX..@4&$#+O++O@+@@OO+4@+OXX",
"+@@@+@@+%2+@++++O@++++@++4#@@@@@@+@+@@@@+%4$%$$$%#%$%$$%$$5$@@@@",
"3329333333433333333493443444444344439211112222221221382332333333",
"@@O2&#$####$$%#####+4%$%$%%$$%%%$%%@2@O+OOOOOO+OOOOOO3@@#@@@@@#@",
"@#O2%$#$#$$#$$$#$##@4%%$%&%%%%%%%%&+2@++OO++O+++O+OOO3#@@@#@#@@#",
"#@o2%@$#$#$$$##$$$@@4$%&%%&%&%$%%&%O3@o+O+OO++OO+++oO3+##@@####@",
"#+X2%#$#$$$#$#$$@$o+4%%%%%%%%%%&$%$o2@O+OO++O+O++O+.O3@@#@@#@@@#",
"#OX2&#$##$$$$$#$$#o@4%%&%%%%%%%%%&@O3#O++O+++++O++O.O3@##@@####@",
"o.o2&$@+OoOO+O++Ooo@4%$#+O+@+@@@@OoO3@+oXX..XXXXXX .O3@@+oXoooOO",
"oXX2#oooXooXooooooX@4+OOOOOoOOOOOOoO2+X.. .. ...... O2oXXXXoXXXo",
"5557555555775666666686666669555555558555555775555555685655659566",
"@@@@##@#@+::#$###$##$$####+7@@@+@@@@@@@@@++;:###@####$#####O7@@#",
"#########@:>$$$$%$$$$$$%$$O7#@@@@#@@@@#@@#+;>$$##$$#$$$#$#$O7###",
"#########O:>@$$$$$$%$$$$$#o7@+#@@@@@#@@##@o:>@$$$#$$$$#$$$#o7@@#",
"###@###@#X;>#$$$$$#$$$$#$+o7@@#@@#@@@@#@@@X;:#$#$###$#$$@$+X7#@#",
"####@@##@X:>$%$$$#$$$#$$$+o7@@#@@#@@@@@@#+X;>$$$#$#$$$#$#$Oo7###",
"+OO@@@++XX:>$$#@O+@@##@@Ooo7@@++oOOO+@+OOXX:>##@+O+@@@#@+Ooo7##@",
"XXXXXXXXXX:;+ooXooXooXooooo7OXXX.X...XXXX.X;:+ooXXoXoooXooXX7+oo",
"444443443387444444344433444q34334334443333387344334444444444q344",
"***$4##@@####@#####@$,###@##@#@####@O2@+++++@@++++@++#2***&*****",
"&&*@3#@@@@@@@@@@+@@+@<+@+@@@+@@+@+@@X2+OOOO+OOO+OOOOO@3&&&***%*&",
"*&&+4#+@@@@@+@@@@@@O@<++@+@@@@@@+@++.2+o+OOO+O+O+O+Oo+3%*&%&*&&*",
"&&%o3@@@+@@@+@@@@@@o@,+@@++@++@@@@@+ 2+OOOOOOoOOO+OOX+2&&*&%&%%*",
"%&#o3#@@@@@@+@++++@.@<@@@@@@@@+@@+@O.2+OOOOO+OOOOOOO @3&&&&&&&*%",
"&%+O3#@@+O+O++@@@+oX@<+@@+o++++@@+O..2+O+OoOooOO+OO..@3&*&%#%%%&",
"OOOO4+oXX.XX.XX.XX..@,OXX.......X....2OX.. .   .    .@3$++OOOOOO",
"::::8;--;;;-;;-;;;--,5-;--;;-;-;--;--7;-------------->6::::>>:>:",
"========;3*==*=*====*===*5------;---;--;-:6>,>>,,,,,,>,,,:7==*==",
"O++++++++<OOO+O+OO+O+OO+.2$@#@##@@@#@@@@@@3&&****&****&&*@4@O+++",
"O+++++OO+<OOOOOOOOO+O+OO.2#@#@@##@@##@#@+@3&&&&***&&***&*@3+O++O"
};
