/* XPM */
static char *_4ca565d0ecf416e9dd6bd85d54e676fCkMqCKJbfcRql5X3[] = {
/* columns rows colors chars-per-pixel */
"100 100 59 1 ",
"  c #69A743",
". c #6DAB45",
"X c #6FAC48",
"o c #72AD46",
"O c #79AF46",
"+ c #73AE48",
"@ c #78AF48",
"# c #77B047",
"$ c #7BB147",
"% c #76B14A",
"& c #7CB34B",
"* c #7FB750",
"= c #7FB850",
"- c #83B246",
"; c #8BB647",
": c #8EB847",
"> c #84B54B",
", c #84B64C",
"< c #86B74C",
"1 c #87B74D",
"2 c #88B649",
"3 c #88B64B",
"4 c #8AB74B",
"5 c #8CB74B",
"6 c #89B64C",
"7 c #82B84F",
"8 c #86B84D",
"9 c #8BB84B",
"0 c #8CB84B",
"q c #8FBB4B",
"w c #88B94F",
"e c #8BBB4F",
"r c #8CB84D",
"t c #8CBA4D",
"y c #8FBC4D",
"u c #93BC47",
"i c #90BA4B",
"p c #91BC4A",
"a c #90BB4D",
"s c #91BC4D",
"d c #94BE4C",
"f c #94BF4E",
"g c #82B750",
"h c #86B850",
"j c #85BA51",
"k c #8BBA50",
"l c #8ABB50",
"z c #8CBC51",
"x c #91BE51",
"c c #94C14E",
"v c #95C04F",
"b c #99C34D",
"n c #8EC154",
"m c #8FC559",
"M c #93C252",
"N c #98C552",
"B c #92C559",
"V c #97C95B",
"C c #98C859",
/* pixels */
"*%+++o.oooo..++++++o%&*&%+++++o+++ooooo++++%&%%+++o+oooo..oooooo++%&%+oooooooo..+++++o+o%&&$%%%$%++%",
"le11eeee66t$%lle16et8111711117&7j&%4te4e4ee6e6teeetttsas&$fssttet6166444400tip4%>0at6441>41111189444",
"teeetteeeta&%e611111171771jjg&&*g&%40t9tt04661eeeeteycss&&ssstsat1664eetstsets4%-sse1441>111114t4444",
"eeetteetttt$%e61711777177&7g&&*j*&%4s0t00tt6466669649tss&&fsssf0t8e111et1eytsa4+4st18111>>>1e6904444",
"etettttttyt&%e6177777&77&77777gg*&%4f0400416646646t465ts&&stsfs444611461tettst4%>st444444616&4044444",
"tyy4tttt4yt&%ee1171777g7777g&gg&**%4fp00e6444114446e440c&$see4111->>164e4eets94%>s04e>>44414e444>444",
"tt0ttt9tyyy$%le111j771777jg7&jjg7g%4sattt6tee6696e66440c&$ye661446ee44>44400i04+>te446e4>>4444446444",
"ooooooooo+o%%+oooooooooooooo+++o++&%$$oooooooooooooooooooooooooooo.ooo+oooooooo+ooooooooooooo+oooooo",
"Xo$&$&$&&&7jj&&&&&$$$$.o&&&&$$$$&77&&&&$$&&&%+%$++@$@&&&78&$$$$$&$$o+%%+%%%+%$&&++++++++++X+++++++%%",
"o4t4t6teetettttt4eeeeto&Mat1-4444444444409cN8%ssteteee71etee66tti60&&7&&*&*&&&&&&&&&&&&&7%+116661117",
".4t4t6t4ttttttttteteeto&Mi464444144446646tcM8%ssttxzzzzle88eeteipat&&jjg&&**&&&&&&&&&&&&7%+11ee66e11",
"o4at0t4te4t4tsttttteet$&s04e644444144444ttsM8%sfstelezzzezzyt4-0ss0$&jjjgjgj&j&&&7&gg&&&g%+lelelel6e",
".4445t54040tas50stteet%&s094444144444444zsfc8%ccsayzyelzyttytttttts$&jjjjjg&&&&&&&7&g*g7g%+jlle66e6e",
".4t6taa0t0sssfssststtt+&s0440444444>446eMcMx>%cNstttezztte4tt04ifss$*jjjjjg&&*&&&&&&ggjjj%+llllte6et",
".>e44664444ee4ee9etee1o$t04411611>144440ysss>%cbfatt0e400>4604eafps%%77&gg*&&&&7&77g77&*&%+1&88e1117",
"+.                   .++.            ....ooo%&%ooooo........oo..o.o+X.  . ......  .    ..+%.........",
"1&>>4>44444-oo44414774144>->>>>>44-.>e1e888elll881818148>oo>>>&>-->1>>&&>>>>>>4$.78181117zle14117>>>",
">4490405aii0&osssytte6t004046tafffp%9assati9s00s0pptcffsa$&0044444-4444eeee66ei>+yBzzlel6e644tee4eye",
"z144>4ttsssi&+sfMst0at000450taaafft%9sssyt990000000aispsa$&00004046e6444ee4640s>+yBzzte444440ettteet",
"4>46l444afsa&+sfsiii-1404etaaaa4if0%9sst664464464t0t6tssa$>000i44449t4e1444e00p>%ezzt4444440iytsste9",
"144614tttsfs&+sffsy6t55tteay4s0tis0%9spt00444444445044cfs$&0005;449e9445544445f4%ezxz0ztez0;ppsMMzMs",
"41464444tsMx&+fssastatet0tt4tssiis0%0sffp49414544-400sbc9$>i005;4444i440445050i4%eBzzzzeyzt50ppsMBBy",
"7&&&&&>&&&77+o&1>&>>>$O&>4444090y49%>4444>>>4>>444>449094$&4444-->$->>&&>>>>>-4>%>>>>>>>778864-447>>",
". ........oo+%+oo+o...o.o+....++++%&+........  ........o+&%+oooo..o..ooo++ooo.o$&+oo..........oo...o",
"&.1ettzzzeytztetteyyee1o&ee418ee8ell144446444oojl8lllllznBnzzllljj1&o494494--44ee4>4-44-44o$14444944",
"j.ety4tzzeetsyysttsxtze+>attt6444444444460045$+zz8lBBlzBBBzMxznzzlj&+4444444-4--44-4444400o$4e4e0i44",
"j+eetttttttt4tsssysssxt%>ttttt6466464-611644t$+llelMztzzyezxzzzznzj&+4944944444444444444ppo-tBsy5i;;",
"joe6teettttzxssxcMMxsMy%>att4e4t9044e44t6t46t$$6666zzztxzezxzMzzlzj&+494444tee44e4e94440fpo-0s0i0054",
"j+eete6ttetssstyMMsMsxt%>aa040tt5ttttl5tttttt$%leyezxzxxz5zBzBBBnzj&+54444444444e9444900c0o-5Miiii05",
"jo6>etexyttssssMMxMMcMt%>tttttsttta0t4t566t46$%eetyzzzzzzllMzznzzzl&+0t44444--4-4444440ts0o$4ett4044",
".+ooooooooooooooo+ooO$o+ooOoOOOO+@oo$Ooo@oOo$%%$@+$@o+@ooo+++%$%$$+o%$ooo@o+ooooooooOoOO$$+ooooooooo",
"jl777&&$$$$%..o+oo+++o$&$+oooooooo..+++oo+%%%&j&$$$$%%$%+ o$$$$&&&&&&$%+++%++++..%$$$&$%$&*&$$$%$$oo",
"sxxMMMnyyyye+o94444>44446646446444O.446e46e64ee11-46eet9- -tt0eeeettttt4ytyeel9ooe6466666eet69440094",
"sMMscMsysyyy$$0004et54te9644049;44O.4e6e4e9eee8e66eee4444.>0tsiyt94000te0014440Oo06816-44t40494900i0",
"MMNMMMMMMsxM&$p000550ttetee8444;;;O+461eeetee1888eeee9444.40t0psttt0000909te400Oot4ee6e649e560440000",
"9yysBNBMMMxx$$p0e54txtte4e640444;;Oo4e4eeeeee888eee148e44o40tti0t9041ete00e4tesoo044e444466090t00004",
"syxMsMMMcyMB$$pi05464eyzBee90565;4O+4te6ee1ee1eee4e1ee444+-t000t9t00t001900e5ttoo0zlette69tt0tt00000",
"0e1eeynBzzzy$$0ee646z6ee46141e6e44Ooeee66611611ee4111e44-o$41999e909099e999e944oozeeeeee4e4e44444449",
"o...........+%....................o+....................o+.       .  ..  ...   X....   .............",
"&$eeeeee8ennMzlzee8l88&.&j8eeeeeell81187>>7>>o#7>>&>>>>&187>>>&>>>&o.&>>>>>7&>1>>>>>>O&44>.$44144>>>",
"j$zBMsyMzssssssssssssy8o44e449e0te9yyeeeete9e%&ttteeeett46644eette9$o4t9t09499t09499etttsto>0if04444",
"7%ysst9yt0p00iipspssps8o4ttt9t4ttt9eeet9et99e%>yysyette>44499tyyt00>%9t0t90e9440ee4000t5ss%4pff04444",
"&$ss00t9tisssp0iiipiss8%4tt9eeeett9t4e49ete9e%&yyyt90teze9e>69syt00>$ey9t00099e09tt00t460t$>ffi00ee4",
"&$xsMss0s00i0tt0psssss8%4tetee00t0s0tte9ttytt%>ytze4te9999ete9tsyty>$ea900t099400t0-4t4-49%4cp05000e",
"&$MBMMMMsMMss00sssccMM8+9tte9ete9p00tp0ystyyz%>ytyylt4eee4ee9tzeet0>$4t90000t994900ti0tttt&4cp000094",
"$o&&&&&&&&&&>O&$>>>48>&%&>44>4>>19494-4441l7&+$14>>>>>&$&&>>>>&&>>>$%O&&$$&>>>>4>>44$>4->>&&>&>>>>&&",
"$%o......... .....oooo$&+...........ooo.ooo+%&$oooooo+++ ...o.oooo+%$+o.....       ....oo%&%++++.ooo",
"eee900yyelz&o0yy49e444e11>44914e1&+41eeee4ttesyyzyyeeeez.&nnnnzll8jj818llele87o.7777jlll8j8&78jlellj",
"ssetat4eljj&obcset66e6eee4e4094te8%etsMMM9xttytteeeeee9t+7mmn7mlz7llzlzzBzzl88+oele1lezzele7llzlellj",
"sstttteellm&+ctteeeeeetytt64ttt0te$tsyMMMtMsyxseeeeee4et%7mnnzmnlllj1lBzezzzzj%olzzelzle8le1llzlzllj",
"4stttttelln=+set1eee81eyyytttttt9l%ysxxtytxsxxxzyeeeeeet%&nlnjzzzzllltzyMzytll%oelzezzzlzll71lzzzzll",
"stt6t0t18ln&+yeeeez8eetyeeyyyyyyte%ysxxMytt96zxzyteeee6t+&ljl1jzljzeezezMxyyel$oelyeyeeeeel7lllllelj",
"sttttttltlj&oyttellzzzMzzyysxzsscy+yyxMMxtexzze8tteeee69+&87lllleellettMxyyte8+%eeeetellleejllll8llj",
"ooooooooooo+%$$$$++%%$$$$$$$$$&&&$&$&&&&$@$$$$$$$Ooooooo++$$+++%$$o+$%#$$ooo$+++o$$$$%$$o$$+$$$$$$$%",
".oo%$%$&%%$&7&$$$$$%%o.+$&7&>&&777jj77&&&77&%+&&&&&&&&&&&&$$%$$$%$%o%%%&%$$%%%$$$$+%$$$$+.o&&&&&$&&&",
"+4scsppaee9e14e0py0st9+1sstssssstyysyeytzxxs$$lztzxtyzeejlzzleellz8.4eyMe6te1114>444essMy+$syssszeyy",
"%9cccfppf006>etfss0000%4ccsNMcsstMMMMxxzeezx$$llllzzzzllllzzzlzll8&+eysz4etee16eeet44etMz%$sysMMMMMy",
"%eycftsfpteez0tf940pc0%4sMscscccsNMMNNMszxts$$ll1lllllllzlzzlzz8lj&+0sse0446ee6ee664005st+&yyyttMssy",
"&escst4ip4164;tfsxpccp%4ssscsttscMtMMMcsszxs$$8llellzllzzzzzlzzl87&+0sye9et4ee4666460etsz%&tyyxsyseM",
"%esss0xpp00690>epppbcp%4ys6xccscMstMsetsy4ey$$l8lll8zzzlllnnzzzzzj&o0syet90et1le66tts6exy+>ztyxMxMzx",
"%8ysMyy0ipset0zzssssye%>yezzzxyyzyeyyteeezey&$jj8jllllllllllzznzjj&%49e19eeeeeeeeeetyyezl%$eeeezzzyz",
"%ooooo.........ooooo.o%+....................%%..o.................+%.........o.........oo%o..... ...",
"e1>44>44444oo7888888elleeee88488e&.8ee888788jj7888888ll7.$>7777777jj8jj8j877j7.o&&>>>7>>7177>&>>>44>",
"stts0e4tssaoollnnney9nysssssstttt>.ccc00yyyee994e0yyMNNe >90e8eeezzezMBMyyyytl+$ppp004-444444454444s",
"tettteettet+oznnnyyysysscc0scpssy>oNMc009499e9994tyysNNe.>4999e4etynzyyeyzzzzz%$sst0t46444455440004s",
"t0att16eett+ozMMy90ysccxMcscs0sst4+NNc094999e99eeete0cNy.>09990t4t0eyzyzeeezyn&&sst9444441446e40444s",
"t44>4tteett$oyycyxsyycccccccc0ssy>oNNc0e99eee9ee6eyeysMn.7t90994e9tyyeynzezyen&&MMt0406446444;555550",
"0ytzt6>ettt&+ezMtyyyesccsyyscsscs8+NMMyeeyzyeyee6ttyzMMn.8xttee09eeeyzynBBeeee&$ssst444e6e6t5t005ttt",
"441>777>>>>$+77777>774178888ee11>$%$71>>77>&>&>>>>488ee7%7e8887>&>&>>>>88ej7>&&$1e7>&8>>>&>&>&>1>778",
" ......oo++$$++oooo...  .....ooo+%&%+oooo+oo..o+oo+o++%%&%%++o+o+oooo+%+%%%%%&&%++++++++o..o+++++%++",
"+&ljl88eeeteetzeeyMMce+o11eeeeyMzzteee4eeee8$o9yeezeznllzlzzztzyel7%4elnnBBNnnnznBMBnnnnl%7nlezznn8e",
"o7zBBeet4tteeMyssyybcy+$te1ttytMMztzyzyzxlzz&#pstsxzzzzlzetezyyyzz7%eeeznnBnyzlznlll88lzl$jllnlnnze8",
"%7zleeeeetszyNMMMscccy+$tejtyztzMzBBMxzzBnzz&$cstxMMzBBtxyxxMxxMMB8%44eeeennnlzzlee1le8ll%7eellleee8",
"%7nze94tttsztMzesccccc%$eeeyyeMMMxxMxMMzBmnn&$cfMxMMMBBeByBMBBBzBzj%9e1eelznzzeee>>84eenl%>lz8elzee1",
"%>814919yysyetyMNccbcx%$tllzzzMMBMMxaxxBBBnz&$sMMMMBBzBBBzBBBVBzBBj%44911zBNnnVzeze4eeeee%>eelleelee",
"%>eeeeyyezseeyyycMsMbx$&xezzzzzxMMMMMsssxzzz&$MNNBBBBMVVBBnBBBBBVBl%49eezMVCMxzzze49t8ett$4e>eelnle9",
".oooooooooo++oo$$$$$$$&%++o++ooooooooooooooo%%$$+%%+%$%++%+%%%$%$$%%$$$$$&&$oo%%&&%oo%++%%oooo%%$%oo",
"ljj888877>>&.$77&&7&&7jjj&&777777&.o7>>7&77787&&&7777777o+&&&&7777jjjjj8j87877%.&&&&&&7&777&7&&7&&>>",
"ysxtyttysMcs.4ssyteeeeezz8etsyNctpo$fsyyyyeeee8ee9tyyssc>ossastateteesscstspi0>+isy4t4eeee11e646ysss",
"tMsyszzxxMMso9sMMeeeeetzzleysspfsp+$bsystyee1188149tyscb>@isffsstet0tsftcss0i0-+pcseeeeeeeee14eexMMc",
"yMxtttttyzyso4tMMteeeeezzMzyssscMpo-bityyeee148181ee0ccN>$0affss8et0t0stssssp04oisyysxe1>>71444ysMMc",
"4ts49yy1yysyo-scy8eeeeellzzzstsMz0%$fi440461111118eeyysc>$05scssyee4t00e4sstat4oisssx9111e1e41ettyMs",
"4494ttt1atss+0Mcseeetetzezzxpsssti%>fst9te644114116eyysN>&540asaeeytt005ytae0t4oasttteeee641eetyzysc",
">44449499--4+ey0y04494eeeeee9eze4>+$eyteee44>7>1>111eeyn&$44tytteee44-44999994&+ee4->4-4444499e44yy9",
" .....ooo+++$++o.ooo....oooooooo++%++ooooo.. ......oooo+&%ooooooo...oo........+%o..ooo..... ........",
"o&44-->44646>>4491000;+>44ttetleteetxtyMssMM$%etytyyzzzyz8ztyyyte9$o444148144e1ee>744441&.$777771147",
"+4iu;--44-444444->40tio4e6t41tteeyexyxMNNMNc&Oatas0aststxe6tttssyt&$045444444>>44zt4444t1o4tt54t4--1",
"+;pi;ta4->44644-46444:$444eeeeeeeeeezzMNNMNc&$xxtttt1zzytettttte60&&p44444>4411445eett6t8+4ttt5ttt-4",
"%4pi;;;;tt41&O>-44-400%>0e61>71e1eeyyyNNNNMc&&ezttteetzzsteeeeel8t>&p00544e144444464640t8%6ttttttt66",
"%4645;0500541l44414440%>4&4el11616eyyzBNNMcc&&ztzlztzzz1e9stlleeet7&0ttt4444444>444>460x8%4ettttt61l",
"%4ai54-409-464111>>455$4zzeeelleeeeztzzMMMNN&$zzzlzzzzxxssaxlljlet7&pi6el546e6eletel16ezl%4tt666611e",
"%%&&O@$@@+ooo+o++%+oo+&%$$$oO$@$$$$$$$$$$$$$$$o$&&&$&>&&&1>&$+%o+o%$&$$$$&&&$O&&&&&&$$&7&%$&>&&&&&&&",
"j7&&&$&&&$&%.$&&&&&&&*g&&&&$$$&&&%.+$&&&&&&jjj&=7&&&&&&&+%&$$&$$&&&&%%%%%%%%&$+++%%%&&&&&j&&&&$$&&&$",
"4e44444444t1+46l166ee6141614556ts;+-i09te1111ezztttej440$&ttsxseeyyyeee711yxzt&&eleleelxlzBzxxzlzBzz",
"014449441ee1+4tt1elze1164416466tt5+-upttt4e8eeeexyete444$>00isMxztte8191e1etzt&$llelxeezzlxzyxxttzlz",
"61644e411ye1+>te6el11e661116eetet4+-ftteee8e1>6t644eee94&>i040s0teteee469eeets&&llllz11lleee5eezxljl",
"e9444>66eye8+4tt6ellll111111te11e4.-fsyttte888eeeeee1844%>05e0ys0te1e1e6171e&t&$l8llzeeztttt4461lzBz",
"1eee1646444l+6lz6elzz11>7>7jeeeee4+;p00yeetee1eeyee8ee40$>t0004te464e1811eeelt&$jllllltyetttt4elzBBV",
"78>>OOO$4>&7%>1171881411>>>-61>&1-+-0y0ye8eeeyyeyzeeeee0&>xyyeettee9eeeteeee18&$lllllzetee61lee17lll",
"o.....oo..++%+.....oo..ooooooo...+&+ooooooooooooooooooo#&%++oo++o++o+o+ooo+oo+&&+++ooo+ooooooooooooo"
};
